Exo-ExtraLight.ufo
<glyph name=".notdef" format="1">
  <advance width="652"/>
  <unicode hex="0000"/>
  <outline>
    <contour>
      <point x="59" y="-1" type="line"/>
      <point x="593" y="-1" type="line"/>
      <point x="593" y="533" type="line"/>
      <point x="59" y="533" type="line"/>
    </contour>
    <contour>
      <point x="493" y="121" type="line"/>
      <point x="349" y="265" type="line"/>
      <point x="493" y="409" type="line"/>
      <point x="470" y="432" type="line"/>
      <point x="326" y="288" type="line"/>
      <point x="182" y="432" type="line"/>
      <point x="159" y="409" type="line"/>
      <point x="303" y="265" type="line"/>
      <point x="159" y="121" type="line"/>
      <point x="182" y="98" type="line"/>
      <point x="326" y="242" type="line"/>
      <point x="470" y="98" type="line"/>
    </contour>
    <contour>
      <point x="89" y="29" type="line"/>
      <point x="89" y="503" type="line"/>
      <point x="563" y="503" type="line"/>
      <point x="563" y="29" type="line"/>
    </contour>
  </outline>
</glyph>
<glyph name="exclam" format="1">
  <advance width="262"/>
  <unicode hex="0021"/>
  <note>
    GF Latin Plus glyph
  </note>
  <outline>
    <contour>
      <point x="114" y="197" type="line"/>
      <point x="143" y="197" type="line"/>
      <point x="150" y="732" type="line"/>
      <point x="108" y="732" type="line"/>
    </contour>
    <component base="period" xOffset="38"/>
  </outline>
</glyph>
<glyph name="quotesingle" format="1">
  <advance width="127"/>
  <unicode hex="0027"/>
  <note>
    GF Latin Plus glyph
  </note>
  <outline>
    <contour>
      <point x="43" y="675" type="line"/>
      <point x="50" y="513" type="line"/>
      <point x="77" y="513" type="line"/>
      <point x="84" y="675" type="line"/>
      <point x="84" y="742" type="line"/>
      <point x="43" y="742" type="line"/>
    </contour>
  </outline>
</glyph>
<glyph name="parenleft" format="1">
  <advance width="325"/>
  <unicode hex="0028"/>
  <note>
    GF Latin Plus glyph
  </note>
  <outline>
    <contour>
      <point x="95" y="326" type="curve" smooth="yes"/>
      <point x="95" y="122"/>
      <point x="159" y="-42"/>
      <point x="257" y="-210" type="curve"/>
      <point x="299" y="-210" type="line"/>
      <point x="202" y="-36"/>
      <point x="136" y="127"/>
      <point x="136" y="326" type="curve" smooth="yes"/>
      <point x="136" y="523"/>
      <point x="204" y="691"/>
      <point x="298" y="860" type="curve"/>
      <point x="257" y="860" type="line"/>
      <point x="162" y="694"/>
      <point x="95" y="526"/>
    </contour>
  </outline>
</glyph>
<glyph name="parenright" format="1">
  <advance width="324"/>
  <unicode hex="0029"/>
  <note>
    GF Latin Plus glyph
  </note>
  <outline>
    <contour>
      <point x="25" y="-210" type="curve"/>
      <point x="67" y="-210" type="line"/>
      <point x="173" y="-33"/>
      <point x="229" y="123"/>
      <point x="229" y="326" type="curve" smooth="yes"/>
      <point x="229" y="527"/>
      <point x="172" y="685"/>
      <point x="67" y="860" type="curve"/>
      <point x="25" y="860" type="line"/>
      <point x="131" y="679"/>
      <point x="188" y="522"/>
      <point x="188" y="326" type="curve" smooth="yes"/>
      <point x="188" y="127"/>
      <point x="130" y="-30"/>
    </contour>
  </outline>
</glyph>
<glyph name="asterisk" format="1">
  <advance width="464"/>
  <unicode hex="002A"/>
  <note>
    GF Latin Plus glyph
  </note>
  <outline>
    <contour>
      <point x="64" y="589" type="line"/>
      <point x="206" y="584" type="line"/>
      <point x="206" y="614" type="line"/>
      <point x="64" y="609" type="line"/>
    </contour>
    <contour>
      <point x="201" y="723" type="line"/>
      <point x="256" y="592" type="line"/>
      <point x="286" y="605" type="line"/>
      <point x="220" y="729" type="line"/>
    </contour>
    <contour>
      <point x="278" y="554" type="line"/>
      <point x="300" y="530" type="line"/>
      <point x="402" y="620" type="line"/>
      <point x="390" y="637" type="line"/>
    </contour>
    <contour>
      <point x="233" y="491" type="line"/>
      <point x="355" y="421" type="line"/>
      <point x="366" y="436" type="line"/>
      <point x="249" y="520" type="line"/>
    </contour>
    <contour>
      <point x="141" y="410" type="line"/>
      <point x="159" y="404" type="line"/>
      <point x="206" y="538" type="line"/>
      <point x="173" y="544" type="line"/>
    </contour>
  </outline>
</glyph>
<glyph name="comma" format="1">
  <advance width="180"/>
  <unicode hex="002C"/>
  <note>
    GF Latin Plus glyph
  </note>
  <outline>
    <contour>
      <point x="67" y="16" type="line" smooth="yes"/>
      <point x="67" y="7"/>
      <point x="72" y="1"/>
      <point x="80" y="1" type="curve" smooth="yes"/>
      <point x="87" y="1" type="line"/>
      <point x="87" y="-43" type="line" smooth="yes"/>
      <point x="87" y="-54"/>
      <point x="82" y="-58"/>
      <point x="69" y="-58" type="curve"/>
      <point x="69" y="-70" type="line"/>
      <point x="69" y="-70"/>
      <point x="75" y="-72"/>
      <point x="82" y="-72" type="curve" smooth="yes"/>
      <point x="95" y="-72"/>
      <point x="114" y="-67"/>
      <point x="114" y="-34" type="curve" smooth="yes"/>
      <point x="114" y="79" type="line" smooth="yes"/>
      <point x="114" y="88"/>
      <point x="110" y="94"/>
      <point x="100" y="94" type="curve" smooth="yes"/>
      <point x="80" y="94" type="line" smooth="yes"/>
      <point x="71" y="94"/>
      <point x="67" y="89"/>
      <point x="67" y="79" type="curve" smooth="yes"/>
    </contour>
  </outline>
</glyph>
<glyph name="hyphen" format="1">
  <advance width="340"/>
  <unicode hex="002D"/>
  <note>
    GF Latin Plus glyph
  </note>
  <outline>
    <contour>
      <point x="26" y="272" type="line"/>
      <point x="313" y="272" type="line"/>
      <point x="313" y="308" type="line"/>
      <point x="26" y="308" type="line"/>
    </contour>
  </outline>
</glyph>
<glyph name="period" format="1">
  <advance width="180"/>
  <unicode hex="002E"/>
  <note>
    GF Latin Plus glyph
  </note>
  <outline>
    <contour>
      <point x="67" y="13" type="line" smooth="yes"/>
      <point x="67" y="5"/>
      <point x="72" y="0"/>
      <point x="80" y="0" type="curve" smooth="yes"/>
      <point x="101" y="0" type="line" smooth="yes"/>
      <point x="109" y="0"/>
      <point x="115" y="4"/>
      <point x="115" y="13" type="curve" smooth="yes"/>
      <point x="115" y="80" type="line" smooth="yes"/>
      <point x="115" y="88"/>
      <point x="110" y="94"/>
      <point x="101" y="94" type="curve" smooth="yes"/>
      <point x="80" y="94" type="line" smooth="yes"/>
      <point x="71" y="94"/>
      <point x="67" y="89"/>
      <point x="67" y="80" type="curve" smooth="yes"/>
    </contour>
  </outline>
</glyph>
<glyph name="one" format="1">
  <advance width="356"/>
  <unicode hex="0031"/>
  <note>
    GF Latin Plus glyph
  </note>
  <outline>
    <contour>
      <point x="51" y="643" type="line"/>
      <point x="214" y="698" type="line"/>
      <point x="214" y="0" type="line"/>
      <point x="255" y="0" type="line"/>
      <point x="255" y="741" type="line"/>
      <point x="216" y="741" type="line"/>
      <point x="51" y="670" type="line"/>
    </contour>
  </outline>
</glyph>
<glyph name="two" format="1">
  <advance width="596"/>
  <unicode hex="0032"/>
  <note>
    GF Latin Plus glyph
  </note>
  <outline>
    <contour>
      <point x="90" y="701" type="line"/>
      <point x="285" y="701" type="line" smooth="yes"/>
      <point x="438" y="701"/>
      <point x="472" y="637"/>
      <point x="472" y="555" type="curve" smooth="yes"/>
      <point x="472" y="459"/>
      <point x="441" y="394"/>
      <point x="345" y="304" type="curve" smooth="yes"/>
      <point x="59" y="35" type="line"/>
      <point x="59" y="0" type="line"/>
      <point x="542" y="0" type="line"/>
      <point x="542" y="39" type="line"/>
      <point x="117" y="39" type="line"/>
      <point x="374" y="283" type="line" smooth="yes"/>
      <point x="475" y="379"/>
      <point x="513" y="452"/>
      <point x="513" y="557" type="curve" smooth="yes"/>
      <point x="513" y="662"/>
      <point x="461" y="739"/>
      <point x="296" y="739" type="curve" smooth="yes"/>
      <point x="224" y="739"/>
      <point x="148" y="734"/>
      <point x="90" y="731" type="curve"/>
    </contour>
  </outline>
</glyph>
<glyph name="four" format="1">
  <advance width="581"/>
  <unicode hex="0034"/>
  <note>
    GF Latin Plus glyph
  </note>
  <outline>
    <contour>
      <point x="28" y="234" type="line"/>
      <point x="41" y="204" type="line"/>
      <point x="400" y="204" type="line"/>
      <point x="400" y="2" type="line"/>
      <point x="441" y="2" type="line"/>
      <point x="441" y="204" type="line"/>
      <point x="555" y="213" type="line"/>
      <point x="555" y="241" type="line"/>
      <point x="441" y="241" type="line"/>
      <point x="441" y="525" type="line"/>
      <point x="411" y="525" type="line"/>
      <point x="400" y="466" type="line"/>
      <point x="400" y="241" type="line"/>
      <point x="74" y="241" type="line"/>
      <point x="368" y="733" type="line"/>
      <point x="326" y="733" type="line"/>
    </contour>
  </outline>
</glyph>
<glyph name="five" format="1">
  <advance width="643"/>
  <unicode hex="0035"/>
  <note>
    GF Latin Plus glyph
  </note>
  <outline>
    <contour>
      <point x="97" y="3" type="line"/>
      <point x="162" y="-3"/>
      <point x="255" y="-4"/>
      <point x="351" y="-4" type="curve" smooth="yes"/>
      <point x="474" y="-4"/>
      <point x="569" y="54"/>
      <point x="569" y="168" type="curve" smooth="yes"/>
      <point x="569" y="277" type="line" smooth="yes"/>
      <point x="569" y="370"/>
      <point x="503" y="437"/>
      <point x="388" y="437" type="curve" smooth="yes"/>
      <point x="296" y="437" type="line" smooth="yes"/>
      <point x="223" y="437"/>
      <point x="180" y="404"/>
      <point x="166" y="373" type="curve"/>
      <point x="182" y="696" type="line"/>
      <point x="547" y="696" type="line"/>
      <point x="547" y="733" type="line"/>
      <point x="145" y="733" type="line"/>
      <point x="124" y="301" type="line"/>
      <point x="162" y="301" type="line"/>
      <point x="175" y="370"/>
      <point x="219" y="401"/>
      <point x="290" y="401" type="curve" smooth="yes"/>
      <point x="379" y="401" type="line" smooth="yes"/>
      <point x="478" y="401"/>
      <point x="528" y="351"/>
      <point x="528" y="272" type="curve" smooth="yes"/>
      <point x="528" y="174" type="line" smooth="yes"/>
      <point x="528" y="82"/>
      <point x="448" y="33"/>
      <point x="350" y="33" type="curve" smooth="yes"/>
      <point x="97" y="33" type="line"/>
    </contour>
  </outline>
</glyph>
<glyph name="six" format="1">
  <advance width="632"/>
  <unicode hex="0036"/>
  <note>
    GF Latin Plus glyph
  </note>
  <outline>
    <contour>
      <point x="124" y="362" type="curve"/>
      <point x="342" y="362" type="line" smooth="yes"/>
      <point x="449" y="362"/>
      <point x="517" y="345"/>
      <point x="517" y="249" type="curve" smooth="yes"/>
      <point x="517" y="153" type="line" smooth="yes"/>
      <point x="517" y="56"/>
      <point x="456" y="36"/>
      <point x="388" y="36" type="curve" smooth="yes"/>
      <point x="280" y="36" type="line" smooth="yes"/>
      <point x="183" y="36"/>
      <point x="124" y="102"/>
    </contour>
    <contour>
      <point x="83" y="372" type="curve" smooth="yes"/>
      <point x="83" y="71"/>
      <point x="162" y="-2"/>
      <point x="276" y="-2" type="curve" smooth="yes"/>
      <point x="393" y="-2" type="line" smooth="yes"/>
      <point x="480" y="-2"/>
      <point x="557" y="37"/>
      <point x="557" y="151" type="curve" smooth="yes"/>
      <point x="557" y="253" type="line" smooth="yes"/>
      <point x="557" y="369"/>
      <point x="472" y="398"/>
      <point x="347" y="398" type="curve" smooth="yes"/>
      <point x="297" y="398"/>
      <point x="192" y="396"/>
      <point x="124" y="391" type="curve"/>
      <point x="124" y="602"/>
      <point x="204" y="702"/>
      <point x="327" y="702" type="curve" smooth="yes"/>
      <point x="513" y="702" type="line"/>
      <point x="513" y="732" type="line"/>
      <point x="460" y="735"/>
      <point x="384" y="739"/>
      <point x="333" y="739" type="curve" smooth="yes"/>
      <point x="176" y="739"/>
      <point x="83" y="622"/>
    </contour>
  </outline>
</glyph>
<glyph name="seven" format="1">
  <advance width="538"/>
  <unicode hex="0037"/>
  <note>
    GF Latin Plus glyph
  </note>
  <outline>
    <contour>
      <point x="38" y="692" type="line"/>
      <point x="440" y="692" type="line"/>
      <point x="161" y="0" type="line"/>
      <point x="208" y="0" type="line"/>
      <point x="490" y="705" type="line"/>
      <point x="471" y="733" type="line"/>
      <point x="38" y="733" type="line"/>
    </contour>
  </outline>
</glyph>
<glyph name="nine" format="1">
  <advance width="632"/>
  <unicode hex="0039"/>
  <note>
    GF Latin Plus glyph
  </note>
  <outline>
    <contour>
      <point x="509" y="373" type="curve"/>
      <point x="291" y="373" type="line" smooth="yes"/>
      <point x="184" y="373"/>
      <point x="116" y="390"/>
      <point x="116" y="486" type="curve" smooth="yes"/>
      <point x="116" y="582" type="line" smooth="yes"/>
      <point x="116" y="678"/>
      <point x="177" y="699"/>
      <point x="245" y="699" type="curve" smooth="yes"/>
      <point x="354" y="699" type="line" smooth="yes"/>
      <point x="451" y="699"/>
      <point x="509" y="633"/>
    </contour>
    <contour>
      <point x="550" y="363" type="curve" smooth="yes"/>
      <point x="550" y="664"/>
      <point x="472" y="736"/>
      <point x="358" y="736" type="curve" smooth="yes"/>
      <point x="240" y="736" type="line" smooth="yes"/>
      <point x="153" y="736"/>
      <point x="76" y="698"/>
      <point x="76" y="584" type="curve" smooth="yes"/>
      <point x="76" y="482" type="line" smooth="yes"/>
      <point x="76" y="366"/>
      <point x="161" y="336"/>
      <point x="286" y="336" type="curve" smooth="yes"/>
      <point x="336" y="336"/>
      <point x="442" y="339"/>
      <point x="509" y="344" type="curve"/>
      <point x="509" y="133"/>
      <point x="429" y="33"/>
      <point x="306" y="33" type="curve" smooth="yes"/>
      <point x="120" y="33" type="line"/>
      <point x="120" y="3" type="line"/>
      <point x="172" y="0"/>
      <point x="248" y="-4"/>
      <point x="301" y="-4" type="curve" smooth="yes"/>
      <point x="458" y="-4"/>
      <point x="550" y="112"/>
    </contour>
  </outline>
</glyph>
<glyph name="question" format="1">
  <advance width="532"/>
  <unicode hex="003F"/>
  <note>
    GF Latin Plus glyph
  </note>
  <outline>
    <contour>
      <point x="46" y="661" type="line"/>
      <point x="120" y="690"/>
      <point x="179" y="702"/>
      <point x="252" y="702" type="curve" smooth="yes"/>
      <point x="357" y="702"/>
      <point x="402" y="659"/>
      <point x="402" y="540" type="curve" smooth="yes"/>
      <point x="402" y="465" type="line" smooth="yes"/>
      <point x="402" y="364"/>
      <point x="352" y="332"/>
      <point x="221" y="332" type="curve" smooth="yes"/>
      <point x="182" y="332" type="line"/>
      <point x="182" y="196" type="line"/>
      <point x="216" y="196" type="line"/>
      <point x="216" y="296" type="line"/>
      <point x="378" y="296"/>
      <point x="442" y="350"/>
      <point x="442" y="465" type="curve" smooth="yes"/>
      <point x="442" y="543" type="line" smooth="yes"/>
      <point x="442" y="666"/>
      <point x="400" y="741"/>
      <point x="258" y="739" type="curve" smooth="yes"/>
      <point x="183" y="738"/>
      <point x="112" y="726"/>
      <point x="46" y="688" type="curve"/>
    </contour>
    <component base="period" xOffset="108"/>
  </outline>
</glyph>
<glyph name="at" format="1">
  <advance width="868"/>
  <unicode hex="0040"/>
  <note>
    GF Latin Plus glyph
  </note>
  <outline>
    <contour>
      <point x="270" y="148" type="curve" smooth="yes"/>
      <point x="270" y="190" type="line" smooth="yes"/>
      <point x="270" y="264"/>
      <point x="334" y="273"/>
      <point x="373" y="275" type="curve" smooth="yes"/>
      <point x="576" y="284" type="line"/>
      <point x="576" y="116" type="line"/>
      <point x="530" y="92"/>
      <point x="430" y="56"/>
      <point x="374" y="56" type="curve" smooth="yes"/>
      <point x="310" y="56"/>
      <point x="270" y="92"/>
    </contour>
    <contour>
      <point x="83" y="31" type="line" smooth="yes"/>
      <point x="83" y="-92"/>
      <point x="154" y="-153"/>
      <point x="258" y="-153" type="curve" smooth="yes"/>
      <point x="578" y="-153" type="line" smooth="yes"/>
      <point x="717" y="-153"/>
      <point x="761" y="-74"/>
      <point x="761" y="33" type="curve" smooth="yes"/>
      <point x="761" y="535" type="line" smooth="yes"/>
      <point x="761" y="668"/>
      <point x="684" y="730"/>
      <point x="577" y="730" type="curve" smooth="yes"/>
      <point x="477" y="730" type="line" smooth="yes"/>
      <point x="351" y="730"/>
      <point x="234" y="729"/>
      <point x="186" y="719" type="curve"/>
      <point x="186" y="694" type="line"/>
      <point x="577" y="694" type="line" smooth="yes"/>
      <point x="677" y="694"/>
      <point x="725" y="627"/>
      <point x="725" y="535" type="curve" smooth="yes"/>
      <point x="725" y="33" type="line" smooth="yes"/>
      <point x="725" y="-66"/>
      <point x="678" y="-116"/>
      <point x="577" y="-116" type="curve" smooth="yes"/>
      <point x="258" y="-116" type="line" smooth="yes"/>
      <point x="193" y="-116"/>
      <point x="119" y="-82"/>
      <point x="119" y="33" type="curve" smooth="yes"/>
      <point x="119" y="370" type="line" smooth="yes"/>
      <point x="119" y="471"/>
      <point x="176" y="505"/>
      <point x="258" y="505" type="curve" smooth="yes"/>
      <point x="453" y="505" type="line" smooth="yes"/>
      <point x="528" y="505"/>
      <point x="576" y="472"/>
      <point x="576" y="395" type="curve" smooth="yes"/>
      <point x="576" y="307" type="line"/>
      <point x="365" y="307" type="line" smooth="yes"/>
      <point x="280" y="307"/>
      <point x="233" y="262"/>
      <point x="233" y="191" type="curve" smooth="yes"/>
      <point x="233" y="140" type="line" smooth="yes"/>
      <point x="233" y="72"/>
      <point x="285" y="20"/>
      <point x="361" y="20" type="curve" smooth="yes"/>
      <point x="452" y="20"/>
      <point x="575" y="92"/>
      <point x="577" y="92" type="curve"/>
      <point x="586" y="29" type="line"/>
      <point x="612" y="29" type="line"/>
      <point x="612" y="398" type="line" smooth="yes"/>
      <point x="612" y="513"/>
      <point x="529" y="541"/>
      <point x="455" y="541" type="curve" smooth="yes"/>
      <point x="258" y="541" type="line" smooth="yes"/>
      <point x="91" y="541"/>
      <point x="83" y="416"/>
      <point x="83" y="371" type="curve" smooth="yes"/>
    </contour>
  </outline>
</glyph>
<glyph name="C" format="1">
  <advance width="578"/>
  <unicode hex="0043"/>
  <note>
    GF Latin Plus glyph
  </note>
  <outline>
    <contour>
      <point x="67" y="369" type="curve" smooth="yes"/>
      <point x="67" y="54"/>
      <point x="141" y="-6"/>
      <point x="322" y="-6" type="curve" smooth="yes"/>
      <point x="379" y="-6"/>
      <point x="464" y="2"/>
      <point x="530" y="15" type="curve"/>
      <point x="530" y="45" type="line"/>
      <point x="489" y="38"/>
      <point x="427" y="31"/>
      <point x="327" y="31" type="curve" smooth="yes"/>
      <point x="168" y="31"/>
      <point x="108" y="80"/>
      <point x="108" y="368" type="curve" smooth="yes"/>
      <point x="108" y="640"/>
      <point x="170" y="702"/>
      <point x="331" y="702" type="curve" smooth="yes"/>
      <point x="409" y="702"/>
      <point x="498" y="693"/>
      <point x="530" y="688" type="curve"/>
      <point x="530" y="717" type="line"/>
      <point x="463" y="731"/>
      <point x="372" y="739"/>
      <point x="329" y="739" type="curve" smooth="yes"/>
      <point x="142" y="739"/>
      <point x="67" y="663"/>
    </contour>
    <contour>
      <point x="328" y="810" type="move" name="top"/>
    </contour>
    <contour>
      <point x="331" y="-150" type="move" name="bottom"/>
    </contour>
  </outline>
</glyph>
<glyph name="D" format="1">
  <advance width="663"/>
  <unicode hex="0044"/>
  <note>
    GF Latin Plus glyph
  </note>
  <outline>
    <contour>
      <point x="126" y="37" type="line"/>
      <point x="126" y="696" type="line"/>
      <point x="361" y="696" type="line" smooth="yes"/>
      <point x="499" y="696"/>
      <point x="555" y="600"/>
      <point x="555" y="366" type="curve" smooth="yes"/>
      <point x="555" y="172"/>
      <point x="494" y="37"/>
      <point x="361" y="37" type="curve" smooth="yes"/>
    </contour>
    <contour>
      <point x="85" y="0" type="line"/>
      <point x="363" y="0" type="line" smooth="yes"/>
      <point x="516" y="0"/>
      <point x="596" y="146"/>
      <point x="596" y="366" type="curve" smooth="yes"/>
      <point x="596" y="612"/>
      <point x="528" y="733"/>
      <point x="363" y="733" type="curve" smooth="yes"/>
      <point x="85" y="733" type="line"/>
    </contour>
    <contour>
      <point x="312" y="810" type="move" name="top"/>
    </contour>
    <contour>
      <point x="308" y="-150" type="move" name="bottom"/>
    </contour>
  </outline>
</glyph>
<glyph name="E" format="1">
  <advance width="582"/>
  <unicode hex="0045"/>
  <note>
    GF Latin Plus glyph
  </note>
  <outline>
    <contour>
      <point x="85" y="128" type="line" smooth="yes"/>
      <point x="85" y="10"/>
      <point x="162" y="-4"/>
      <point x="228" y="-3" type="curve" smooth="yes"/>
      <point x="238" y="-3"/>
      <point x="508" y="3"/>
      <point x="517" y="4" type="curve"/>
      <point x="517" y="35" type="line"/>
      <point x="231" y="35" type="line" smooth="yes"/>
      <point x="179" y="35"/>
      <point x="126" y="45"/>
      <point x="126" y="134" type="curve" smooth="yes"/>
      <point x="126" y="345" type="line"/>
      <point x="476" y="349" type="line"/>
      <point x="476" y="379" type="line"/>
      <point x="126" y="382" type="line"/>
      <point x="126" y="594" type="line" smooth="yes"/>
      <point x="126" y="665"/>
      <point x="164" y="695"/>
      <point x="223" y="695" type="curve" smooth="yes"/>
      <point x="517" y="695" type="line"/>
      <point x="517" y="726" type="line"/>
      <point x="510" y="727"/>
      <point x="233" y="733"/>
      <point x="217" y="733" type="curve" smooth="yes"/>
      <point x="151" y="734"/>
      <point x="85" y="700"/>
      <point x="85" y="598" type="curve" smooth="yes"/>
    </contour>
    <contour>
      <point x="310" y="810" type="move" name="top"/>
    </contour>
    <contour>
      <point x="507" y="4" type="move" name="ogonek"/>
    </contour>
    <contour>
      <point x="313" y="-150" type="move" name="bottom"/>
    </contour>
  </outline>
</glyph>
<glyph name="F" format="1">
  <advance width="559"/>
  <unicode hex="0046"/>
  <note>
    GF Latin Plus glyph
  </note>
  <outline>
    <contour>
      <point x="85" y="0" type="line"/>
      <point x="126" y="0" type="line"/>
      <point x="126" y="331" type="line"/>
      <point x="476" y="334" type="line"/>
      <point x="476" y="364" type="line"/>
      <point x="126" y="368" type="line"/>
      <point x="126" y="594" type="line" smooth="yes"/>
      <point x="126" y="664"/>
      <point x="163" y="695"/>
      <point x="222" y="695" type="curve" smooth="yes"/>
      <point x="517" y="695" type="line"/>
      <point x="517" y="726" type="line"/>
      <point x="505" y="728"/>
      <point x="223" y="733"/>
      <point x="217" y="733" type="curve" smooth="yes"/>
      <point x="151" y="734"/>
      <point x="85" y="700"/>
      <point x="85" y="598" type="curve" smooth="yes"/>
    </contour>
    <contour>
      <point x="310" y="810" type="move" name="top"/>
    </contour>
  </outline>
</glyph>
<glyph name="I" format="1">
  <advance width="210"/>
  <unicode hex="0049"/>
  <note>
    GF Latin Plus glyph
  </note>
  <outline>
    <contour>
      <point x="85" y="0" type="line"/>
      <point x="126" y="0" type="line"/>
      <point x="126" y="733" type="line"/>
      <point x="85" y="733" type="line"/>
    </contour>
    <contour>
      <point x="105" y="810" type="move" name="top"/>
    </contour>
    <contour>
      <point x="116" y="0" type="move" name="ogonek"/>
    </contour>
    <contour>
      <point x="105" y="-150" type="move" name="bottom"/>
    </contour>
  </outline>
</glyph>
<glyph name="J" format="1">
  <advance width="374"/>
  <unicode hex="004A"/>
  <note>
    GF Latin Plus glyph
  </note>
  <outline>
    <contour>
      <point x="27" y="18" type="line"/>
      <point x="54" y="5"/>
      <point x="100" y="-6"/>
      <point x="136" y="-6" type="curve" smooth="yes"/>
      <point x="235" y="-6"/>
      <point x="289" y="30"/>
      <point x="289" y="150" type="curve" smooth="yes"/>
      <point x="289" y="733" type="line"/>
      <point x="248" y="733" type="line"/>
      <point x="248" y="153" type="line" smooth="yes"/>
      <point x="248" y="52"/>
      <point x="200" y="31"/>
      <point x="131" y="31" type="curve" smooth="yes"/>
      <point x="103" y="31"/>
      <point x="53" y="40"/>
      <point x="27" y="48" type="curve"/>
    </contour>
    <contour>
      <point x="269" y="810" type="move" name="top"/>
    </contour>
  </outline>
</glyph>
<glyph name="K" format="1">
  <advance width="583"/>
  <unicode hex="004B"/>
  <note>
    GF Latin Plus glyph
  </note>
  <outline>
    <contour>
      <point x="85" y="0" type="line"/>
      <point x="126" y="0" type="line"/>
      <point x="126" y="348" type="line"/>
      <point x="272" y="348" type="line"/>
      <point x="502" y="0" type="line"/>
      <point x="547" y="0" type="line"/>
      <point x="305" y="367" type="line"/>
      <point x="546" y="733" type="line"/>
      <point x="502" y="733" type="line"/>
      <point x="273" y="386" type="line"/>
      <point x="126" y="386" type="line"/>
      <point x="126" y="733" type="line"/>
      <point x="85" y="733" type="line"/>
    </contour>
    <contour>
      <point x="277" y="810" type="move" name="top"/>
    </contour>
    <contour>
      <point x="277" y="-150" type="move" name="bottom"/>
    </contour>
  </outline>
</glyph>
<glyph name="L" format="1">
  <advance width="530"/>
  <unicode hex="004C"/>
  <note>
    GF Latin Plus glyph
  </note>
  <outline>
    <contour>
      <point x="85" y="133" type="line" smooth="yes"/>
      <point x="85" y="27"/>
      <point x="147" y="0"/>
      <point x="217" y="0" type="curve" smooth="yes"/>
      <point x="502" y="0" type="line"/>
      <point x="502" y="39" type="line"/>
      <point x="223" y="39" type="line" smooth="yes"/>
      <point x="175" y="39"/>
      <point x="126" y="52"/>
      <point x="126" y="136" type="curve" smooth="yes"/>
      <point x="126" y="733" type="line"/>
      <point x="85" y="733" type="line"/>
    </contour>
    <contour>
      <point x="105" y="810" type="move" name="top"/>
    </contour>
    <contour>
      <point x="166" y="650" type="move" name="altcaron"/>
    </contour>
    <contour>
      <point x="343" y="400" type="move" name="dot"/>
    </contour>
    <contour>
      <point x="264" y="-150" type="move" name="bottom"/>
    </contour>
  </outline>
</glyph>
<glyph name="M" format="1">
  <advance width="809"/>
  <unicode hex="004D"/>
  <note>
    GF Latin Plus glyph
  </note>
  <outline>
    <contour>
      <point x="65" y="0" type="line"/>
      <point x="104" y="0" type="line"/>
      <point x="181" y="699" type="line"/>
      <point x="171" y="698" type="line"/>
      <point x="386" y="0" type="line"/>
      <point x="423" y="0" type="line"/>
      <point x="632" y="698" type="line"/>
      <point x="623" y="701" type="line"/>
      <point x="704" y="0" type="line"/>
      <point x="744" y="0" type="line"/>
      <point x="660" y="733" type="line"/>
      <point x="610" y="733" type="line"/>
      <point x="404" y="59" type="line"/>
      <point x="194" y="733" type="line"/>
      <point x="146" y="733" type="line"/>
    </contour>
    <contour>
      <point x="403" y="810" type="move" name="top"/>
    </contour>
    <contour>
      <point x="403" y="-150" type="move" name="bottom"/>
    </contour>
  </outline>
</glyph>
<glyph name="N" format="1">
  <advance width="670"/>
  <unicode hex="004E"/>
  <note>
    GF Latin Plus glyph
  </note>
  <outline>
    <contour>
      <point x="103" y="0" type="line"/>
      <point x="144" y="0" type="line"/>
      <point x="144" y="661" type="line"/>
      <point x="568" y="0" type="line"/>
      <point x="604" y="0" type="line"/>
      <point x="604" y="733" type="line"/>
      <point x="563" y="733" type="line"/>
      <point x="563" y="72" type="line"/>
      <point x="138" y="733" type="line"/>
      <point x="103" y="733" type="line"/>
    </contour>
    <contour>
      <point x="338" y="810" type="move" name="top"/>
    </contour>
    <contour>
      <point x="338" y="-150" type="move" name="bottom"/>
    </contour>
  </outline>
</glyph>
<glyph name="P" format="1">
  <advance width="594"/>
  <unicode hex="0050"/>
  <note>
    GF Latin Plus glyph
  </note>
  <outline>
    <contour>
      <point x="126" y="314" type="line"/>
      <point x="126" y="696" type="line"/>
      <point x="364" y="696" type="line" smooth="yes"/>
      <point x="436" y="696"/>
      <point x="505" y="662"/>
      <point x="505" y="508" type="curve" smooth="yes"/>
      <point x="505" y="353"/>
      <point x="434" y="314"/>
      <point x="355" y="314" type="curve" smooth="yes"/>
    </contour>
    <contour>
      <point x="85" y="0" type="line"/>
      <point x="126" y="0" type="line"/>
      <point x="126" y="284" type="line"/>
      <point x="169" y="282"/>
      <point x="318" y="277"/>
      <point x="358" y="277" type="curve" smooth="yes"/>
      <point x="438" y="277"/>
      <point x="547" y="315"/>
      <point x="547" y="508" type="curve" smooth="yes"/>
      <point x="547" y="700"/>
      <point x="447" y="733"/>
      <point x="366" y="733" type="curve" smooth="yes"/>
      <point x="85" y="733" type="line"/>
    </contour>
    <contour>
      <point x="282" y="810" type="move" name="top"/>
    </contour>
  </outline>
</glyph>
<glyph name="R" format="1">
  <advance width="597"/>
  <unicode hex="0052"/>
  <note>
    GF Latin Plus glyph
  </note>
  <outline>
    <contour>
      <point x="85" y="0" type="line"/>
      <point x="126" y="0" type="line"/>
      <point x="126" y="322" type="line"/>
      <point x="184" y="319"/>
      <point x="305" y="317"/>
      <point x="353" y="316" type="curve"/>
      <point x="509" y="0" type="line"/>
      <point x="550" y="0" type="line"/>
      <point x="392" y="320" type="line"/>
      <point x="455" y="325"/>
      <point x="546" y="356"/>
      <point x="546" y="528" type="curve" smooth="yes"/>
      <point x="546" y="709"/>
      <point x="449" y="733"/>
      <point x="365" y="733" type="curve" smooth="yes"/>
      <point x="85" y="733" type="line"/>
    </contour>
    <contour>
      <point x="126" y="352" type="line"/>
      <point x="126" y="696" type="line"/>
      <point x="361" y="696" type="line" smooth="yes"/>
      <point x="434" y="696"/>
      <point x="505" y="672"/>
      <point x="505" y="528" type="curve" smooth="yes"/>
      <point x="505" y="376"/>
      <point x="437" y="352"/>
      <point x="361" y="352" type="curve" smooth="yes"/>
    </contour>
    <contour>
      <point x="290" y="810" type="move" name="top"/>
    </contour>
    <contour>
      <point x="290" y="-150" type="move" name="bottom"/>
    </contour>
  </outline>
</glyph>
<glyph name="T" format="1">
  <advance width="555"/>
  <unicode hex="0054"/>
  <note>
    GF Latin Plus glyph
  </note>
  <outline>
    <contour>
      <point x="16" y="696" type="line"/>
      <point x="257" y="696" type="line"/>
      <point x="257" y="0" type="line"/>
      <point x="298" y="0" type="line"/>
      <point x="298" y="696" type="line"/>
      <point x="539" y="696" type="line"/>
      <point x="539" y="733" type="line"/>
      <point x="16" y="733" type="line"/>
    </contour>
    <contour>
      <point x="278" y="810" type="move" name="top"/>
    </contour>
    <contour>
      <point x="278" y="-150" type="move" name="bottom"/>
    </contour>
  </outline>
</glyph>
<glyph name="U" format="1">
  <advance width="670"/>
  <unicode hex="0055"/>
  <note>
    GF Latin Plus glyph
  </note>
  <outline>
    <contour>
      <point x="75" y="222" type="line" smooth="yes"/>
      <point x="75" y="48"/>
      <point x="169" y="-6"/>
      <point x="335" y="-6" type="curve" smooth="yes"/>
      <point x="501" y="-6"/>
      <point x="596" y="48"/>
      <point x="596" y="222" type="curve" smooth="yes"/>
      <point x="596" y="733" type="line"/>
      <point x="555" y="733" type="line"/>
      <point x="555" y="223" type="line" smooth="yes"/>
      <point x="555" y="72"/>
      <point x="473" y="31"/>
      <point x="335" y="31" type="curve" smooth="yes"/>
      <point x="197" y="31"/>
      <point x="116" y="72"/>
      <point x="116" y="223" type="curve" smooth="yes"/>
      <point x="116" y="733" type="line"/>
      <point x="75" y="733" type="line"/>
    </contour>
    <contour>
      <point x="334" y="810" type="move" name="top"/>
    </contour>
    <contour>
      <point x="408" y="0" type="move" name="ogonek"/>
    </contour>
    <contour>
      <point x="334" y="-150" type="move" name="bottom"/>
    </contour>
  </outline>
</glyph>
<glyph name="V" format="1">
  <advance width="669"/>
  <unicode hex="0056"/>
  <note>
    GF Latin Plus glyph
  </note>
  <outline>
    <contour>
      <point x="44" y="733" type="line"/>
      <point x="307" y="0" type="line"/>
      <point x="362" y="0" type="line"/>
      <point x="625" y="733" type="line"/>
      <point x="582" y="733" type="line"/>
      <point x="334" y="40" type="line"/>
      <point x="86" y="733" type="line"/>
    </contour>
  </outline>
</glyph>
<glyph name="X" format="1">
  <advance width="601"/>
  <unicode hex="0058"/>
  <note>
    GF Latin Plus glyph
  </note>
  <outline>
    <contour>
      <point x="48" y="0" type="line"/>
      <point x="93" y="0" type="line"/>
      <point x="304" y="339" type="line"/>
      <point x="284" y="375" type="line"/>
    </contour>
    <contour>
      <point x="301" y="391" type="line"/>
      <point x="318" y="349" type="line"/>
      <point x="555" y="733" type="line"/>
      <point x="511" y="733" type="line"/>
    </contour>
    <contour>
      <point x="46" y="733" type="line"/>
      <point x="510" y="0" type="line"/>
      <point x="555" y="0" type="line"/>
      <point x="90" y="733" type="line"/>
    </contour>
    <contour>
      <point x="297" y="810" type="move" name="top"/>
    </contour>
    <contour>
      <point x="297" y="-150" type="move" name="bottom"/>
    </contour>
  </outline>
</glyph>
<glyph name="Z" format="1">
  <advance width="552"/>
  <unicode hex="005A"/>
  <note>
    GF Latin Plus glyph
  </note>
  <outline>
    <contour>
      <point x="46" y="0" type="line"/>
      <point x="514" y="0" type="line"/>
      <point x="514" y="37" type="line"/>
      <point x="96" y="37" type="line"/>
      <point x="514" y="698" type="line"/>
      <point x="514" y="733" type="line"/>
      <point x="46" y="733" type="line"/>
      <point x="46" y="696" type="line"/>
      <point x="464" y="696" type="line"/>
      <point x="46" y="35" type="line"/>
    </contour>
    <contour>
      <point x="276" y="810" type="move" name="top"/>
    </contour>
    <contour>
      <point x="276" y="-150" type="move" name="bottom"/>
    </contour>
  </outline>
</glyph>
<glyph name="bracketright" format="1">
  <advance width="329"/>
  <unicode hex="005D"/>
  <note>
    GF Latin Plus glyph
  </note>
  <outline>
    <contour>
      <point x="25" y="-175" type="line"/>
      <point x="25" y="-210" type="line"/>
      <point x="79" y="-210" type="line" smooth="yes"/>
      <point x="205" y="-210"/>
      <point x="221" y="-97"/>
      <point x="221" y="-33" type="curve" smooth="yes"/>
      <point x="221" y="667" type="line" smooth="yes"/>
      <point x="221" y="734"/>
      <point x="202" y="842"/>
      <point x="79" y="842" type="curve" smooth="yes"/>
      <point x="25" y="842" type="line"/>
      <point x="25" y="807" type="line"/>
      <point x="73" y="807" type="line" smooth="yes"/>
      <point x="137" y="807"/>
      <point x="180" y="766"/>
      <point x="180" y="664" type="curve" smooth="yes"/>
      <point x="180" y="-32" type="line" smooth="yes"/>
      <point x="180" y="-111"/>
      <point x="152" y="-175"/>
      <point x="73" y="-175" type="curve" smooth="yes"/>
    </contour>
  </outline>
</glyph>
<glyph name="asciicircum" format="1">
  <advance width="404"/>
  <unicode hex="005E"/>
  <note>
    GF Latin Plus glyph
  </note>
  <outline>
    <contour>
      <point x="64" y="531" type="line"/>
      <point x="91" y="531" type="line"/>
      <point x="208" y="640" type="line"/>
      <point x="314" y="531" type="line"/>
      <point x="341" y="531" type="line"/>
      <point x="224" y="662" type="line"/>
      <point x="193" y="662" type="line"/>
    </contour>
  </outline>
</glyph>
<glyph name="underscore" format="1">
  <advance width="609"/>
  <unicode hex="005F"/>
  <note>
    GF Latin Plus glyph
  </note>
  <outline>
    <contour>
      <point x="0" y="-148" type="line"/>
      <point x="0" y="-111" type="line"/>
      <point x="609" y="-111" type="line"/>
      <point x="609" y="-148" type="line"/>
    </contour>
  </outline>
</glyph>
<glyph name="a" format="1">
  <advance width="541"/>
  <unicode hex="0061"/>
  <note>
    GF Latin Plus glyph
  </note>
  <outline>
    <contour>
      <point x="92" y="134" type="curve" smooth="yes"/>
      <point x="92" y="160" type="line" smooth="yes"/>
      <point x="92" y="221"/>
      <point x="125" y="267"/>
      <point x="214" y="270" type="curve" smooth="yes"/>
      <point x="418" y="277" type="line"/>
      <point x="418" y="86" type="line"/>
      <point x="417" y="85"/>
      <point x="269" y="27"/>
      <point x="195" y="29" type="curve" smooth="yes"/>
      <point x="148" y="30"/>
      <point x="92" y="55"/>
    </contour>
    <contour>
      <point x="51" y="126" type="line" smooth="yes"/>
      <point x="51" y="42"/>
      <point x="108" y="-6"/>
      <point x="185" y="-6" type="curve" smooth="yes"/>
      <point x="282" y="-6"/>
      <point x="415" y="60"/>
      <point x="419" y="63" type="curve"/>
      <point x="429" y="0" type="line"/>
      <point x="459" y="0" type="line"/>
      <point x="459" y="384" type="line" smooth="yes"/>
      <point x="459" y="489"/>
      <point x="406" y="542"/>
      <point x="277" y="541" type="curve" smooth="yes"/>
      <point x="201" y="541"/>
      <point x="143" y="536"/>
      <point x="99" y="532" type="curve"/>
      <point x="99" y="507" type="line"/>
      <point x="268" y="507" type="line" smooth="yes"/>
      <point x="387" y="507"/>
      <point x="418" y="458"/>
      <point x="418" y="383" type="curve" smooth="yes"/>
      <point x="418" y="301" type="line"/>
      <point x="213" y="301" type="line" smooth="yes"/>
      <point x="106" y="301"/>
      <point x="51" y="244"/>
      <point x="51" y="160" type="curve" smooth="yes"/>
    </contour>
    <contour>
      <point x="270" y="650" type="move" name="top"/>
    </contour>
    <contour>
      <point x="449" y="0" type="move" name="ogonek"/>
    </contour>
    <contour>
      <point x="270" y="-150" type="move" name="bottom"/>
    </contour>
  </outline>
</glyph>
<glyph name="b" format="1">
  <advance width="574"/>
  <unicode hex="0062"/>
  <note>
    GF Latin Plus glyph
  </note>
  <outline>
    <contour>
      <point x="127" y="82" type="curve"/>
      <point x="127" y="450" type="line"/>
      <point x="190" y="482"/>
      <point x="238" y="503"/>
      <point x="309" y="503" type="curve" smooth="yes"/>
      <point x="403" y="503"/>
      <point x="467" y="460"/>
      <point x="467" y="264" type="curve" smooth="yes"/>
      <point x="467" y="114"/>
      <point x="416" y="30"/>
      <point x="309" y="30" type="curve" smooth="yes"/>
      <point x="235" y="30"/>
      <point x="176" y="57"/>
    </contour>
    <contour>
      <point x="86" y="0" type="line"/>
      <point x="117" y="0" type="line"/>
      <point x="127" y="56" type="line"/>
      <point x="168" y="30"/>
      <point x="240" y="-6"/>
      <point x="317" y="-6" type="curve" smooth="yes"/>
      <point x="456" y="-6"/>
      <point x="508" y="104"/>
      <point x="508" y="263" type="curve" smooth="yes"/>
      <point x="508" y="468"/>
      <point x="439" y="538"/>
      <point x="316" y="538" type="curve" smooth="yes"/>
      <point x="260" y="538"/>
      <point x="184" y="511"/>
      <point x="127" y="478" type="curve"/>
      <point x="127" y="763" type="line"/>
      <point x="86" y="763" type="line"/>
    </contour>
    <contour>
      <point x="107" y="850" type="move" name="top"/>
    </contour>
  </outline>
</glyph>
<glyph name="c" format="1">
  <advance width="490"/>
  <unicode hex="0063"/>
  <note>
    GF Latin Plus glyph
  </note>
  <outline>
    <contour>
      <point x="66" y="266" type="curve" smooth="yes"/>
      <point x="66" y="44"/>
      <point x="155" y="-6"/>
      <point x="273" y="-6" type="curve" smooth="yes"/>
      <point x="344" y="-6"/>
      <point x="406" y="-1"/>
      <point x="452" y="3" type="curve"/>
      <point x="452" y="28" type="line"/>
      <point x="280" y="28" type="line" smooth="yes"/>
      <point x="180" y="28"/>
      <point x="107" y="72"/>
      <point x="107" y="263" type="curve" smooth="yes"/>
      <point x="107" y="461"/>
      <point x="173" y="503"/>
      <point x="280" y="503" type="curve" smooth="yes"/>
      <point x="444" y="503" type="line"/>
      <point x="444" y="529" type="line"/>
      <point x="391" y="534"/>
      <point x="321" y="537"/>
      <point x="274" y="537" type="curve" smooth="yes"/>
      <point x="150" y="537"/>
      <point x="66" y="488"/>
    </contour>
    <contour>
      <point x="270" y="650" type="move" name="top"/>
    </contour>
    <contour>
      <point x="270" y="-150" type="move" name="bottom"/>
    </contour>
  </outline>
</glyph>
<glyph name="d" format="1">
  <advance width="570"/>
  <unicode hex="0064"/>
  <note>
    GF Latin Plus glyph
  </note>
  <outline>
    <contour>
      <point x="107" y="264" type="curve" smooth="yes"/>
      <point x="107" y="444"/>
      <point x="155" y="504"/>
      <point x="275" y="504" type="curve" smooth="yes"/>
      <point x="342" y="504"/>
      <point x="386" y="491"/>
      <point x="446" y="475" type="curve"/>
      <point x="446" y="83" type="line"/>
      <point x="398" y="57"/>
      <point x="338" y="29"/>
      <point x="265" y="29" type="curve" smooth="yes"/>
      <point x="152" y="29"/>
      <point x="107" y="101"/>
    </contour>
    <contour>
      <point x="66" y="263" type="curve" smooth="yes"/>
      <point x="66" y="83"/>
      <point x="123" y="-6"/>
      <point x="258" y="-6" type="curve" smooth="yes"/>
      <point x="323" y="-6"/>
      <point x="419" y="31"/>
      <point x="446" y="56" type="curve"/>
      <point x="457" y="0" type="line"/>
      <point x="488" y="0" type="line"/>
      <point x="488" y="763" type="line"/>
      <point x="446" y="763" type="line"/>
      <point x="446" y="504" type="line"/>
      <point x="400" y="520"/>
      <point x="333" y="538"/>
      <point x="268" y="538" type="curve" smooth="yes"/>
      <point x="124" y="538"/>
      <point x="66" y="461"/>
    </contour>
    <contour>
      <point x="508" y="650" type="move" name="altcaron"/>
    </contour>
    <contour>
      <point x="467" y="850" type="move" name="top"/>
    </contour>
    <contour>
      <point x="289" y="-150" type="move" name="bottom"/>
    </contour>
  </outline>
</glyph>
<glyph name="e" format="1">
  <advance width="543"/>
  <unicode hex="0065"/>
  <note>
    GF Latin Plus glyph
  </note>
  <outline>
    <contour>
      <point x="107" y="277" type="line"/>
      <point x="107" y="457"/>
      <point x="145" y="504"/>
      <point x="282" y="504" type="curve" smooth="yes"/>
      <point x="396" y="504"/>
      <point x="438" y="474"/>
      <point x="438" y="366" type="curve" smooth="yes"/>
      <point x="438" y="298"/>
      <point x="405" y="277"/>
      <point x="334" y="277" type="curve" smooth="yes"/>
    </contour>
    <contour>
      <point x="66" y="268" type="curve" smooth="yes"/>
      <point x="66" y="62"/>
      <point x="116" y="-6"/>
      <point x="279" y="-6" type="curve" smooth="yes"/>
      <point x="350" y="-6"/>
      <point x="401" y="-3"/>
      <point x="466" y="2" type="curve"/>
      <point x="466" y="28" type="line"/>
      <point x="286" y="28" type="line" smooth="yes"/>
      <point x="140" y="28"/>
      <point x="107" y="87"/>
      <point x="107" y="246" type="curve"/>
      <point x="336" y="246" type="line" smooth="yes"/>
      <point x="423" y="246"/>
      <point x="477" y="280"/>
      <point x="477" y="366" type="curve" smooth="yes"/>
      <point x="477" y="497"/>
      <point x="414" y="538"/>
      <point x="282" y="538" type="curve" smooth="yes"/>
      <point x="123" y="538"/>
      <point x="66" y="477"/>
    </contour>
    <contour>
      <point x="270" y="650" type="move" name="top"/>
    </contour>
    <contour>
      <point x="456" y="23" type="move" name="ogonek"/>
    </contour>
    <contour>
      <point x="270" y="-150" type="move" name="bottom"/>
    </contour>
  </outline>
</glyph>
<glyph name="h" format="1">
  <advance width="584"/>
  <unicode hex="0068"/>
  <note>
    GF Latin Plus glyph
  </note>
  <outline>
    <contour>
      <point x="86" y="0" type="line"/>
      <point x="127" y="0" type="line"/>
      <point x="127" y="444" type="line"/>
      <point x="196" y="481"/>
      <point x="247" y="504"/>
      <point x="329" y="504" type="curve" smooth="yes"/>
      <point x="412" y="504"/>
      <point x="460" y="441"/>
      <point x="460" y="365" type="curve" smooth="yes"/>
      <point x="460" y="0" type="line"/>
      <point x="501" y="0" type="line"/>
      <point x="501" y="368" type="line" smooth="yes"/>
      <point x="501" y="459"/>
      <point x="445" y="541"/>
      <point x="337" y="541" type="curve" smooth="yes"/>
      <point x="258" y="541"/>
      <point x="182" y="508"/>
      <point x="127" y="471" type="curve"/>
      <point x="127" y="763" type="line"/>
      <point x="86" y="763" type="line"/>
    </contour>
    <contour>
      <point x="170" y="895" type="move" name="top"/>
    </contour>
    <contour>
      <point x="294" y="-150" type="move" name="bottom"/>
    </contour>
  </outline>
</glyph>
<glyph name="k" format="1">
  <advance width="480"/>
  <unicode hex="006B"/>
  <note>
    GF Latin Plus glyph
  </note>
  <outline>
    <contour>
      <point x="86" y="0" type="line"/>
      <point x="127" y="0" type="line"/>
      <point x="127" y="268" type="line"/>
      <point x="207" y="268" type="line"/>
      <point x="408" y="0" type="line"/>
      <point x="455" y="0" type="line"/>
      <point x="241" y="286" type="line"/>
      <point x="445" y="532" type="line"/>
      <point x="399" y="532" type="line"/>
      <point x="211" y="305" type="line"/>
      <point x="127" y="305" type="line"/>
      <point x="127" y="763" type="line"/>
      <point x="86" y="763" type="line"/>
    </contour>
    <contour>
      <point x="245" y="-150" type="move" name="bottom"/>
    </contour>
  </outline>
</glyph>
<glyph name="o" format="1">
  <advance width="578"/>
  <unicode hex="006F"/>
  <note>
    GF Latin Plus glyph
  </note>
  <outline>
    <contour>
      <point x="107" y="267" type="curve" smooth="yes"/>
      <point x="107" y="476"/>
      <point x="172" y="503"/>
      <point x="288" y="503" type="curve" smooth="yes"/>
      <point x="404" y="503"/>
      <point x="471" y="476"/>
      <point x="471" y="267" type="curve" smooth="yes"/>
      <point x="471" y="57"/>
      <point x="404" y="29"/>
      <point x="288" y="29" type="curve" smooth="yes"/>
      <point x="172" y="29"/>
      <point x="107" y="57"/>
    </contour>
    <contour>
      <point x="66" y="266" type="curve" smooth="yes"/>
      <point x="66" y="40"/>
      <point x="145" y="-6"/>
      <point x="288" y="-6" type="curve" smooth="yes"/>
      <point x="431" y="-6"/>
      <point x="512" y="39"/>
      <point x="512" y="266" type="curve" smooth="yes"/>
      <point x="512" y="495"/>
      <point x="430" y="538"/>
      <point x="288" y="538" type="curve" smooth="yes"/>
      <point x="146" y="538"/>
      <point x="66" y="495"/>
    </contour>
    <contour>
      <point x="288" y="650" type="move" name="top"/>
    </contour>
    <contour>
      <point x="324" y="0" type="move" name="ogonek"/>
    </contour>
    <contour>
      <point x="288" y="-150" type="move" name="bottom"/>
    </contour>
  </outline>
</glyph>
<glyph name="p" format="1">
  <advance width="574"/>
  <unicode hex="0070"/>
  <note>
    GF Latin Plus glyph
  </note>
  <outline>
    <contour>
      <point x="127" y="82" type="curve"/>
      <point x="127" y="450" type="line"/>
      <point x="176" y="475"/>
      <point x="236" y="503"/>
      <point x="310" y="503" type="curve" smooth="yes"/>
      <point x="390" y="503"/>
      <point x="467" y="435"/>
      <point x="467" y="268" type="curve" smooth="yes"/>
      <point x="467" y="91"/>
      <point x="401" y="30"/>
      <point x="309" y="30" type="curve" smooth="yes"/>
      <point x="248" y="30"/>
      <point x="184" y="51"/>
    </contour>
    <contour>
      <point x="86" y="-237" type="line"/>
      <point x="127" y="-237" type="line"/>
      <point x="127" y="53" type="line"/>
      <point x="184" y="19"/>
      <point x="253" y="-6"/>
      <point x="316" y="-6" type="curve" smooth="yes"/>
      <point x="442" y="-6"/>
      <point x="508" y="84"/>
      <point x="508" y="268" type="curve" smooth="yes"/>
      <point x="508" y="397"/>
      <point x="459" y="538"/>
      <point x="316" y="538" type="curve" smooth="yes"/>
      <point x="249" y="538"/>
      <point x="162" y="499"/>
      <point x="127" y="476" type="curve"/>
      <point x="117" y="532" type="line"/>
      <point x="86" y="532" type="line"/>
    </contour>
    <contour>
      <point x="272" y="650" type="move" name="top"/>
    </contour>
  </outline>
</glyph>
<glyph name="r" format="1">
  <advance width="407"/>
  <unicode hex="0072"/>
  <note>
    GF Latin Plus glyph
  </note>
  <outline>
    <contour>
      <point x="86" y="0" type="line"/>
      <point x="127" y="0" type="line"/>
      <point x="127" y="403" type="line"/>
      <point x="195" y="464"/>
      <point x="244" y="496"/>
      <point x="325" y="496" type="curve" smooth="yes"/>
      <point x="346" y="496"/>
      <point x="364" y="494"/>
      <point x="380" y="491" type="curve"/>
      <point x="380" y="532" type="line"/>
      <point x="366" y="536"/>
      <point x="348" y="538"/>
      <point x="328" y="538" type="curve" smooth="yes"/>
      <point x="244" y="538"/>
      <point x="181" y="494"/>
      <point x="127" y="433" type="curve"/>
      <point x="116" y="532" type="line"/>
      <point x="86" y="532" type="line"/>
    </contour>
    <contour>
      <point x="203" y="650" type="move" name="top"/>
    </contour>
    <contour>
      <point x="107" y="-150" type="move" name="bottom"/>
    </contour>
  </outline>
</glyph>
<glyph name="s" format="1">
  <advance width="497"/>
  <unicode hex="0073"/>
  <note>
    GF Latin Plus glyph
  </note>
  <outline>
    <contour>
      <point x="57" y="370" type="line" smooth="yes"/>
      <point x="57" y="274"/>
      <point x="118" y="246"/>
      <point x="215" y="246" type="curve" smooth="yes"/>
      <point x="286" y="246" type="line" smooth="yes"/>
      <point x="365" y="246"/>
      <point x="403" y="212"/>
      <point x="403" y="154" type="curve" smooth="yes"/>
      <point x="403" y="126" type="line" smooth="yes"/>
      <point x="403" y="39"/>
      <point x="346" y="28"/>
      <point x="268" y="28" type="curve" smooth="yes"/>
      <point x="60" y="28" type="line"/>
      <point x="60" y="2" type="line"/>
      <point x="90" y="-2"/>
      <point x="220" y="-6"/>
      <point x="264" y="-6" type="curve" smooth="yes"/>
      <point x="363" y="-6"/>
      <point x="441" y="18"/>
      <point x="441" y="125" type="curve" smooth="yes"/>
      <point x="441" y="157" type="line" smooth="yes"/>
      <point x="441" y="239"/>
      <point x="381" y="283"/>
      <point x="290" y="283" type="curve" smooth="yes"/>
      <point x="219" y="283" type="line" smooth="yes"/>
      <point x="145" y="283"/>
      <point x="95" y="295"/>
      <point x="95" y="372" type="curve" smooth="yes"/>
      <point x="95" y="397" type="line" smooth="yes"/>
      <point x="95" y="479"/>
      <point x="141" y="502"/>
      <point x="225" y="502" type="curve" smooth="yes"/>
      <point x="421" y="502" type="line"/>
      <point x="421" y="527" type="line"/>
      <point x="375" y="533"/>
      <point x="279" y="537"/>
      <point x="229" y="537" type="curve" smooth="yes"/>
      <point x="114" y="537"/>
      <point x="57" y="496"/>
      <point x="57" y="397" type="curve" smooth="yes"/>
    </contour>
    <contour>
      <point x="236" y="650" type="move" name="top"/>
    </contour>
    <contour>
      <point x="236" y="-150" type="move" name="bottom"/>
    </contour>
  </outline>
</glyph>
<glyph name="u" format="1">
  <advance width="584"/>
  <unicode hex="0075"/>
  <note>
    GF Latin Plus glyph
  </note>
  <outline>
    <contour>
      <point x="86" y="159" type="line" smooth="yes"/>
      <point x="86" y="41"/>
      <point x="144" y="-6"/>
      <point x="249" y="-6" type="curve" smooth="yes"/>
      <point x="328" y="-6"/>
      <point x="403" y="24"/>
      <point x="460" y="61" type="curve"/>
      <point x="472" y="0" type="line"/>
      <point x="501" y="0" type="line"/>
      <point x="501" y="532" type="line"/>
      <point x="460" y="532" type="line"/>
      <point x="460" y="88" type="line"/>
      <point x="392" y="50"/>
      <point x="340" y="31"/>
      <point x="264" y="31" type="curve" smooth="yes"/>
      <point x="175" y="31"/>
      <point x="127" y="60"/>
      <point x="127" y="165" type="curve" smooth="yes"/>
      <point x="127" y="532" type="line"/>
      <point x="86" y="532" type="line"/>
    </contour>
    <contour>
      <point x="282" y="650" type="move" name="top"/>
    </contour>
    <contour>
      <point x="491" y="0" type="move" name="ogonek"/>
    </contour>
    <contour>
      <point x="282" y="-150" type="move" name="bottom"/>
    </contour>
  </outline>
</glyph>
<glyph name="v" format="1">
  <advance width="521"/>
  <unicode hex="0076"/>
  <note>
    GF Latin Plus glyph
  </note>
  <outline>
    <contour>
      <point x="22" y="532" type="line"/>
      <point x="235" y="0" type="line"/>
      <point x="281" y="0" type="line"/>
      <point x="498" y="532" type="line"/>
      <point x="457" y="532" type="line"/>
      <point x="258" y="39" type="line"/>
      <point x="64" y="532" type="line"/>
    </contour>
  </outline>
</glyph>
<glyph name="w" format="1">
  <advance width="781"/>
  <unicode hex="0077"/>
  <note>
    GF Latin Plus glyph
  </note>
  <outline>
    <contour>
      <point x="22" y="532" type="line"/>
      <point x="196" y="0" type="line"/>
      <point x="240" y="0" type="line"/>
      <point x="391" y="483" type="line"/>
      <point x="541" y="0" type="line"/>
      <point x="586" y="0" type="line"/>
      <point x="759" y="532" type="line"/>
      <point x="717" y="532" type="line"/>
      <point x="562" y="39" type="line"/>
      <point x="411" y="532" type="line"/>
      <point x="372" y="532" type="line"/>
      <point x="220" y="39" type="line"/>
      <point x="64" y="532" type="line"/>
    </contour>
    <contour>
      <point x="394" y="650" type="move" name="top"/>
    </contour>
    <contour>
      <point x="394" y="-150" type="move" name="bottom"/>
    </contour>
  </outline>
</glyph>
<glyph name="y" format="1">
  <advance width="526"/>
  <unicode hex="0079"/>
  <note>
    GF Latin Plus glyph
  </note>
  <outline>
    <contour>
      <point x="22" y="532" type="line"/>
      <point x="166" y="115" type="line" smooth="yes"/>
      <point x="199" y="16"/>
      <point x="259" y="1"/>
      <point x="290" y="0" type="curve"/>
      <point x="216" y="-237" type="line"/>
      <point x="244" y="-237" type="line"/>
      <point x="289" y="-138" type="line"/>
      <point x="503" y="532" type="line"/>
      <point x="461" y="532" type="line"/>
      <point x="300" y="38" type="line"/>
      <point x="299" y="38"/>
      <point x="239" y="28"/>
      <point x="205" y="124" type="curve" smooth="yes"/>
      <point x="66" y="532" type="line"/>
    </contour>
    <contour>
      <point x="262" y="650" type="move" name="top"/>
    </contour>
    <contour>
      <point x="425" y="-150" type="move" name="bottom"/>
    </contour>
  </outline>
</glyph>
<glyph name="z" format="1">
  <advance width="489"/>
  <unicode hex="007A"/>
  <note>
    GF Latin Plus glyph
  </note>
  <outline>
    <contour>
      <point x="48" y="497" type="line"/>
      <point x="392" y="497" type="line"/>
      <point x="54" y="34" type="line"/>
      <point x="54" y="0" type="line"/>
      <point x="441" y="0" type="line"/>
      <point x="441" y="35" type="line"/>
      <point x="101" y="35" type="line"/>
      <point x="441" y="498" type="line"/>
      <point x="441" y="532" type="line"/>
      <point x="48" y="532" type="line"/>
    </contour>
    <contour>
      <point x="232" y="650" type="move" name="top"/>
    </contour>
    <contour>
      <point x="232" y="-150" type="move" name="bottom"/>
    </contour>
  </outline>
</glyph>
<glyph name="braceleft" format="1">
  <advance width="306"/>
  <unicode hex="007B"/>
  <note>
    GF Latin Plus glyph
  </note>
  <outline>
    <contour>
      <point x="25" y="312" type="line"/>
      <point x="65" y="316"/>
      <point x="111" y="288"/>
      <point x="111" y="242" type="curve" smooth="yes"/>
      <point x="111" y="-38" type="line" smooth="yes"/>
      <point x="111" y="-121"/>
      <point x="129" y="-210"/>
      <point x="280" y="-210" type="curve"/>
      <point x="280" y="-176" type="line"/>
      <point x="194" y="-176"/>
      <point x="152" y="-141"/>
      <point x="152" y="-31" type="curve" smooth="yes"/>
      <point x="152" y="249" type="line" smooth="yes"/>
      <point x="152" y="292"/>
      <point x="116" y="327"/>
      <point x="71" y="334" type="curve"/>
      <point x="116" y="340"/>
      <point x="153" y="371"/>
      <point x="153" y="422" type="curve" smooth="yes"/>
      <point x="153" y="648" type="line" smooth="yes"/>
      <point x="153" y="768"/>
      <point x="197" y="807"/>
      <point x="280" y="807" type="curve"/>
      <point x="280" y="842" type="line"/>
      <point x="144" y="842"/>
      <point x="112" y="754"/>
      <point x="112" y="656" type="curve" smooth="yes"/>
      <point x="112" y="426" type="line" smooth="yes"/>
      <point x="112" y="370"/>
      <point x="58" y="358"/>
      <point x="25" y="354" type="curve"/>
    </contour>
  </outline>
</glyph>
<glyph name="bar" format="1">
  <advance width="254"/>
  <unicode hex="007C"/>
  <note>
    GF Latin Plus glyph
  </note>
  <outline>
    <contour>
      <point x="108" y="-72" type="line"/>
      <point x="145" y="-72" type="line"/>
      <point x="145" y="770" type="line"/>
      <point x="108" y="770" type="line"/>
    </contour>
  </outline>
</glyph>
<glyph name="asciitilde" format="1">
  <advance width="466"/>
  <unicode hex="007E"/>
  <note>
    GF Latin Plus glyph
  </note>
  <outline>
    <contour>
      <point x="64" y="575" type="curve"/>
      <point x="70" y="561" type="line"/>
      <point x="106" y="586"/>
      <point x="133" y="609"/>
      <point x="170" y="609" type="curve" smooth="yes"/>
      <point x="203" y="609"/>
      <point x="251" y="540"/>
      <point x="296" y="540" type="curve" smooth="yes"/>
      <point x="339" y="540"/>
      <point x="371" y="570"/>
      <point x="403" y="603" type="curve"/>
      <point x="395" y="617" type="line"/>
      <point x="372" y="597"/>
      <point x="335" y="565"/>
      <point x="297" y="565" type="curve" smooth="yes"/>
      <point x="265" y="565"/>
      <point x="215" y="634"/>
      <point x="172" y="634" type="curve" smooth="yes"/>
      <point x="131" y="634"/>
      <point x="97" y="605"/>
    </contour>
  </outline>
</glyph>
<glyph name="section" format="1">
  <advance width="556"/>
  <unicode hex="00A7"/>
  <note>
    GF Latin Plus glyph
  </note>
  <outline>
    <contour>
      <point x="101" y="355" type="curve" smooth="yes"/>
      <point x="101" y="413" type="line" smooth="yes"/>
      <point x="101" y="475"/>
      <point x="126" y="489"/>
      <point x="209" y="489" type="curve" smooth="yes"/>
      <point x="346" y="489" type="line" smooth="yes"/>
      <point x="437" y="489"/>
      <point x="456" y="476"/>
      <point x="456" y="415" type="curve" smooth="yes"/>
      <point x="456" y="356" type="line" smooth="yes"/>
      <point x="456" y="289"/>
      <point x="445" y="284"/>
      <point x="346" y="284" type="curve" smooth="yes"/>
      <point x="209" y="284" type="line" smooth="yes"/>
      <point x="120" y="284"/>
      <point x="101" y="310"/>
    </contour>
    <contour>
      <point x="61" y="350" type="line" smooth="yes"/>
      <point x="61" y="276"/>
      <point x="100" y="250"/>
      <point x="204" y="250" type="curve" smooth="yes"/>
      <point x="346" y="250" type="line" smooth="yes"/>
      <point x="436" y="250"/>
      <point x="446" y="236"/>
      <point x="446" y="183" type="curve" smooth="yes"/>
      <point x="446" y="116" type="line" smooth="yes"/>
      <point x="446" y="66"/>
      <point x="424" y="29"/>
      <point x="312" y="29" type="curve" smooth="yes"/>
      <point x="107" y="29" type="line"/>
      <point x="107" y="1" type="line"/>
      <point x="144" y="-3"/>
      <point x="270" y="-6"/>
      <point x="317" y="-6" type="curve" smooth="yes"/>
      <point x="425" y="-6"/>
      <point x="486" y="24"/>
      <point x="486" y="115" type="curve" smooth="yes"/>
      <point x="486" y="185" type="line" smooth="yes"/>
      <point x="486" y="221"/>
      <point x="482" y="261"/>
      <point x="434" y="272" type="curve"/>
      <point x="480" y="278"/>
      <point x="496" y="301"/>
      <point x="496" y="360" type="curve" smooth="yes"/>
      <point x="496" y="419" type="line" smooth="yes"/>
      <point x="496" y="495"/>
      <point x="471" y="524"/>
      <point x="351" y="524" type="curve" smooth="yes"/>
      <point x="209" y="524" type="line" smooth="yes"/>
      <point x="143" y="524"/>
      <point x="111" y="533"/>
      <point x="111" y="591" type="curve" smooth="yes"/>
      <point x="111" y="655" type="line" smooth="yes"/>
      <point x="111" y="735"/>
      <point x="156" y="749"/>
      <point x="228" y="749" type="curve" smooth="yes"/>
      <point x="450" y="749" type="line"/>
      <point x="450" y="777" type="line"/>
      <point x="412" y="782"/>
      <point x="272" y="784"/>
      <point x="225" y="784" type="curve" smooth="yes"/>
      <point x="128" y="784"/>
      <point x="71" y="754"/>
      <point x="71" y="658" type="curve" smooth="yes"/>
      <point x="71" y="590" type="line" smooth="yes"/>
      <point x="71" y="552"/>
      <point x="84" y="511"/>
      <point x="127" y="501" type="curve"/>
      <point x="84" y="493"/>
      <point x="61" y="474"/>
      <point x="61" y="409" type="curve" smooth="yes"/>
    </contour>
  </outline>
</glyph>
<glyph name="dieresis" format="1">
  <advance width="421"/>
  <unicode hex="00A8"/>
  <note>
    GF Latin Plus glyph
  </note>
  <outline>
    <contour>
      <point x="91" y="675" type="line" smooth="yes"/>
      <point x="91" y="668"/>
      <point x="96" y="662"/>
      <point x="104" y="662" type="curve" smooth="yes"/>
      <point x="123" y="662" type="line" smooth="yes"/>
      <point x="131" y="662"/>
      <point x="136" y="666"/>
      <point x="136" y="675" type="curve" smooth="yes"/>
      <point x="136" y="742" type="line" smooth="yes"/>
      <point x="136" y="750"/>
      <point x="132" y="755"/>
      <point x="123" y="755" type="curve" smooth="yes"/>
      <point x="104" y="755" type="line" smooth="yes"/>
      <point x="95" y="755"/>
      <point x="91" y="751"/>
      <point x="91" y="742" type="curve" smooth="yes"/>
    </contour>
    <contour>
      <point x="285" y="675" type="line" smooth="yes"/>
      <point x="285" y="668"/>
      <point x="291" y="662"/>
      <point x="298" y="662" type="curve" smooth="yes"/>
      <point x="317" y="662" type="line" smooth="yes"/>
      <point x="325" y="662"/>
      <point x="330" y="666"/>
      <point x="330" y="675" type="curve" smooth="yes"/>
      <point x="330" y="742" type="line" smooth="yes"/>
      <point x="330" y="750"/>
      <point x="326" y="755"/>
      <point x="317" y="755" type="curve" smooth="yes"/>
      <point x="298" y="755" type="line" smooth="yes"/>
      <point x="290" y="755"/>
      <point x="285" y="751"/>
      <point x="285" y="742" type="curve" smooth="yes"/>
    </contour>
  </outline>
</glyph>
<glyph name="uni00AD" format="1">
  <advance width="367"/>
  <unicode hex="00AD"/>
  <outline>
    <contour>
      <point x="26" y="272" type="line"/>
      <point x="26" y="308" type="line"/>
      <point x="340" y="308" type="line"/>
      <point x="340" y="272" type="line"/>
    </contour>
  </outline>
</glyph>
<glyph name="registered" format="1">
  <advance width="857"/>
  <unicode hex="00AE"/>
  <note>
    GF Latin Plus glyph
  </note>
  <outline>
    <contour>
      <point x="304" y="363" type="line"/>
      <point x="304" y="557" type="line"/>
      <point x="463" y="557" type="line" smooth="yes"/>
      <point x="522" y="557"/>
      <point x="559" y="532"/>
      <point x="559" y="452" type="curve" smooth="yes"/>
      <point x="559" y="376"/>
      <point x="526" y="363"/>
      <point x="463" y="363" type="curve" smooth="yes"/>
    </contour>
    <contour>
      <point x="280" y="153" type="line"/>
      <point x="304" y="153" type="line"/>
      <point x="304" y="346" type="line"/>
      <point x="451" y="342" type="line"/>
      <point x="558" y="153" type="line"/>
      <point x="585" y="153" type="line"/>
      <point x="477" y="342" type="line"/>
      <point x="511" y="347"/>
      <point x="583" y="342"/>
      <point x="583" y="453" type="curve" smooth="yes"/>
      <point x="583" y="559"/>
      <point x="524" y="580"/>
      <point x="458" y="580" type="curve" smooth="yes"/>
      <point x="280" y="580" type="line"/>
    </contour>
    <contour>
      <point x="94" y="368" type="curve" smooth="yes"/>
      <point x="96" y="633"/>
      <point x="206" y="709"/>
      <point x="314" y="709" type="curve" smooth="yes"/>
      <point x="565" y="709" type="line" smooth="yes"/>
      <point x="714" y="709"/>
      <point x="763" y="552"/>
      <point x="763" y="368" type="curve" smooth="yes"/>
      <point x="763" y="140"/>
      <point x="674" y="23"/>
      <point x="564" y="23" type="curve" smooth="yes"/>
      <point x="314" y="23" type="line" smooth="yes"/>
      <point x="162" y="23"/>
      <point x="92" y="211"/>
    </contour>
    <contour>
      <point x="70" y="368" type="curve" smooth="yes"/>
      <point x="70" y="225"/>
      <point x="129" y="0"/>
      <point x="314" y="0" type="curve" smooth="yes"/>
      <point x="565" y="0" type="line" smooth="yes"/>
      <point x="716" y="0"/>
      <point x="787" y="168"/>
      <point x="787" y="368" type="curve" smooth="yes"/>
      <point x="787" y="501"/>
      <point x="761" y="732"/>
      <point x="565" y="732" type="curve" smooth="yes"/>
      <point x="314" y="732" type="line" smooth="yes"/>
      <point x="119" y="732"/>
      <point x="70" y="534"/>
    </contour>
  </outline>
</glyph>
<glyph name="degree" format="1">
  <advance width="335"/>
  <unicode hex="00B0"/>
  <note>
    GF Latin Plus glyph
  </note>
  <outline>
    <contour>
      <point x="65" y="631" type="curve" smooth="yes"/>
      <point x="65" y="691"/>
      <point x="109" y="736"/>
      <point x="169" y="736" type="curve" smooth="yes"/>
      <point x="228" y="736"/>
      <point x="270" y="691"/>
      <point x="270" y="631" type="curve" smooth="yes"/>
      <point x="270" y="571"/>
      <point x="228" y="527"/>
      <point x="169" y="527" type="curve" smooth="yes"/>
      <point x="109" y="527"/>
      <point x="65" y="571"/>
    </contour>
    <contour>
      <point x="44" y="631" type="curve" smooth="yes"/>
      <point x="44" y="558"/>
      <point x="97" y="506"/>
      <point x="169" y="506" type="curve" smooth="yes"/>
      <point x="241" y="506"/>
      <point x="292" y="558"/>
      <point x="292" y="631" type="curve" smooth="yes"/>
      <point x="292" y="704"/>
      <point x="241" y="757"/>
      <point x="169" y="757" type="curve" smooth="yes"/>
      <point x="97" y="757"/>
      <point x="44" y="704"/>
    </contour>
  </outline>
</glyph>
<glyph name="acute" format="1">
  <advance width="205"/>
  <unicode hex="00B4"/>
  <note>
    GF Latin Plus glyph
  </note>
  <outline>
    <contour>
      <point x="25" y="631" type="line"/>
      <point x="49" y="631" type="line"/>
      <point x="180" y="765" type="line"/>
      <point x="141" y="765" type="line"/>
    </contour>
  </outline>
</glyph>
<glyph name="cedilla" format="1">
  <advance width="264"/>
  <unicode hex="00B8"/>
  <note>
    GF Latin Plus glyph
  </note>
  <outline>
    <contour>
      <point x="64" y="-168" type="line"/>
      <point x="64" y="-185" type="line"/>
      <point x="88" y="-185" type="line" smooth="yes"/>
      <point x="145" y="-185"/>
      <point x="178" y="-161"/>
      <point x="178" y="-119" type="curve" smooth="yes"/>
      <point x="178" y="-80"/>
      <point x="156" y="-57"/>
      <point x="95" y="-57" type="curve"/>
      <point x="74" y="-67" type="line"/>
      <point x="139" y="-68"/>
      <point x="152" y="-90"/>
      <point x="152" y="-115" type="curve" smooth="yes"/>
      <point x="152" y="-148"/>
      <point x="130" y="-163"/>
      <point x="89" y="-166" type="curve" smooth="yes"/>
    </contour>
    <contour>
      <point x="148" y="11" type="line"/>
      <point x="127" y="11" type="line"/>
      <point x="74" y="-67" type="line"/>
      <point x="96" y="-67" type="line"/>
    </contour>
  </outline>
</glyph>
<glyph name="AE" format="1">
  <advance width="954"/>
  <unicode hex="00C6"/>
  <note>
    GF Latin Plus glyph
  </note>
  <outline>
    <contour>
      <point x="256" y="276" type="line"/>
      <point x="486" y="644" type="line"/>
      <point x="486" y="276" type="line"/>
    </contour>
    <contour>
      <point x="44" y="0" type="line"/>
      <point x="86" y="0" type="line"/>
      <point x="236" y="240" type="line"/>
      <point x="486" y="240" type="line"/>
      <point x="486" y="120" type="line" smooth="yes"/>
      <point x="487" y="27"/>
      <point x="540" y="-5"/>
      <point x="628" y="-3" type="curve" smooth="yes"/>
      <point x="640" y="-3"/>
      <point x="881" y="3"/>
      <point x="889" y="4" type="curve"/>
      <point x="889" y="35" type="line"/>
      <point x="632" y="35" type="line" smooth="yes"/>
      <point x="561" y="35"/>
      <point x="524" y="63"/>
      <point x="524" y="134" type="curve" smooth="yes"/>
      <point x="524" y="345" type="line"/>
      <point x="848" y="349" type="line"/>
      <point x="848" y="379" type="line"/>
      <point x="524" y="382" type="line"/>
      <point x="524" y="623" type="line" smooth="yes"/>
      <point x="524" y="673"/>
      <point x="545" y="695"/>
      <point x="604" y="695" type="curve" smooth="yes"/>
      <point x="889" y="695" type="line"/>
      <point x="889" y="726" type="line"/>
      <point x="883" y="727"/>
      <point x="617" y="733"/>
      <point x="605" y="733" type="curve" smooth="yes"/>
      <point x="517" y="735"/>
      <point x="470" y="695"/>
      <point x="431" y="630" type="curve" smooth="yes"/>
    </contour>
    <contour>
      <point x="529" y="810" type="move" name="top"/>
    </contour>
  </outline>
</glyph>
<glyph name="Oslash" format="1">
  <advance width="679"/>
  <unicode hex="00D8"/>
  <note>
    GF Latin Plus glyph
  </note>
  <outline>
    <contour>
      <point x="563" y="733" type="line"/>
      <point x="81" y="0" type="line"/>
      <point x="116" y="0" type="line"/>
      <point x="598" y="733" type="line"/>
    </contour>
    <component base="O"/>
    <contour>
      <point x="340" y="810" type="move" name="top"/>
    </contour>
  </outline>
</glyph>
<glyph name="Thorn" format="1">
  <advance width="546"/>
  <unicode hex="00DE"/>
  <note>
    GF Latin Plus glyph
  </note>
  <outline>
    <contour>
      <point x="85" y="0" type="line"/>
      <point x="126" y="0" type="line"/>
      <point x="126" y="179" type="line"/>
      <point x="160" y="177"/>
      <point x="279" y="172"/>
      <point x="310" y="172" type="curve" smooth="yes"/>
      <point x="390" y="172"/>
      <point x="499" y="206"/>
      <point x="499" y="384" type="curve" smooth="yes"/>
      <point x="499" y="559"/>
      <point x="399" y="590"/>
      <point x="318" y="590" type="curve" smooth="yes"/>
      <point x="126" y="590" type="line"/>
      <point x="126" y="733" type="line"/>
      <point x="85" y="733" type="line"/>
    </contour>
    <contour>
      <point x="126" y="209" type="line"/>
      <point x="126" y="553" type="line"/>
      <point x="316" y="553" type="line" smooth="yes"/>
      <point x="388" y="553"/>
      <point x="457" y="522"/>
      <point x="457" y="384" type="curve" smooth="yes"/>
      <point x="457" y="244"/>
      <point x="386" y="209"/>
      <point x="307" y="209" type="curve" smooth="yes"/>
    </contour>
  </outline>
</glyph>
<glyph name="germandbls" format="1">
  <advance width="571"/>
  <unicode hex="00DF"/>
  <note>
    GF Latin Plus glyph
  </note>
  <outline>
    <contour>
      <point x="76" y="0" type="line"/>
      <point x="117" y="0" type="line"/>
      <point x="117" y="553" type="line" smooth="yes"/>
      <point x="117" y="668"/>
      <point x="181" y="732"/>
      <point x="291" y="732" type="curve" smooth="yes"/>
      <point x="398" y="732"/>
      <point x="456" y="691"/>
      <point x="456" y="614" type="curve" smooth="yes"/>
      <point x="456" y="496"/>
      <point x="280" y="464"/>
      <point x="280" y="346" type="curve" smooth="yes"/>
      <point x="280" y="210"/>
      <point x="507" y="277"/>
      <point x="507" y="163" type="curve" smooth="yes"/>
      <point x="507" y="134" type="line" smooth="yes"/>
      <point x="507" y="95"/>
      <point x="488" y="28"/>
      <point x="381" y="28" type="curve" smooth="yes"/>
      <point x="316" y="28"/>
      <point x="253" y="31"/>
      <point x="216" y="33" type="curve"/>
      <point x="216" y="7" type="line"/>
      <point x="251" y="0"/>
      <point x="319" y="-8"/>
      <point x="386" y="-8" type="curve" smooth="yes"/>
      <point x="478" y="-8"/>
      <point x="547" y="39"/>
      <point x="547" y="134" type="curve" smooth="yes"/>
      <point x="547" y="165" type="line" smooth="yes"/>
      <point x="547" y="308"/>
      <point x="320" y="244"/>
      <point x="320" y="350" type="curve" smooth="yes"/>
      <point x="320" y="451"/>
      <point x="495" y="479"/>
      <point x="495" y="616" type="curve" smooth="yes"/>
      <point x="495" y="698"/>
      <point x="442" y="768"/>
      <point x="291" y="768" type="curve" smooth="yes"/>
      <point x="144" y="768"/>
      <point x="76" y="673"/>
      <point x="76" y="555" type="curve" smooth="yes"/>
    </contour>
  </outline>
</glyph>
<glyph name="ae" format="1">
  <advance width="898"/>
  <unicode hex="00E6"/>
  <note>
    GF Latin Plus glyph
  </note>
  <outline>
    <contour>
      <point x="459" y="293" type="line"/>
      <point x="461" y="467"/>
      <point x="497" y="504"/>
      <point x="626" y="504" type="curve" smooth="yes"/>
      <point x="753" y="504"/>
      <point x="792" y="465"/>
      <point x="792" y="368" type="curve" smooth="yes"/>
      <point x="792" y="300"/>
      <point x="746" y="293"/>
      <point x="687" y="293" type="curve" smooth="yes"/>
    </contour>
    <contour>
      <point x="93" y="134" type="curve" smooth="yes"/>
      <point x="93" y="158" type="line" smooth="yes"/>
      <point x="93" y="217"/>
      <point x="124" y="263"/>
      <point x="212" y="264" type="curve" smooth="yes"/>
      <point x="418" y="265" type="line"/>
      <point x="419" y="205"/>
      <point x="427" y="163"/>
      <point x="432" y="140" type="curve"/>
      <point x="367" y="70"/>
      <point x="279" y="29"/>
      <point x="195" y="29" type="curve" smooth="yes"/>
      <point x="142" y="29"/>
      <point x="93" y="55"/>
    </contour>
    <contour>
      <point x="52" y="130" type="line" smooth="yes"/>
      <point x="52" y="44"/>
      <point x="100" y="-6"/>
      <point x="186" y="-6" type="curve" smooth="yes"/>
      <point x="292" y="-6"/>
      <point x="385" y="51"/>
      <point x="442" y="113" type="curve"/>
      <point x="469" y="57"/>
      <point x="514" y="-6"/>
      <point x="636" y="-6" type="curve" smooth="yes"/>
      <point x="688" y="-6"/>
      <point x="759" y="-3"/>
      <point x="818" y="2" type="curve"/>
      <point x="818" y="28" type="line"/>
      <point x="646" y="28" type="line" smooth="yes"/>
      <point x="542" y="28"/>
      <point x="457" y="70"/>
      <point x="459" y="262" type="curve"/>
      <point x="688" y="262" type="line" smooth="yes"/>
      <point x="778" y="262"/>
      <point x="831" y="282"/>
      <point x="831" y="367" type="curve" smooth="yes"/>
      <point x="831" y="498"/>
      <point x="762" y="538"/>
      <point x="627" y="538" type="curve" smooth="yes"/>
      <point x="538" y="538"/>
      <point x="469" y="516"/>
      <point x="445" y="434" type="curve"/>
      <point x="425" y="510"/>
      <point x="356" y="542"/>
      <point x="277" y="541" type="curve" smooth="yes"/>
      <point x="189" y="540"/>
      <point x="146" y="537"/>
      <point x="100" y="532" type="curve"/>
      <point x="100" y="507" type="line"/>
      <point x="274" y="507" type="line" smooth="yes"/>
      <point x="386" y="507"/>
      <point x="418" y="449"/>
      <point x="418" y="383" type="curve" smooth="yes"/>
      <point x="418" y="294" type="line"/>
      <point x="208" y="294" type="line" smooth="yes"/>
      <point x="109" y="294"/>
      <point x="52" y="243"/>
      <point x="52" y="158" type="curve" smooth="yes"/>
    </contour>
    <contour>
      <point x="445" y="650" type="move" name="top"/>
    </contour>
  </outline>
</glyph>
<glyph name="eth" format="1">
  <advance width="578"/>
  <unicode hex="00F0"/>
  <note>
    GF Latin Plus glyph
  </note>
  <outline>
    <contour>
      <point x="66" y="266" type="curve" smooth="yes"/>
      <point x="66" y="39"/>
      <point x="145" y="-6"/>
      <point x="288" y="-6" type="curve" smooth="yes"/>
      <point x="431" y="-6"/>
      <point x="512" y="39"/>
      <point x="512" y="266" type="curve" smooth="yes"/>
      <point x="512" y="336"/>
      <point x="490" y="381"/>
      <point x="473" y="421" type="curve"/>
      <point x="443" y="513"/>
      <point x="380" y="536"/>
      <point x="285" y="536" type="curve" smooth="yes"/>
      <point x="147" y="536"/>
      <point x="66" y="493"/>
    </contour>
    <contour>
      <point x="107" y="266" type="curve" smooth="yes"/>
      <point x="107" y="474"/>
      <point x="172" y="501"/>
      <point x="288" y="501" type="curve" smooth="yes"/>
      <point x="404" y="501"/>
      <point x="471" y="474"/>
      <point x="471" y="266" type="curve" smooth="yes"/>
      <point x="471" y="57"/>
      <point x="404" y="29"/>
      <point x="288" y="29" type="curve" smooth="yes"/>
      <point x="172" y="29"/>
      <point x="107" y="57"/>
    </contour>
    <contour>
      <point x="159" y="739" type="line"/>
      <point x="348" y="717"/>
      <point x="474" y="618"/>
      <point x="474" y="272" type="curve"/>
      <point x="512" y="265" type="line"/>
      <point x="512" y="636"/>
      <point x="367" y="747"/>
      <point x="159" y="768" type="curve"/>
    </contour>
    <contour>
      <point x="198" y="598" type="line"/>
      <point x="514" y="722" type="line"/>
      <point x="506" y="742" type="line"/>
      <point x="192" y="618" type="line"/>
    </contour>
  </outline>
</glyph>
<glyph name="divide" format="1">
  <advance width="609"/>
  <unicode hex="00F7"/>
  <note>
    GF Latin Plus glyph
  </note>
  <outline>
    <contour>
      <point x="269" y="534" type="line" smooth="yes"/>
      <point x="269" y="520"/>
      <point x="279" y="511"/>
      <point x="293" y="511" type="curve" smooth="yes"/>
      <point x="315" y="511" type="line" smooth="yes"/>
      <point x="329" y="511"/>
      <point x="340" y="516"/>
      <point x="340" y="534" type="curve" smooth="yes"/>
      <point x="340" y="568" type="line" smooth="yes"/>
      <point x="340" y="584"/>
      <point x="333" y="593"/>
      <point x="315" y="593" type="curve" smooth="yes"/>
      <point x="293" y="593" type="line" smooth="yes"/>
      <point x="277" y="593"/>
      <point x="269" y="583"/>
      <point x="269" y="568" type="curve" smooth="yes"/>
    </contour>
    <contour>
      <point x="269" y="142" type="line" smooth="yes"/>
      <point x="269" y="128"/>
      <point x="279" y="119"/>
      <point x="293" y="119" type="curve" smooth="yes"/>
      <point x="315" y="119" type="line" smooth="yes"/>
      <point x="329" y="119"/>
      <point x="340" y="124"/>
      <point x="340" y="142" type="curve" smooth="yes"/>
      <point x="340" y="176" type="line" smooth="yes"/>
      <point x="340" y="192"/>
      <point x="333" y="201"/>
      <point x="315" y="201" type="curve" smooth="yes"/>
      <point x="293" y="201" type="line" smooth="yes"/>
      <point x="277" y="201"/>
      <point x="269" y="191"/>
      <point x="269" y="176" type="curve" smooth="yes"/>
    </contour>
    <component base="minus"/>
  </outline>
</glyph>
<glyph name="oslash" format="1">
  <advance width="578"/>
  <unicode hex="00F8"/>
  <note>
    GF Latin Plus glyph
  </note>
  <outline>
    <contour>
      <point x="485" y="532" type="line"/>
      <point x="64" y="0" type="line"/>
      <point x="93" y="0" type="line"/>
      <point x="513" y="532" type="line"/>
    </contour>
    <component base="o"/>
    <contour>
      <point x="288" y="650" type="move" name="top"/>
    </contour>
  </outline>
</glyph>
<glyph name="thorn" format="1">
  <advance width="574"/>
  <unicode hex="00FE"/>
  <note>
    GF Latin Plus glyph
  </note>
  <outline>
    <contour>
      <point x="127" y="82" type="curve"/>
      <point x="127" y="450" type="line"/>
      <point x="176" y="475"/>
      <point x="236" y="503"/>
      <point x="310" y="503" type="curve" smooth="yes"/>
      <point x="390" y="503"/>
      <point x="467" y="434"/>
      <point x="467" y="267" type="curve" smooth="yes"/>
      <point x="467" y="90"/>
      <point x="401" y="30"/>
      <point x="309" y="30" type="curve" smooth="yes"/>
      <point x="248" y="30"/>
      <point x="184" y="51"/>
    </contour>
    <contour>
      <point x="86" y="-237" type="line"/>
      <point x="127" y="-237" type="line"/>
      <point x="127" y="53" type="line"/>
      <point x="184" y="19"/>
      <point x="253" y="-6"/>
      <point x="316" y="-6" type="curve" smooth="yes"/>
      <point x="441" y="-6"/>
      <point x="508" y="84"/>
      <point x="508" y="268" type="curve" smooth="yes"/>
      <point x="508" y="397"/>
      <point x="458" y="538"/>
      <point x="316" y="538" type="curve" smooth="yes"/>
      <point x="249" y="538"/>
      <point x="162" y="499"/>
      <point x="127" y="476" type="curve"/>
      <point x="127" y="763" type="line"/>
      <point x="86" y="763" type="line"/>
    </contour>
  </outline>
</glyph>
<glyph name="Lslash" format="1">
  <advance width="530"/>
  <unicode hex="0141"/>
  <note>
    GF Latin Plus glyph
  </note>
  <outline>
    <contour>
      <point x="5" y="320" type="line"/>
      <point x="91" y="356" type="line"/>
      <point x="121" y="365" type="line"/>
      <point x="266" y="428" type="line"/>
      <point x="266" y="456" type="line"/>
      <point x="121" y="393" type="line"/>
      <point x="91" y="385" type="line"/>
      <point x="5" y="348" type="line"/>
    </contour>
    <component base="L"/>
  </outline>
</glyph>
<glyph name="Eng" format="1">
  <advance width="669"/>
  <unicode hex="014A"/>
  <note>
    GF Latin Plus glyph
  </note>
  <outline>
    <contour>
      <point x="325" y="-219" type="line"/>
      <point x="353" y="-232"/>
      <point x="399" y="-243"/>
      <point x="434" y="-243" type="curve" smooth="yes"/>
      <point x="543" y="-243"/>
      <point x="604" y="-207"/>
      <point x="604" y="-87" type="curve" smooth="yes"/>
      <point x="604" y="28" type="line"/>
      <point x="563" y="28" type="line"/>
      <point x="563" y="-84" type="line" smooth="yes"/>
      <point x="563" y="-185"/>
      <point x="508" y="-206"/>
      <point x="430" y="-206" type="curve" smooth="yes"/>
      <point x="402" y="-206"/>
      <point x="351" y="-197"/>
      <point x="325" y="-189" type="curve"/>
    </contour>
    <component base="N"/>
  </outline>
</glyph>
<glyph name="eng" format="1">
  <advance width="584"/>
  <unicode hex="014B"/>
  <note>
    GF Latin Plus glyph
  </note>
  <outline>
    <contour>
      <point x="328" y="-237" type="curve"/>
      <point x="363" y="-237" type="line"/>
      <point x="442" y="-194"/>
      <point x="501" y="-123"/>
      <point x="501" y="14" type="curve" smooth="yes"/>
      <point x="501" y="204" type="line"/>
      <point x="460" y="204" type="line"/>
      <point x="460" y="13" type="line" smooth="yes"/>
      <point x="460" y="-109"/>
      <point x="408" y="-181"/>
    </contour>
    <component base="n"/>
  </outline>
</glyph>
<glyph name="oe" format="1">
  <advance width="945"/>
  <unicode hex="0153"/>
  <note>
    GF Latin Plus glyph
  </note>
  <outline>
    <contour>
      <point x="509" y="277" type="line"/>
      <point x="509" y="435"/>
      <point x="545" y="504"/>
      <point x="674" y="504" type="curve" smooth="yes"/>
      <point x="785" y="504"/>
      <point x="840" y="487"/>
      <point x="840" y="366" type="curve" smooth="yes"/>
      <point x="840" y="292"/>
      <point x="797" y="277"/>
      <point x="736" y="277" type="curve" smooth="yes"/>
    </contour>
    <contour>
      <point x="475" y="268" type="curve" smooth="yes"/>
      <point x="475" y="65"/>
      <point x="542" y="-6"/>
      <point x="679" y="-6" type="curve" smooth="yes"/>
      <point x="751" y="-6"/>
      <point x="806" y="-3"/>
      <point x="868" y="2" type="curve"/>
      <point x="868" y="28" type="line"/>
      <point x="687" y="28" type="line" smooth="yes"/>
      <point x="562" y="28"/>
      <point x="509" y="92"/>
      <point x="509" y="246" type="curve"/>
      <point x="743" y="246" type="line" smooth="yes"/>
      <point x="826" y="246"/>
      <point x="879" y="280"/>
      <point x="879" y="364" type="curve" smooth="yes"/>
      <point x="879" y="510"/>
      <point x="801" y="538"/>
      <point x="674" y="538" type="curve" smooth="yes"/>
      <point x="528" y="538"/>
      <point x="475" y="460"/>
    </contour>
    <contour>
      <point x="107" y="267" type="curve" smooth="yes"/>
      <point x="107" y="477"/>
      <point x="172" y="504"/>
      <point x="288" y="504" type="curve" smooth="yes"/>
      <point x="404" y="504"/>
      <point x="471" y="477"/>
      <point x="471" y="267" type="curve" smooth="yes"/>
      <point x="471" y="56"/>
      <point x="404" y="28"/>
      <point x="288" y="28" type="curve" smooth="yes"/>
      <point x="172" y="28"/>
      <point x="107" y="56"/>
    </contour>
    <contour>
      <point x="66" y="266" type="curve" smooth="yes"/>
      <point x="66" y="40"/>
      <point x="144" y="-6"/>
      <point x="285" y="-6" type="curve" smooth="yes"/>
      <point x="425" y="-6"/>
      <point x="505" y="39"/>
      <point x="505" y="266" type="curve" smooth="yes"/>
      <point x="505" y="494"/>
      <point x="426" y="538"/>
      <point x="288" y="538" type="curve" smooth="yes"/>
      <point x="146" y="538"/>
      <point x="66" y="495"/>
    </contour>
  </outline>
</glyph>
<glyph name="tbar" format="1">
  <advance width="355"/>
  <unicode hex="0167"/>
  <note>
    GF Latin Plus glyph
  </note>
  <outline>
    <contour>
      <point x="25" y="311" type="line"/>
      <point x="299" y="311" type="line"/>
      <point x="299" y="333" type="line"/>
      <point x="25" y="333" type="line"/>
    </contour>
    <component base="t"/>
  </outline>
</glyph>
<glyph name="Schwa" format="1">
  <advance width="603"/>
  <unicode hex="018F"/>
  <note>
    GF Latin Plus glyph
  </note>
  <outline>
    <contour>
      <point x="300" y="-6" type="curve" smooth="yes"/>
      <point x="445" y="-6"/>
      <point x="536" y="69"/>
      <point x="536" y="372" type="curve" smooth="yes"/>
      <point x="536" y="681"/>
      <point x="458" y="739"/>
      <point x="270" y="739" type="curve" smooth="yes"/>
      <point x="199" y="739"/>
      <point x="141" y="728"/>
      <point x="98" y="718" type="curve"/>
      <point x="98" y="688" type="line"/>
      <point x="127" y="692"/>
      <point x="174" y="702"/>
      <point x="252" y="702" type="curve" smooth="yes"/>
      <point x="444" y="702"/>
      <point x="494" y="644"/>
      <point x="494" y="372" type="curve"/>
      <point x="73" y="372" type="line"/>
      <point x="73" y="336" type="line" smooth="yes"/>
      <point x="73" y="87"/>
      <point x="138" y="-6"/>
    </contour>
    <contour>
      <point x="297" y="31" type="curve" smooth="yes"/>
      <point x="157" y="31"/>
      <point x="114" y="112"/>
      <point x="113" y="337" type="curve"/>
      <point x="493" y="337" type="line"/>
      <point x="491" y="90"/>
      <point x="422" y="31"/>
    </contour>
  </outline>
</glyph>
<glyph name="florin" format="1">
  <advance width="609"/>
  <unicode hex="0192"/>
  <note>
    GF Latin Plus glyph
  </note>
  <outline>
    <contour>
      <point x="24" y="-196" type="line"/>
      <point x="44" y="-201"/>
      <point x="76" y="-204"/>
      <point x="104" y="-204" type="curve" smooth="yes"/>
      <point x="213" y="-204"/>
      <point x="254" y="-125"/>
      <point x="288" y="88" type="curve" smooth="yes"/>
      <point x="340" y="416" type="line"/>
      <point x="479" y="416" type="line"/>
      <point x="484" y="450" type="line"/>
      <point x="345" y="450" type="line"/>
      <point x="364" y="563" type="line" smooth="yes"/>
      <point x="388" y="713"/>
      <point x="414" y="764"/>
      <point x="496" y="764" type="curve" smooth="yes"/>
      <point x="570" y="764" type="line"/>
      <point x="575" y="790" type="line"/>
      <point x="563" y="793"/>
      <point x="536" y="798"/>
      <point x="489" y="798" type="curve" smooth="yes"/>
      <point x="385" y="798"/>
      <point x="351" y="737"/>
      <point x="323" y="564" type="curve" smooth="yes"/>
      <point x="304" y="450" type="line"/>
      <point x="205" y="450" type="line"/>
      <point x="200" y="416" type="line"/>
      <point x="300" y="416" type="line"/>
      <point x="246" y="83" type="line" smooth="yes"/>
      <point x="215" y="-112"/>
      <point x="178" y="-170"/>
      <point x="102" y="-170" type="curve" smooth="yes"/>
      <point x="30" y="-170" type="line"/>
    </contour>
  </outline>
</glyph>
<glyph name="Ohorn" format="1">
  <advance width="679"/>
  <unicode hex="01A0"/>
  <note>
    GF Latin Plus glyph
  </note>
  <outline>
    <contour>
      <point x="380" y="708" type="line"/>
      <point x="511" y="708" type="line" smooth="yes"/>
      <point x="566" y="708"/>
      <point x="623" y="738"/>
      <point x="623" y="848" type="curve"/>
      <point x="590" y="848" type="line"/>
      <point x="590" y="762"/>
      <point x="555" y="733"/>
      <point x="508" y="733" type="curve" smooth="yes"/>
      <point x="380" y="733" type="line"/>
    </contour>
    <component base="O"/>
    <contour>
      <point x="340" y="810" type="move" name="top"/>
    </contour>
    <contour>
      <point x="340" y="-150" type="move" name="bottom"/>
    </contour>
  </outline>
</glyph>
<glyph name="Uhorn" format="1">
  <advance width="670"/>
  <unicode hex="01AF"/>
  <note>
    GF Latin Plus glyph
  </note>
  <outline>
    <contour>
      <point x="560" y="708" type="line"/>
      <point x="585" y="708" type="line" smooth="yes"/>
      <point x="640" y="708"/>
      <point x="697" y="738"/>
      <point x="697" y="848" type="curve"/>
      <point x="664" y="848" type="line"/>
      <point x="664" y="762"/>
      <point x="629" y="733"/>
      <point x="582" y="733" type="curve" smooth="yes"/>
      <point x="560" y="733" type="line"/>
    </contour>
    <component base="U"/>
    <contour>
      <point x="334" y="810" type="move" name="top"/>
    </contour>
    <contour>
      <point x="334" y="-150" type="move" name="bottom"/>
    </contour>
  </outline>
</glyph>
<glyph name="breve" format="1">
  <advance width="361"/>
  <unicode hex="02D8"/>
  <note>
    GF Latin Plus glyph
  </note>
  <outline>
    <contour>
      <point x="55" y="768" type="line"/>
      <point x="55" y="663"/>
      <point x="118" y="632"/>
      <point x="181" y="632" type="curve" smooth="yes"/>
      <point x="244" y="632"/>
      <point x="309" y="660"/>
      <point x="309" y="768" type="curve"/>
      <point x="287" y="768" type="line"/>
      <point x="287" y="682"/>
      <point x="243" y="654"/>
      <point x="181" y="653" type="curve" smooth="yes"/>
      <point x="125" y="652"/>
      <point x="76" y="683"/>
      <point x="76" y="768" type="curve"/>
    </contour>
  </outline>
</glyph>
<glyph name="dotaccent" format="1">
  <advance width="172"/>
  <unicode hex="02D9"/>
  <note>
    GF Latin Plus glyph
  </note>
  <outline>
    <contour>
      <point x="59" y="675" type="line" smooth="yes"/>
      <point x="59" y="668"/>
      <point x="64" y="662"/>
      <point x="72" y="662" type="curve" smooth="yes"/>
      <point x="91" y="662" type="line" smooth="yes"/>
      <point x="98" y="662"/>
      <point x="104" y="666"/>
      <point x="104" y="675" type="curve" smooth="yes"/>
      <point x="104" y="742" type="line" smooth="yes"/>
      <point x="104" y="750"/>
      <point x="99" y="755"/>
      <point x="91" y="755" type="curve" smooth="yes"/>
      <point x="72" y="755" type="line" smooth="yes"/>
      <point x="63" y="755"/>
      <point x="59" y="751"/>
      <point x="59" y="742" type="curve" smooth="yes"/>
    </contour>
  </outline>
</glyph>
<glyph name="ogonek" format="1">
  <advance width="252"/>
  <unicode hex="02DB"/>
  <note>
    GF Latin Plus glyph
  </note>
  <outline>
    <contour>
      <point x="141" y="0" type="line"/>
      <point x="84" y="-25"/>
      <point x="61" y="-61"/>
      <point x="61" y="-96" type="curve" smooth="yes"/>
      <point x="61" y="-149"/>
      <point x="103" y="-183"/>
      <point x="166" y="-183" type="curve" smooth="yes"/>
      <point x="173" y="-183"/>
      <point x="181" y="-183"/>
      <point x="189" y="-182" type="curve"/>
      <point x="189" y="-160" type="line"/>
      <point x="183" y="-160" type="line" smooth="yes"/>
      <point x="120" y="-160"/>
      <point x="87" y="-134"/>
      <point x="87" y="-88" type="curve" smooth="yes"/>
      <point x="87" y="-55"/>
      <point x="113" y="-24"/>
      <point x="159" y="0" type="curve"/>
    </contour>
  </outline>
</glyph>
<glyph name="hungarumlaut" format="1">
  <advance width="352"/>
  <unicode hex="02DD"/>
  <note>
    GF Latin Plus glyph
  </note>
  <outline>
    <contour>
      <point x="282" y="765" type="line"/>
      <point x="168" y="631" type="line"/>
      <point x="192" y="631" type="line"/>
      <point x="320" y="765" type="line"/>
    </contour>
    <contour>
      <point x="140" y="765" type="line"/>
      <point x="25" y="631" type="line"/>
      <point x="49" y="631" type="line"/>
      <point x="178" y="765" type="line"/>
    </contour>
  </outline>
</glyph>
<glyph name="pi" format="1">
  <advance width="608"/>
  <unicode hex="03C0"/>
  <outline>
    <contour>
      <point x="25" y="493" type="line"/>
      <point x="136" y="493" type="line"/>
      <point x="136" y="0" type="line"/>
      <point x="177" y="0" type="line"/>
      <point x="177" y="493" type="line"/>
      <point x="370" y="493" type="line"/>
      <point x="370" y="121" type="line" smooth="yes"/>
      <point x="370" y="28"/>
      <point x="406" y="-6"/>
      <point x="474" y="-6" type="curve" smooth="yes"/>
      <point x="502" y="-6"/>
      <point x="526" y="0"/>
      <point x="542" y="8" type="curve"/>
      <point x="542" y="32" type="line"/>
      <point x="482" y="32" type="line" smooth="yes"/>
      <point x="434" y="32"/>
      <point x="411" y="57"/>
      <point x="411" y="122" type="curve" smooth="yes"/>
      <point x="411" y="493" type="line"/>
      <point x="534" y="493" type="line"/>
      <point x="534" y="532" type="line"/>
      <point x="25" y="532" type="line"/>
    </contour>
  </outline>
</glyph>
<glyph name="endash" format="1">
  <advance width="526"/>
  <unicode hex="2013"/>
  <note>
    GF Latin Plus glyph
  </note>
  <outline>
    <contour>
      <point x="26" y="270" type="line"/>
      <point x="499" y="270" type="line"/>
      <point x="499" y="308" type="line"/>
      <point x="26" y="308" type="line"/>
    </contour>
  </outline>
</glyph>
<glyph name="emdash" format="1">
  <advance width="749"/>
  <unicode hex="2014"/>
  <note>
    GF Latin Plus glyph
  </note>
  <outline>
    <contour>
      <point x="26" y="270" type="line"/>
      <point x="722" y="270" type="line"/>
      <point x="722" y="308" type="line"/>
      <point x="26" y="308" type="line"/>
    </contour>
  </outline>
</glyph>
<glyph name="quoteleft" format="1">
  <advance width="164"/>
  <unicode hex="2018"/>
  <note>
    GF Latin Plus glyph
  </note>
  <outline>
    <contour>
      <point x="58" y="561" type="line" smooth="yes"/>
      <point x="58" y="551"/>
      <point x="61" y="544"/>
      <point x="69" y="544" type="curve" smooth="yes"/>
      <point x="92" y="544" type="line" smooth="yes"/>
      <point x="102" y="544"/>
      <point x="107" y="549"/>
      <point x="107" y="561" type="curve" smooth="yes"/>
      <point x="107" y="629" type="line" smooth="yes"/>
      <point x="107" y="640"/>
      <point x="100" y="646"/>
      <point x="92" y="646" type="curve" smooth="yes"/>
      <point x="84" y="646" type="line"/>
      <point x="84" y="708" type="line" smooth="yes"/>
      <point x="84" y="721"/>
      <point x="90" y="728"/>
      <point x="105" y="728" type="curve"/>
      <point x="105" y="742" type="line"/>
      <point x="100" y="743"/>
      <point x="97" y="743"/>
      <point x="93" y="743" type="curve" smooth="yes"/>
      <point x="80" y="743"/>
      <point x="58" y="737"/>
      <point x="58" y="698" type="curve" smooth="yes"/>
    </contour>
  </outline>
</glyph>
<glyph name="quoteright" format="1">
  <advance width="164"/>
  <unicode hex="2019"/>
  <note>
    GF Latin Plus glyph
  </note>
  <outline>
    <contour>
      <point x="58" y="657" type="line" smooth="yes"/>
      <point x="58" y="646"/>
      <point x="64" y="640"/>
      <point x="73" y="640" type="curve" smooth="yes"/>
      <point x="80" y="640" type="line"/>
      <point x="80" y="578" type="line" smooth="yes"/>
      <point x="80" y="564"/>
      <point x="74" y="558"/>
      <point x="60" y="558" type="curve"/>
      <point x="60" y="544" type="line"/>
      <point x="64" y="543"/>
      <point x="67" y="543"/>
      <point x="71" y="543" type="curve" smooth="yes"/>
      <point x="84" y="543"/>
      <point x="106" y="549"/>
      <point x="106" y="588" type="curve" smooth="yes"/>
      <point x="106" y="725" type="line" smooth="yes"/>
      <point x="106" y="734"/>
      <point x="104" y="742"/>
      <point x="96" y="742" type="curve" smooth="yes"/>
      <point x="73" y="742" type="line" smooth="yes"/>
      <point x="62" y="742"/>
      <point x="58" y="737"/>
      <point x="58" y="725" type="curve" smooth="yes"/>
    </contour>
  </outline>
</glyph>
<glyph name="guilsinglleft" format="1">
  <advance width="356"/>
  <unicode hex="2039"/>
  <note>
    GF Latin Plus glyph
  </note>
  <outline>
    <contour>
      <point x="64" y="279" type="line"/>
      <point x="276" y="69" type="line"/>
      <point x="302" y="94" type="line"/>
      <point x="112" y="279" type="line"/>
      <point x="296" y="460" type="line"/>
      <point x="272" y="484" type="line"/>
    </contour>
  </outline>
</glyph>
<glyph name="guilsinglright" format="1">
  <advance width="356"/>
  <unicode hex="203A"/>
  <note>
    GF Latin Plus glyph
  </note>
  <outline>
    <contour>
      <point x="293" y="274" type="line"/>
      <point x="81" y="484" type="line"/>
      <point x="55" y="459" type="line"/>
      <point x="244" y="274" type="line"/>
      <point x="60" y="93" type="line"/>
      <point x="84" y="69" type="line"/>
    </contour>
  </outline>
</glyph>
<glyph name="zerosuperior" format="1">
  <advance width="457"/>
  <unicode hex="2070"/>
  <outline>
    <contour>
      <point x="88" y="406" type="curve" smooth="yes"/>
      <point x="88" y="697" type="line" smooth="yes"/>
      <point x="88" y="758"/>
      <point x="128" y="791"/>
      <point x="188" y="791" type="curve" smooth="yes"/>
      <point x="273" y="791" type="line" smooth="yes"/>
      <point x="337" y="791"/>
      <point x="370" y="758"/>
      <point x="370" y="697" type="curve" smooth="yes"/>
      <point x="370" y="406" type="line" smooth="yes"/>
      <point x="370" y="349"/>
      <point x="342" y="312"/>
      <point x="273" y="312" type="curve" smooth="yes"/>
      <point x="188" y="312" type="line" smooth="yes"/>
      <point x="128" y="312"/>
      <point x="88" y="344"/>
    </contour>
    <contour>
      <point x="51" y="403" type="line" smooth="yes"/>
      <point x="51" y="314"/>
      <point x="110" y="280"/>
      <point x="184" y="280" type="curve" smooth="yes"/>
      <point x="278" y="280" type="line" smooth="yes"/>
      <point x="355" y="280"/>
      <point x="407" y="314"/>
      <point x="407" y="403" type="curve" smooth="yes"/>
      <point x="407" y="700" type="line" smooth="yes"/>
      <point x="407" y="772"/>
      <point x="370" y="824"/>
      <point x="278" y="824" type="curve" smooth="yes"/>
      <point x="184" y="824" type="line" smooth="yes"/>
      <point x="108" y="824"/>
      <point x="51" y="782"/>
      <point x="51" y="700" type="curve" smooth="yes"/>
    </contour>
  </outline>
</glyph>
<glyph name="i.superior" format="1">
  <advance width="163"/>
  <unicode hex="2071"/>
  <outline>
    <contour>
      <point x="60" y="757" type="line" smooth="yes"/>
      <point x="60" y="752"/>
      <point x="64" y="747"/>
      <point x="70" y="747" type="curve" smooth="yes"/>
      <point x="94" y="747" type="line" smooth="yes"/>
      <point x="100" y="747"/>
      <point x="103" y="751"/>
      <point x="103" y="757" type="curve" smooth="yes"/>
      <point x="103" y="808" type="line" smooth="yes"/>
      <point x="103" y="814"/>
      <point x="101" y="818"/>
      <point x="94" y="818" type="curve" smooth="yes"/>
      <point x="70" y="818" type="line" smooth="yes"/>
      <point x="63" y="818"/>
      <point x="60" y="815"/>
      <point x="60" y="808" type="curve" smooth="yes"/>
    </contour>
    <contour>
      <point x="63" y="280" type="line"/>
      <point x="100" y="280" type="line"/>
      <point x="100" y="672" type="line"/>
      <point x="63" y="672" type="line"/>
    </contour>
    <contour>
      <point x="93" y="280" type="move" name="ogonek"/>
    </contour>
    <contour>
      <point x="81" y="169" type="move" name="bottom"/>
    </contour>
  </outline>
</glyph>
<glyph name="sixsuperior" format="1">
  <advance width="457"/>
  <unicode hex="2076"/>
  <outline>
    <contour>
      <point x="98" y="544" type="curve"/>
      <point x="257" y="544" type="line" smooth="yes"/>
      <point x="335" y="544"/>
      <point x="383" y="532"/>
      <point x="383" y="464" type="curve" smooth="yes"/>
      <point x="383" y="395" type="line" smooth="yes"/>
      <point x="383" y="327"/>
      <point x="340" y="311"/>
      <point x="290" y="311" type="curve" smooth="yes"/>
      <point x="211" y="311" type="line" smooth="yes"/>
      <point x="141" y="311"/>
      <point x="98" y="359"/>
    </contour>
    <contour>
      <point x="61" y="553" type="curve" smooth="yes"/>
      <point x="61" y="332"/>
      <point x="121" y="279"/>
      <point x="208" y="279" type="curve" smooth="yes"/>
      <point x="295" y="279" type="line" smooth="yes"/>
      <point x="362" y="279"/>
      <point x="420" y="308"/>
      <point x="420" y="392" type="curve" smooth="yes"/>
      <point x="420" y="468" type="line" smooth="yes"/>
      <point x="420" y="552"/>
      <point x="358" y="576"/>
      <point x="263" y="576" type="curve" smooth="yes"/>
      <point x="224" y="576"/>
      <point x="148" y="575"/>
      <point x="98" y="570" type="curve"/>
      <point x="98" y="720"/>
      <point x="157" y="791"/>
      <point x="247" y="791" type="curve" smooth="yes"/>
      <point x="386" y="791" type="line"/>
      <point x="386" y="819" type="line"/>
      <point x="347" y="821"/>
      <point x="291" y="824"/>
      <point x="251" y="824" type="curve" smooth="yes"/>
      <point x="131" y="824"/>
      <point x="61" y="740"/>
    </contour>
  </outline>
</glyph>
<glyph name="n.superior" format="1">
  <advance width="439"/>
  <unicode hex="207F"/>
  <outline>
    <contour>
      <point x="63" y="280" type="line"/>
      <point x="100" y="280" type="line"/>
      <point x="100" y="603" type="line"/>
      <point x="150" y="630"/>
      <point x="187" y="645"/>
      <point x="246" y="645" type="curve" smooth="yes"/>
      <point x="307" y="645"/>
      <point x="342" y="602"/>
      <point x="342" y="548" type="curve" smooth="yes"/>
      <point x="342" y="280" type="line"/>
      <point x="379" y="280" type="line"/>
      <point x="379" y="550" type="line" smooth="yes"/>
      <point x="379" y="618"/>
      <point x="338" y="678"/>
      <point x="255" y="678" type="curve" smooth="yes"/>
      <point x="197" y="678"/>
      <point x="140" y="654"/>
      <point x="100" y="627" type="curve"/>
      <point x="90" y="672" type="line"/>
      <point x="63" y="672" type="line"/>
    </contour>
    <contour>
      <point x="218" y="758" type="move" name="top"/>
    </contour>
    <contour>
      <point x="218" y="169" type="move" name="bottom"/>
    </contour>
  </outline>
</glyph>
<glyph name="kip" format="1">
  <advance width="609"/>
  <unicode hex="20AD"/>
  <note>
    GF Latin Plus glyph
  </note>
  <outline>
    <contour>
      <point x="28" y="348" type="line"/>
      <point x="543" y="348" type="line"/>
      <point x="543" y="386" type="line"/>
      <point x="28" y="386" type="line"/>
    </contour>
    <contour>
      <point x="103" y="0" type="line"/>
      <point x="144" y="0" type="line"/>
      <point x="144" y="348" type="line"/>
      <point x="288" y="348" type="line"/>
      <point x="514" y="0" type="line"/>
      <point x="559" y="0" type="line"/>
      <point x="321" y="367" type="line"/>
      <point x="558" y="733" type="line"/>
      <point x="514" y="733" type="line"/>
      <point x="289" y="386" type="line"/>
      <point x="144" y="386" type="line"/>
      <point x="144" y="733" type="line"/>
      <point x="103" y="733" type="line"/>
    </contour>
  </outline>
</glyph>
<glyph name="peso" format="1">
  <advance width="609"/>
  <unicode hex="20B1"/>
  <note>
    GF Latin Plus glyph
  </note>
  <outline>
    <contour>
      <point x="493" y="553" type="line"/>
      <point x="599" y="553" type="line"/>
      <point x="599" y="582" type="line"/>
      <point x="493" y="582" type="line"/>
    </contour>
    <contour>
      <point x="10" y="553" type="line"/>
      <point x="151" y="553" type="line"/>
      <point x="151" y="582" type="line"/>
      <point x="10" y="582" type="line"/>
    </contour>
    <contour>
      <point x="472" y="385" type="line"/>
      <point x="599" y="385" type="line"/>
      <point x="599" y="414" type="line"/>
      <point x="484" y="414" type="line"/>
    </contour>
    <contour>
      <point x="10" y="385" type="line"/>
      <point x="154" y="385" type="line"/>
      <point x="154" y="414" type="line"/>
      <point x="10" y="414" type="line"/>
    </contour>
    <contour>
      <point x="171" y="314" type="line"/>
      <point x="171" y="696" type="line"/>
      <point x="332" y="696" type="line" smooth="yes"/>
      <point x="404" y="696"/>
      <point x="473" y="662"/>
      <point x="473" y="508" type="curve" smooth="yes"/>
      <point x="473" y="353"/>
      <point x="402" y="314"/>
      <point x="323" y="314" type="curve" smooth="yes"/>
    </contour>
    <contour>
      <point x="132" y="0" type="line"/>
      <point x="171" y="0" type="line"/>
      <point x="171" y="284" type="line"/>
      <point x="213" y="282"/>
      <point x="288" y="277"/>
      <point x="326" y="277" type="curve" smooth="yes"/>
      <point x="405" y="277"/>
      <point x="513" y="314"/>
      <point x="513" y="508" type="curve" smooth="yes"/>
      <point x="513" y="700"/>
      <point x="414" y="733"/>
      <point x="334" y="733" type="curve" smooth="yes"/>
      <point x="132" y="733" type="line"/>
    </contour>
  </outline>
</glyph>
<glyph name="guarani" format="1">
  <advance width="609"/>
  <unicode hex="20B2"/>
  <note>
    GF Latin Plus glyph
  </note>
  <outline>
    <contour>
      <point x="354" y="-107" type="line"/>
      <point x="354" y="793" type="line"/>
      <point x="323" y="793" type="line"/>
      <point x="323" y="-107" type="line"/>
    </contour>
    <contour>
      <point x="65" y="361" type="curve" smooth="yes"/>
      <point x="65" y="92"/>
      <point x="116" y="-7"/>
      <point x="306" y="-5" type="curve" smooth="yes"/>
      <point x="388" y="-4"/>
      <point x="470" y="27"/>
      <point x="523" y="53" type="curve"/>
      <point x="531" y="0" type="line"/>
      <point x="558" y="0" type="line"/>
      <point x="558" y="371" type="line"/>
      <point x="519" y="371" type="line"/>
      <point x="519" y="80" type="line"/>
      <point x="463" y="57"/>
      <point x="381" y="33"/>
      <point x="312" y="33" type="curve" smooth="yes"/>
      <point x="146" y="33"/>
      <point x="104" y="109"/>
      <point x="104" y="359" type="curve" smooth="yes"/>
      <point x="104" y="590"/>
      <point x="152" y="684"/>
      <point x="322" y="684" type="curve" smooth="yes"/>
      <point x="409" y="684"/>
      <point x="510" y="674"/>
      <point x="549" y="670" type="curve"/>
      <point x="549" y="700" type="line"/>
      <point x="484" y="712"/>
      <point x="382" y="721"/>
      <point x="318" y="721" type="curve" smooth="yes"/>
      <point x="124" y="721"/>
      <point x="65" y="611"/>
    </contour>
  </outline>
</glyph>
<glyph name="manat" format="1">
  <advance width="609"/>
  <unicode hex="20BC"/>
  <note>
    GF Latin Plus glyph
  </note>
  <outline>
    <contour>
      <point x="319" y="80" type="line"/>
      <point x="319" y="784" type="line"/>
      <point x="290" y="784" type="line"/>
      <point x="290" y="80" type="line"/>
    </contour>
    <contour>
      <point x="304" y="674" type="curve" smooth="yes"/>
      <point x="98" y="674"/>
      <point x="60" y="387"/>
      <point x="51" y="0" type="curve"/>
      <point x="90" y="0" type="line"/>
      <point x="100" y="210" type="line" smooth="yes"/>
      <point x="109" y="403"/>
      <point x="145" y="637"/>
      <point x="304" y="637" type="curve" smooth="yes"/>
      <point x="463" y="637"/>
      <point x="499" y="403"/>
      <point x="509" y="210" type="curve" smooth="yes"/>
      <point x="519" y="0" type="line"/>
      <point x="558" y="0" type="line"/>
      <point x="549" y="387"/>
      <point x="510" y="674"/>
    </contour>
  </outline>
</glyph>
<glyph name="literSign" format="1">
  <advance width="428"/>
  <unicode hex="2113"/>
  <outline>
    <contour>
      <point x="136" y="332" type="curve"/>
      <point x="136" y="619" type="line" smooth="yes"/>
      <point x="136" y="674"/>
      <point x="176" y="705"/>
      <point x="217" y="705" type="curve" smooth="yes"/>
      <point x="278" y="705"/>
      <point x="314" y="658"/>
      <point x="314" y="600" type="curve" smooth="yes"/>
      <point x="314" y="494"/>
      <point x="227" y="417"/>
    </contour>
    <contour>
      <point x="38" y="249" type="curve"/>
      <point x="47" y="229" type="line"/>
      <point x="57" y="234"/>
      <point x="84" y="252"/>
      <point x="96" y="264" type="curve"/>
      <point x="96" y="187" type="line" smooth="yes"/>
      <point x="96" y="46"/>
      <point x="139" y="0"/>
      <point x="220" y="0" type="curve" smooth="yes"/>
      <point x="304" y="0" type="line"/>
      <point x="304" y="26" type="line"/>
      <point x="231" y="34" type="line" smooth="yes"/>
      <point x="171" y="42"/>
      <point x="136" y="67"/>
      <point x="136" y="194" type="curve" smooth="yes"/>
      <point x="136" y="290" type="line"/>
      <point x="249" y="388"/>
      <point x="350" y="483"/>
      <point x="350" y="599" type="curve" smooth="yes"/>
      <point x="350" y="678"/>
      <point x="300" y="739"/>
      <point x="219" y="739" type="curve" smooth="yes"/>
      <point x="149" y="739"/>
      <point x="96" y="696"/>
      <point x="96" y="615" type="curve" smooth="yes"/>
      <point x="96" y="303" type="line"/>
      <point x="77" y="283"/>
      <point x="57" y="266"/>
    </contour>
  </outline>
</glyph>
<glyph name="numero" format="1">
  <advance width="1111"/>
  <unicode hex="2116"/>
  <note>
    GF Latin Plus glyph
  </note>
  <outline>
    <contour>
      <point x="103" y="0" type="line"/>
      <point x="144" y="0" type="line"/>
      <point x="144" y="635" type="line" smooth="yes"/>
      <point x="144" y="682"/>
      <point x="164" y="699"/>
      <point x="192" y="699" type="curve" smooth="yes"/>
      <point x="218" y="699"/>
      <point x="236" y="686"/>
      <point x="247" y="655" type="curve" smooth="yes"/>
      <point x="458" y="59" type="line" smooth="yes"/>
      <point x="474" y="14"/>
      <point x="506" y="-6"/>
      <point x="545" y="-6" type="curve" smooth="yes"/>
      <point x="599" y="-6"/>
      <point x="638" y="29"/>
      <point x="638" y="87" type="curve" smooth="yes"/>
      <point x="638" y="542" type="line" smooth="yes"/>
      <point x="638" y="679"/>
      <point x="709" y="708"/>
      <point x="789" y="708" type="curve" smooth="yes"/>
      <point x="909" y="708" type="line" smooth="yes"/>
      <point x="970" y="708"/>
      <point x="1027" y="675"/>
      <point x="1027" y="556" type="curve" smooth="yes"/>
      <point x="1027" y="463"/>
      <point x="992" y="416"/>
      <point x="915" y="416" type="curve" smooth="yes"/>
      <point x="883" y="416" type="line" smooth="yes"/>
      <point x="816" y="416"/>
      <point x="780" y="463"/>
      <point x="780" y="622" type="curve"/>
      <point x="746" y="622" type="line"/>
      <point x="746" y="441"/>
      <point x="791" y="382"/>
      <point x="882" y="382" type="curve" smooth="yes"/>
      <point x="917" y="382" type="line" smooth="yes"/>
      <point x="1012" y="382"/>
      <point x="1061" y="445"/>
      <point x="1061" y="556" type="curve" smooth="yes"/>
      <point x="1061" y="696"/>
      <point x="989" y="744"/>
      <point x="911" y="744" type="curve" smooth="yes"/>
      <point x="788" y="744" type="line" smooth="yes"/>
      <point x="689" y="744"/>
      <point x="597" y="698"/>
      <point x="597" y="541" type="curve" smooth="yes"/>
      <point x="597" y="97" type="line" smooth="yes"/>
      <point x="597" y="57"/>
      <point x="578" y="33"/>
      <point x="542" y="33" type="curve" smooth="yes"/>
      <point x="522" y="33"/>
      <point x="502" y="47"/>
      <point x="493" y="71" type="curve" smooth="yes"/>
      <point x="281" y="671" type="line" smooth="yes"/>
      <point x="265" y="717"/>
      <point x="238" y="738"/>
      <point x="190" y="738" type="curve" smooth="yes"/>
      <point x="139" y="738"/>
      <point x="103" y="705"/>
      <point x="103" y="642" type="curve" smooth="yes"/>
    </contour>
  </outline>
</glyph>
<glyph name="trademark" format="1">
  <advance width="705"/>
  <unicode hex="2122"/>
  <note>
    GF Latin Plus glyph
  </note>
  <outline>
    <contour>
      <point x="323" y="383" type="line"/>
      <point x="346" y="383" type="line"/>
      <point x="370" y="686" type="line"/>
      <point x="500" y="383" type="line"/>
      <point x="518" y="383" type="line"/>
      <point x="636" y="685" type="line"/>
      <point x="664" y="383" type="line"/>
      <point x="686" y="383" type="line"/>
      <point x="653" y="732" type="line"/>
      <point x="630" y="732" type="line"/>
      <point x="508" y="420" type="line"/>
      <point x="375" y="732" type="line"/>
      <point x="352" y="732" type="line"/>
    </contour>
    <contour>
      <point x="25" y="710" type="line"/>
      <point x="145" y="710" type="line"/>
      <point x="145" y="383" type="line"/>
      <point x="169" y="383" type="line"/>
      <point x="169" y="710" type="line"/>
      <point x="288" y="710" type="line"/>
      <point x="288" y="732" type="line"/>
      <point x="25" y="732" type="line"/>
    </contour>
  </outline>
</glyph>
<glyph name="partialdiff" format="1">
  <advance width="669"/>
  <unicode hex="2202"/>
  <outline>
    <contour>
      <point x="112" y="228" type="curve" smooth="yes"/>
      <point x="112" y="360"/>
      <point x="190" y="406"/>
      <point x="323" y="406" type="curve" smooth="yes"/>
      <point x="395" y="406"/>
      <point x="491" y="380"/>
      <point x="523" y="362" type="curve"/>
      <point x="523" y="266"/>
      <point x="501" y="34"/>
      <point x="311" y="34" type="curve" smooth="yes"/>
      <point x="208" y="34"/>
      <point x="112" y="92"/>
    </contour>
    <contour>
      <point x="72" y="227" type="curve" smooth="yes"/>
      <point x="72" y="69"/>
      <point x="182" y="-5"/>
      <point x="312" y="-5" type="curve" smooth="yes"/>
      <point x="505" y="-5"/>
      <point x="566" y="186"/>
      <point x="566" y="387" type="curve" smooth="yes"/>
      <point x="566" y="603"/>
      <point x="496" y="740"/>
      <point x="311" y="740" type="curve" smooth="yes"/>
      <point x="227" y="740"/>
      <point x="167" y="715"/>
      <point x="107" y="674" type="curve"/>
      <point x="115" y="646" type="line"/>
      <point x="152" y="668"/>
      <point x="222" y="703"/>
      <point x="301" y="703" type="curve" smooth="yes"/>
      <point x="474" y="703"/>
      <point x="524" y="580"/>
      <point x="524" y="390" type="curve"/>
      <point x="459" y="431"/>
      <point x="370" y="442"/>
      <point x="319" y="442" type="curve" smooth="yes"/>
      <point x="162" y="442"/>
      <point x="72" y="378"/>
    </contour>
  </outline>
</glyph>
<glyph name="increment" format="1">
  <advance width="706"/>
  <unicode hex="2206"/>
  <outline>
    <contour>
      <point x="97" y="37" type="line"/>
      <point x="334" y="690" type="line"/>
      <point x="569" y="37" type="line"/>
    </contour>
    <contour>
      <point x="44" y="0" type="line"/>
      <point x="625" y="0" type="line"/>
      <point x="361" y="733" type="line"/>
      <point x="308" y="733" type="line"/>
    </contour>
  </outline>
</glyph>
<glyph name="summation" format="1">
  <advance width="566"/>
  <unicode hex="2211"/>
  <outline>
    <contour>
      <point x="51" y="-158" type="line"/>
      <point x="51" y="-200" type="line"/>
      <point x="541" y="-200" type="line"/>
      <point x="541" y="-161" type="line"/>
      <point x="98" y="-161" type="line"/>
      <point x="312" y="271" type="line"/>
      <point x="99" y="694" type="line"/>
      <point x="541" y="694" type="line"/>
      <point x="541" y="733" type="line"/>
      <point x="51" y="733" type="line"/>
      <point x="51" y="694" type="line"/>
      <point x="265" y="271" type="line"/>
    </contour>
  </outline>
</glyph>
<glyph name="bulletoperator" format="1">
  <advance width="609"/>
  <unicode hex="2219"/>
  <note>
    GF Latin Plus glyph
  </note>
  <outline>
    <contour>
      <point x="269" y="339" type="line" smooth="yes"/>
      <point x="269" y="325"/>
      <point x="279" y="316"/>
      <point x="293" y="316" type="curve" smooth="yes"/>
      <point x="315" y="316" type="line" smooth="yes"/>
      <point x="329" y="316"/>
      <point x="340" y="321"/>
      <point x="340" y="339" type="curve" smooth="yes"/>
      <point x="340" y="371" type="line" smooth="yes"/>
      <point x="340" y="387"/>
      <point x="333" y="396"/>
      <point x="315" y="396" type="curve" smooth="yes"/>
      <point x="293" y="396" type="line" smooth="yes"/>
      <point x="277" y="396"/>
      <point x="269" y="386"/>
      <point x="269" y="371" type="curve" smooth="yes"/>
    </contour>
  </outline>
</glyph>
<glyph name="infinity" format="1">
  <advance width="813"/>
  <unicode hex="221E"/>
  <outline>
    <contour>
      <point x="426" y="343" type="curve"/>
      <point x="464" y="403"/>
      <point x="544" y="480"/>
      <point x="609" y="480" type="curve" smooth="yes"/>
      <point x="699" y="480"/>
      <point x="715" y="424"/>
      <point x="715" y="341" type="curve" smooth="yes"/>
      <point x="715" y="262"/>
      <point x="698" y="203"/>
      <point x="600" y="203" type="curve" smooth="yes"/>
      <point x="531" y="203"/>
      <point x="466" y="272"/>
    </contour>
    <contour>
      <point x="99" y="341" type="curve" smooth="yes"/>
      <point x="99" y="442"/>
      <point x="122" y="480"/>
      <point x="209" y="480" type="curve" smooth="yes"/>
      <point x="269" y="480"/>
      <point x="341" y="409"/>
      <point x="386" y="343" type="curve"/>
      <point x="359" y="297"/>
      <point x="295" y="203"/>
      <point x="207" y="203" type="curve" smooth="yes"/>
      <point x="128" y="203"/>
      <point x="99" y="246"/>
    </contour>
    <contour>
      <point x="64" y="341" type="curve" smooth="yes"/>
      <point x="64" y="249"/>
      <point x="85" y="169"/>
      <point x="207" y="169" type="curve" smooth="yes"/>
      <point x="300" y="169"/>
      <point x="368" y="244"/>
      <point x="406" y="315" type="curve"/>
      <point x="442" y="253"/>
      <point x="515" y="169"/>
      <point x="602" y="169" type="curve" smooth="yes"/>
      <point x="729" y="169"/>
      <point x="750" y="249"/>
      <point x="750" y="341" type="curve" smooth="yes"/>
      <point x="750" y="419"/>
      <point x="740" y="514"/>
      <point x="615" y="514" type="curve" smooth="yes"/>
      <point x="526" y="514"/>
      <point x="440" y="426"/>
      <point x="406" y="370" type="curve"/>
      <point x="367" y="428"/>
      <point x="288" y="514"/>
      <point x="208" y="514" type="curve" smooth="yes"/>
      <point x="74" y="514"/>
      <point x="64" y="428"/>
    </contour>
  </outline>
</glyph>
<glyph name="integral" format="1">
  <advance width="454"/>
  <unicode hex="222B"/>
  <outline>
    <contour>
      <point x="25" y="-168" type="line"/>
      <point x="25" y="-194" type="line"/>
      <point x="44" y="-199"/>
      <point x="81" y="-202"/>
      <point x="116" y="-202" type="curve" smooth="yes"/>
      <point x="202" y="-202"/>
      <point x="247" y="-137"/>
      <point x="247" y="-24" type="curve" smooth="yes"/>
      <point x="247" y="629" type="line" smooth="yes"/>
      <point x="247" y="709"/>
      <point x="268" y="764"/>
      <point x="345" y="764" type="curve" smooth="yes"/>
      <point x="428" y="764" type="line"/>
      <point x="428" y="790" type="line"/>
      <point x="413" y="793"/>
      <point x="393" y="798"/>
      <point x="336" y="798" type="curve" smooth="yes"/>
      <point x="244" y="798"/>
      <point x="206" y="737"/>
      <point x="206" y="630" type="curve" smooth="yes"/>
      <point x="206" y="-25" type="line" smooth="yes"/>
      <point x="206" y="-131"/>
      <point x="158" y="-168"/>
      <point x="107" y="-168" type="curve" smooth="yes"/>
    </contour>
  </outline>
</glyph>
<glyph name="approxequal" format="1">
  <advance width="609"/>
  <unicode hex="2248"/>
  <note>
    GF Latin Plus glyph
  </note>
  <outline>
    <contour>
      <point x="80" y="428" type="line"/>
      <point x="110" y="454"/>
      <point x="150" y="468"/>
      <point x="190" y="468" type="curve" smooth="yes"/>
      <point x="260" y="468"/>
      <point x="338" y="428"/>
      <point x="419" y="428" type="curve" smooth="yes"/>
      <point x="476" y="428"/>
      <point x="509" y="450"/>
      <point x="528" y="468" type="curve"/>
      <point x="528" y="504" type="line"/>
      <point x="507" y="484"/>
      <point x="473" y="464"/>
      <point x="418" y="464" type="curve" smooth="yes"/>
      <point x="337" y="464"/>
      <point x="268" y="504"/>
      <point x="189" y="504" type="curve" smooth="yes"/>
      <point x="149" y="504"/>
      <point x="108" y="489"/>
      <point x="80" y="464" type="curve"/>
    </contour>
    <contour>
      <point x="80" y="188" type="line"/>
      <point x="110" y="214"/>
      <point x="150" y="228"/>
      <point x="190" y="228" type="curve" smooth="yes"/>
      <point x="260" y="228"/>
      <point x="338" y="188"/>
      <point x="419" y="188" type="curve" smooth="yes"/>
      <point x="476" y="188"/>
      <point x="509" y="210"/>
      <point x="528" y="228" type="curve"/>
      <point x="528" y="264" type="line"/>
      <point x="507" y="244"/>
      <point x="473" y="224"/>
      <point x="418" y="224" type="curve" smooth="yes"/>
      <point x="337" y="224"/>
      <point x="268" y="264"/>
      <point x="189" y="264" type="curve" smooth="yes"/>
      <point x="149" y="264"/>
      <point x="108" y="249"/>
      <point x="80" y="224" type="curve"/>
    </contour>
  </outline>
</glyph>
<glyph name="greaterequal" format="1">
  <advance width="609"/>
  <unicode hex="2265"/>
  <note>
    GF Latin Plus glyph
  </note>
  <outline>
    <contour>
      <point x="98" y="248" type="line"/>
      <point x="513" y="382" type="line"/>
      <point x="513" y="421" type="line"/>
      <point x="98" y="554" type="line"/>
      <point x="98" y="519" type="line"/>
      <point x="476" y="401" type="line"/>
      <point x="98" y="283" type="line"/>
    </contour>
    <component base="minus" yOffset="-250"/>
  </outline>
</glyph>
<glyph name="lozenge" format="1">
  <advance width="533"/>
  <unicode hex="25CA"/>
  <outline>
    <contour>
      <point x="68" y="373" type="line"/>
      <point x="269" y="689" type="line"/>
      <point x="466" y="373" type="line"/>
      <point x="269" y="48" type="line"/>
    </contour>
    <contour>
      <point x="25" y="373" type="line"/>
      <point x="255" y="0" type="line"/>
      <point x="284" y="0" type="line"/>
      <point x="507" y="373" type="line"/>
      <point x="284" y="732" type="line"/>
      <point x="255" y="732" type="line"/>
    </contour>
  </outline>
</glyph>
<glyph name="fi" format="1">
  <advance width="590"/>
  <unicode hex="FB01"/>
  <note>
    GF Latin Plus glyph
  </note>
  <outline>
    <contour>
      <point x="25" y="497" type="line"/>
      <point x="110" y="497" type="line"/>
      <point x="110" y="0" type="line"/>
      <point x="151" y="0" type="line"/>
      <point x="151" y="497" type="line"/>
      <point x="483" y="497" type="line"/>
      <point x="483" y="532" type="line"/>
      <point x="151" y="532" type="line"/>
      <point x="151" y="608" type="line" smooth="yes"/>
      <point x="151" y="689"/>
      <point x="167" y="734"/>
      <point x="255" y="734" type="curve" smooth="yes"/>
      <point x="285" y="734"/>
      <point x="318" y="731"/>
      <point x="349" y="727" type="curve"/>
      <point x="349" y="756" type="line"/>
      <point x="321" y="763"/>
      <point x="295" y="769"/>
      <point x="248" y="769" type="curve" smooth="yes"/>
      <point x="137" y="769"/>
      <point x="110" y="710"/>
      <point x="110" y="610" type="curve" smooth="yes"/>
      <point x="110" y="532" type="line"/>
      <point x="25" y="523" type="line"/>
    </contour>
    <component base="i" xOffset="377"/>
  </outline>
</glyph>
<glyph name="fl" format="1">
  <advance width="660"/>
  <unicode hex="FB02"/>
  <note>
    GF Latin Plus glyph
  </note>
  <outline>
    <contour>
      <point x="25" y="497" type="line"/>
      <point x="110" y="497" type="line"/>
      <point x="110" y="0" type="line"/>
      <point x="151" y="0" type="line"/>
      <point x="151" y="497" type="line"/>
      <point x="332" y="497" type="line"/>
      <point x="332" y="532" type="line"/>
      <point x="151" y="532" type="line"/>
      <point x="151" y="608" type="line" smooth="yes"/>
      <point x="151" y="689"/>
      <point x="173" y="734"/>
      <point x="285" y="734" type="curve" smooth="yes"/>
      <point x="354" y="734"/>
      <point x="436" y="730"/>
      <point x="504" y="724" type="curve"/>
      <point x="504" y="752" type="line"/>
      <point x="444" y="757"/>
      <point x="375" y="769"/>
      <point x="282" y="769" type="curve" smooth="yes"/>
      <point x="144" y="769"/>
      <point x="110" y="709"/>
      <point x="110" y="608" type="curve" smooth="yes"/>
      <point x="110" y="532" type="line"/>
      <point x="25" y="523" type="line"/>
    </contour>
    <contour>
      <point x="463" y="170" type="line" smooth="yes"/>
      <point x="463" y="38"/>
      <point x="509" y="0"/>
      <point x="588" y="0" type="curve" smooth="yes"/>
      <point x="650" y="0" type="line"/>
      <point x="650" y="28" type="line"/>
      <point x="590" y="35" type="line" smooth="yes"/>
      <point x="537" y="41"/>
      <point x="504" y="60"/>
      <point x="504" y="173" type="curve" smooth="yes"/>
      <point x="504" y="748" type="line"/>
      <point x="463" y="748" type="line"/>
    </contour>
  </outline>
</glyph>
<glyph name="B.smcp" format="1">
  <advance width="504"/>
  <outline>
    <contour>
      <point x="119" y="304" type="line"/>
      <point x="119" y="526" type="line"/>
      <point x="285" y="526" type="line" smooth="yes"/>
      <point x="351" y="526"/>
      <point x="397" y="498"/>
      <point x="393" y="414" type="curve" smooth="yes"/>
      <point x="392" y="346"/>
      <point x="349" y="304"/>
      <point x="290" y="304" type="curve" smooth="yes"/>
    </contour>
    <contour>
      <point x="119" y="34" type="line"/>
      <point x="119" y="275" type="line"/>
      <point x="291" y="275" type="line" smooth="yes"/>
      <point x="359" y="275"/>
      <point x="414" y="234"/>
      <point x="414" y="161" type="curve" smooth="yes"/>
      <point x="414" y="57"/>
      <point x="364" y="34"/>
      <point x="291" y="34" type="curve" smooth="yes"/>
    </contour>
    <contour>
      <point x="79" y="0" type="line"/>
      <point x="293" y="0" type="line" smooth="yes"/>
      <point x="390" y="0"/>
      <point x="454" y="33"/>
      <point x="454" y="156" type="curve" smooth="yes"/>
      <point x="454" y="248"/>
      <point x="386" y="282"/>
      <point x="347" y="291" type="curve"/>
      <point x="391" y="302"/>
      <point x="432" y="347"/>
      <point x="432" y="418" type="curve" smooth="yes"/>
      <point x="432" y="515"/>
      <point x="381" y="560"/>
      <point x="286" y="560" type="curve" smooth="yes"/>
      <point x="79" y="560" type="line"/>
    </contour>
    <contour>
      <point x="250" y="650" type="move" name="top"/>
    </contour>
  </outline>
</glyph>
<glyph name="Eng.smcp" format="1">
  <advance width="567"/>
  <outline>
    <contour>
      <point x="288" y="-165" type="line"/>
      <point x="310" y="-176"/>
      <point x="348" y="-183"/>
      <point x="377" y="-183" type="curve" smooth="yes"/>
      <point x="459" y="-183"/>
      <point x="503" y="-155"/>
      <point x="503" y="-62" type="curve" smooth="yes"/>
      <point x="503" y="23" type="line"/>
      <point x="463" y="23" type="line"/>
      <point x="463" y="-59" type="line" smooth="yes"/>
      <point x="463" y="-133"/>
      <point x="426" y="-150"/>
      <point x="372" y="-150" type="curve" smooth="yes"/>
      <point x="351" y="-150"/>
      <point x="307" y="-143"/>
      <point x="288" y="-138" type="curve"/>
    </contour>
    <component base="N.smcp"/>
  </outline>
</glyph>
<glyph name="F.smcp" format="1">
  <advance width="478"/>
  <outline>
    <contour>
      <point x="79" y="0" type="line"/>
      <point x="119" y="0" type="line"/>
      <point x="119" y="250" type="line"/>
      <point x="399" y="253" type="line"/>
      <point x="399" y="280" type="line"/>
      <point x="119" y="283" type="line"/>
      <point x="119" y="451" type="line" smooth="yes"/>
      <point x="119" y="502"/>
      <point x="148" y="526"/>
      <point x="195" y="526" type="curve" smooth="yes"/>
      <point x="433" y="526" type="line"/>
      <point x="433" y="554" type="line"/>
      <point x="419" y="556"/>
      <point x="196" y="560"/>
      <point x="188" y="560" type="curve" smooth="yes"/>
      <point x="134" y="561"/>
      <point x="79" y="535"/>
      <point x="79" y="455" type="curve" smooth="yes"/>
    </contour>
    <contour>
      <point x="263" y="650" type="move" name="top"/>
    </contour>
  </outline>
</glyph>
<glyph name="J.smcp" format="1">
  <advance width="328"/>
  <outline>
    <contour>
      <point x="34" y="13" type="line"/>
      <point x="56" y="4"/>
      <point x="93" y="-5"/>
      <point x="123" y="-5" type="curve" smooth="yes"/>
      <point x="205" y="-5"/>
      <point x="249" y="25"/>
      <point x="249" y="116" type="curve" smooth="yes"/>
      <point x="249" y="560" type="line"/>
      <point x="209" y="560" type="line"/>
      <point x="209" y="120" type="line" smooth="yes"/>
      <point x="209" y="46"/>
      <point x="172" y="30"/>
      <point x="117" y="30" type="curve" smooth="yes"/>
      <point x="96" y="30"/>
      <point x="54" y="36"/>
      <point x="34" y="42" type="curve"/>
    </contour>
    <contour>
      <point x="229" y="650" type="move" name="top"/>
    </contour>
  </outline>
</glyph>
<glyph name="K.smcp" format="1">
  <advance width="500"/>
  <outline>
    <contour>
      <point x="79" y="0" type="line"/>
      <point x="119" y="0" type="line"/>
      <point x="119" y="263" type="line"/>
      <point x="234" y="263" type="line"/>
      <point x="416" y="0" type="line"/>
      <point x="459" y="0" type="line"/>
      <point x="267" y="281" type="line"/>
      <point x="458" y="560" type="line"/>
      <point x="415" y="560" type="line"/>
      <point x="235" y="297" type="line"/>
      <point x="119" y="297" type="line"/>
      <point x="119" y="560" type="line"/>
      <point x="79" y="560" type="line"/>
    </contour>
    <contour>
      <point x="239" y="650" type="move" name="top"/>
    </contour>
    <contour>
      <point x="239" y="-150" type="move" name="bottom"/>
    </contour>
  </outline>
</glyph>
<glyph name="M.salt.smcp" format="1">
  <advance width="690"/>
  <outline>
    <contour>
      <point x="63" y="0" type="line"/>
      <point x="101" y="0" type="line"/>
      <point x="141" y="491" type="line" smooth="yes"/>
      <point x="142" y="515"/>
      <point x="158" y="530"/>
      <point x="175" y="530" type="curve" smooth="yes"/>
      <point x="188" y="530"/>
      <point x="200" y="519"/>
      <point x="208" y="499" type="curve" smooth="yes"/>
      <point x="295" y="200" type="line" smooth="yes"/>
      <point x="304" y="168"/>
      <point x="326" y="154"/>
      <point x="351" y="154" type="curve" smooth="yes"/>
      <point x="378" y="154"/>
      <point x="399" y="169"/>
      <point x="407" y="200" type="curve" smooth="yes"/>
      <point x="487" y="499" type="line" smooth="yes"/>
      <point x="493" y="519"/>
      <point x="503" y="530"/>
      <point x="514" y="530" type="curve" smooth="yes"/>
      <point x="526" y="530"/>
      <point x="538" y="516"/>
      <point x="539" y="492" type="curve" smooth="yes"/>
      <point x="582" y="0" type="line"/>
      <point x="621" y="0" type="line"/>
      <point x="579" y="493" type="line" smooth="yes"/>
      <point x="575" y="543"/>
      <point x="550" y="567"/>
      <point x="517" y="567" type="curve" smooth="yes"/>
      <point x="488" y="567"/>
      <point x="463" y="551"/>
      <point x="455" y="510" type="curve" smooth="yes"/>
      <point x="377" y="222" type="line" smooth="yes"/>
      <point x="373" y="207"/>
      <point x="364" y="199"/>
      <point x="351" y="199" type="curve" smooth="yes"/>
      <point x="340" y="199"/>
      <point x="331" y="206"/>
      <point x="327" y="222" type="curve" smooth="yes"/>
      <point x="240" y="510" type="line" smooth="yes"/>
      <point x="231" y="551"/>
      <point x="205" y="567"/>
      <point x="173" y="567" type="curve" smooth="yes"/>
      <point x="137" y="567"/>
      <point x="106" y="542"/>
      <point x="103" y="491" type="curve" smooth="yes"/>
    </contour>
    <contour>
      <point x="352" y="650" type="move" name="top"/>
    </contour>
    <contour>
      <point x="350" y="-150" type="move" name="bottom"/>
    </contour>
  </outline>
</glyph>
<glyph name="N.salt" format="1">
  <advance width="704"/>
  <outline>
    <contour>
      <point x="103" y="0" type="line"/>
      <point x="144" y="0" type="line"/>
      <point x="144" y="639" type="line" smooth="yes"/>
      <point x="144" y="687"/>
      <point x="165" y="701"/>
      <point x="196" y="701" type="curve" smooth="yes"/>
      <point x="220" y="701"/>
      <point x="236" y="685"/>
      <point x="246" y="659" type="curve" smooth="yes"/>
      <point x="457" y="61" type="line" smooth="yes"/>
      <point x="473" y="15"/>
      <point x="500" y="-6"/>
      <point x="547" y="-6" type="curve" smooth="yes"/>
      <point x="597" y="-6"/>
      <point x="638" y="16"/>
      <point x="638" y="89" type="curve" smooth="yes"/>
      <point x="638" y="733" type="line"/>
      <point x="597" y="733" type="line"/>
      <point x="597" y="90" type="line" smooth="yes"/>
      <point x="597" y="45"/>
      <point x="573" y="33"/>
      <point x="546" y="33" type="curve" smooth="yes"/>
      <point x="517" y="33"/>
      <point x="502" y="46"/>
      <point x="492" y="73" type="curve" smooth="yes"/>
      <point x="281" y="670" type="line" smooth="yes"/>
      <point x="266" y="716"/>
      <point x="241" y="740"/>
      <point x="193" y="740" type="curve" smooth="yes"/>
      <point x="144" y="740"/>
      <point x="103" y="717"/>
      <point x="103" y="643" type="curve" smooth="yes"/>
    </contour>
    <contour>
      <point x="366" y="810" type="move" name="top"/>
    </contour>
    <contour>
      <point x="364" y="-150" type="move" name="bottom"/>
    </contour>
  </outline>
</glyph>
<glyph name="N.salt.smcp" format="1">
  <advance width="600"/>
  <outline>
    <contour>
      <point x="93" y="0" type="line"/>
      <point x="133" y="0" type="line"/>
      <point x="133" y="483" type="line" smooth="yes"/>
      <point x="133" y="519"/>
      <point x="149" y="529"/>
      <point x="174" y="529" type="curve" smooth="yes"/>
      <point x="193" y="529"/>
      <point x="206" y="518"/>
      <point x="213" y="499" type="curve" smooth="yes"/>
      <point x="380" y="51" type="line" smooth="yes"/>
      <point x="393" y="12"/>
      <point x="417" y="-5"/>
      <point x="458" y="-5" type="curve" smooth="yes"/>
      <point x="501" y="-5"/>
      <point x="536" y="13"/>
      <point x="536" y="71" type="curve" smooth="yes"/>
      <point x="536" y="560" type="line"/>
      <point x="496" y="560" type="line"/>
      <point x="496" y="73" type="line" smooth="yes"/>
      <point x="496" y="40"/>
      <point x="477" y="32"/>
      <point x="457" y="32" type="curve" smooth="yes"/>
      <point x="434" y="32"/>
      <point x="422" y="41"/>
      <point x="414" y="61" type="curve" smooth="yes"/>
      <point x="248" y="508" type="line" smooth="yes"/>
      <point x="235" y="544"/>
      <point x="213" y="565"/>
      <point x="171" y="565" type="curve" smooth="yes"/>
      <point x="128" y="565"/>
      <point x="93" y="547"/>
      <point x="93" y="487" type="curve" smooth="yes"/>
    </contour>
    <contour>
      <point x="313" y="650" type="move" name="top"/>
    </contour>
    <contour>
      <point x="313" y="-150" type="move" name="bottom"/>
    </contour>
  </outline>
</glyph>
<glyph name="Ohorn.smcp" format="1">
  <advance width="575"/>
  <outline>
    <component base="O.smcp"/>
    <component base="horncomb" xOffset="578" yOffset="30"/>
    <contour>
      <point x="287" y="659" type="move" name="top"/>
    </contour>
    <contour>
      <point x="287" y="-150" type="move" name="bottom"/>
    </contour>
  </outline>
</glyph>
<glyph name="R.smcp" format="1">
  <advance width="525"/>
  <outline>
    <contour>
      <point x="79" y="0" type="line"/>
      <point x="119" y="0" type="line"/>
      <point x="119" y="231" type="line"/>
      <point x="177" y="229"/>
      <point x="248" y="227"/>
      <point x="296" y="226" type="curve"/>
      <point x="446" y="0" type="line"/>
      <point x="485" y="0" type="line"/>
      <point x="334" y="231" type="line"/>
      <point x="396" y="239"/>
      <point x="465" y="274"/>
      <point x="465" y="389" type="curve" smooth="yes"/>
      <point x="465" y="512"/>
      <point x="396" y="560"/>
      <point x="313" y="560" type="curve" smooth="yes"/>
      <point x="79" y="560" type="line"/>
    </contour>
    <contour>
      <point x="119" y="259" type="line"/>
      <point x="119" y="526" type="line"/>
      <point x="311" y="526" type="line" smooth="yes"/>
      <point x="382" y="526"/>
      <point x="425" y="478"/>
      <point x="425" y="388" type="curve" smooth="yes"/>
      <point x="425" y="292"/>
      <point x="376" y="259"/>
      <point x="302" y="259" type="curve" smooth="yes"/>
    </contour>
    <contour>
      <point x="241" y="650" type="move" name="top"/>
    </contour>
    <contour>
      <point x="241" y="-150" type="move" name="bottom"/>
    </contour>
  </outline>
</glyph>
<glyph name="Schwa.smcp" format="1">
  <advance width="513"/>
  <outline>
    <contour>
      <point x="255" y="-5" type="curve" smooth="yes"/>
      <point x="373" y="-5"/>
      <point x="449" y="52"/>
      <point x="449" y="282" type="curve" smooth="yes"/>
      <point x="449" y="520"/>
      <point x="383" y="565"/>
      <point x="230" y="565" type="curve" smooth="yes"/>
      <point x="172" y="565"/>
      <point x="124" y="556"/>
      <point x="90" y="548" type="curve"/>
      <point x="90" y="520" type="line"/>
      <point x="113" y="523"/>
      <point x="152" y="531"/>
      <point x="214" y="531" type="curve" smooth="yes"/>
      <point x="366" y="531"/>
      <point x="407" y="488"/>
      <point x="408" y="287" type="curve"/>
      <point x="69" y="287" type="line"/>
      <point x="69" y="255" type="line" smooth="yes"/>
      <point x="69" y="66"/>
      <point x="124" y="-5"/>
    </contour>
    <contour>
      <point x="253" y="30" type="curve" smooth="yes"/>
      <point x="143" y="30"/>
      <point x="108" y="91"/>
      <point x="108" y="255" type="curve"/>
      <point x="407" y="255" type="line"/>
      <point x="405" y="73"/>
      <point x="351" y="30"/>
    </contour>
  </outline>
</glyph>
<glyph name="Tbar.smcp" format="1">
  <advance width="475"/>
  <outline>
    <contour>
      <point x="69" y="285" type="line"/>
      <point x="405" y="285" type="line"/>
      <point x="405" y="311" type="line"/>
      <point x="69" y="311" type="line"/>
    </contour>
    <component base="T.smcp"/>
  </outline>
</glyph>
<glyph name="W.salt" format="1">
  <advance width="997"/>
  <outline>
    <contour>
      <point x="44" y="733" type="line"/>
      <point x="295" y="0" type="line"/>
      <point x="351" y="0" type="line"/>
      <point x="496" y="417" type="line"/>
      <point x="647" y="0" type="line"/>
      <point x="703" y="0" type="line"/>
      <point x="953" y="733" type="line"/>
      <point x="912" y="733" type="line"/>
      <point x="674" y="44" type="line"/>
      <point x="516" y="477" type="line"/>
      <point x="599" y="733" type="line"/>
      <point x="555" y="733" type="line"/>
      <point x="324" y="44" type="line"/>
      <point x="87" y="733" type="line"/>
    </contour>
    <contour>
      <point x="523" y="810" type="move" name="top"/>
    </contour>
  </outline>
</glyph>
<glyph name="W.smcp" format="1">
  <advance width="826"/>
  <outline>
    <contour>
      <point x="46" y="560" type="line"/>
      <point x="202" y="0" type="line"/>
      <point x="249" y="0" type="line"/>
      <point x="413" y="512" type="line"/>
      <point x="577" y="0" type="line"/>
      <point x="624" y="0" type="line"/>
      <point x="780" y="560" type="line"/>
      <point x="738" y="560" type="line"/>
      <point x="597" y="43" type="line"/>
      <point x="435" y="560" type="line"/>
      <point x="392" y="560" type="line"/>
      <point x="229" y="43" type="line"/>
      <point x="88" y="560" type="line"/>
    </contour>
    <contour>
      <point x="412" y="650" type="move" name="top"/>
    </contour>
  </outline>
</glyph>
<glyph name="X.salt" format="1">
  <advance width="604"/>
  <outline>
    <contour>
      <point x="48" y="0" type="line"/>
      <point x="93" y="0" type="line"/>
      <point x="248" y="253" type="line" smooth="yes"/>
      <point x="270" y="290"/>
      <point x="283" y="327"/>
      <point x="283" y="367" type="curve" smooth="yes"/>
      <point x="283" y="413"/>
      <point x="261" y="457"/>
      <point x="237" y="495" type="curve" smooth="yes"/>
      <point x="89" y="733" type="line"/>
      <point x="46" y="733" type="line"/>
      <point x="202" y="478" type="line" smooth="yes"/>
      <point x="225" y="442"/>
      <point x="243" y="405"/>
      <point x="243" y="367" type="curve" smooth="yes"/>
      <point x="243" y="332"/>
      <point x="231" y="300"/>
      <point x="210" y="267" type="curve" smooth="yes"/>
    </contour>
    <contour>
      <point x="514" y="0" type="line"/>
      <point x="559" y="0" type="line"/>
      <point x="395" y="267" type="line" smooth="yes"/>
      <point x="375" y="300"/>
      <point x="366" y="332"/>
      <point x="366" y="367" type="curve" smooth="yes"/>
      <point x="366" y="405"/>
      <point x="385" y="443"/>
      <point x="407" y="478" type="curve" smooth="yes"/>
      <point x="559" y="733" type="line"/>
      <point x="516" y="733" type="line"/>
      <point x="372" y="495" type="line" smooth="yes"/>
      <point x="348" y="456"/>
      <point x="326" y="413"/>
      <point x="326" y="367" type="curve" smooth="yes"/>
      <point x="326" y="328"/>
      <point x="336" y="290"/>
      <point x="360" y="252" type="curve" smooth="yes"/>
    </contour>
    <contour>
      <point x="302" y="810" type="move" name="top"/>
    </contour>
    <contour>
      <point x="302" y="-150" type="move" name="bottom"/>
    </contour>
  </outline>
</glyph>
<glyph name="X.smcp" format="1">
  <advance width="514"/>
  <outline>
    <contour>
      <point x="50" y="0" type="line"/>
      <point x="93" y="0" type="line"/>
      <point x="260" y="255" type="line"/>
      <point x="240" y="288" type="line"/>
    </contour>
    <contour>
      <point x="256" y="302" type="line"/>
      <point x="274" y="264" type="line"/>
      <point x="467" y="560" type="line"/>
      <point x="423" y="560" type="line"/>
    </contour>
    <contour>
      <point x="47" y="560" type="line"/>
      <point x="423" y="0" type="line"/>
      <point x="466" y="0" type="line"/>
      <point x="90" y="560" type="line"/>
    </contour>
    <contour>
      <point x="256" y="650" type="move" name="top"/>
    </contour>
    <contour>
      <point x="256" y="-150" type="move" name="bottom"/>
    </contour>
  </outline>
</glyph>
<glyph name="ampersand.salt" format="1">
  <advance width="945"/>
  <outline>
    <contour>
      <point x="265" y="209" type="line"/>
      <point x="265" y="333"/>
      <point x="312" y="368"/>
      <point x="380" y="368" type="curve" smooth="yes"/>
      <point x="479" y="368" type="line" smooth="yes"/>
      <point x="545" y="368"/>
      <point x="576" y="357"/>
      <point x="576" y="290" type="curve" smooth="yes"/>
      <point x="576" y="223"/>
      <point x="552" y="209"/>
      <point x="479" y="209" type="curve" smooth="yes"/>
    </contour>
    <contour>
      <point x="93" y="311" type="curve" smooth="yes"/>
      <point x="93" y="380" type="line" smooth="yes"/>
      <point x="93" y="494"/>
      <point x="152" y="509"/>
      <point x="272" y="509" type="curve" smooth="yes"/>
      <point x="732" y="509" type="line"/>
      <point x="732" y="193" type="line" smooth="yes"/>
      <point x="732" y="60"/>
      <point x="627" y="35"/>
      <point x="533" y="35" type="curve" smooth="yes"/>
      <point x="417" y="35" type="line" smooth="yes"/>
      <point x="317" y="35"/>
      <point x="265" y="58"/>
      <point x="265" y="177" type="curve"/>
      <point x="484" y="177" type="line" smooth="yes"/>
      <point x="568" y="177"/>
      <point x="614" y="199"/>
      <point x="614" y="288" type="curve" smooth="yes"/>
      <point x="614" y="375"/>
      <point x="565" y="400"/>
      <point x="479" y="400" type="curve" smooth="yes"/>
      <point x="378" y="400" type="line" smooth="yes"/>
      <point x="265" y="400"/>
      <point x="225" y="326"/>
      <point x="224" y="209" type="curve"/>
      <point x="154" y="210"/>
      <point x="93" y="224"/>
    </contour>
    <contour>
      <point x="56" y="310" type="line" smooth="yes"/>
      <point x="56" y="196"/>
      <point x="139" y="176"/>
      <point x="224" y="176" type="curve"/>
      <point x="225" y="25"/>
      <point x="305" y="-1"/>
      <point x="417" y="-1" type="curve" smooth="yes"/>
      <point x="534" y="-1" type="line" smooth="yes"/>
      <point x="650" y="-1"/>
      <point x="772" y="40"/>
      <point x="772" y="193" type="curve" smooth="yes"/>
      <point x="772" y="509" type="line"/>
      <point x="919" y="516" type="line"/>
      <point x="919" y="544" type="line"/>
      <point x="772" y="544" type="line"/>
      <point x="772" y="689" type="line"/>
      <point x="741" y="689" type="line"/>
      <point x="732" y="544" type="line"/>
      <point x="270" y="544" type="line" smooth="yes"/>
      <point x="134" y="544"/>
      <point x="56" y="518"/>
      <point x="56" y="380" type="curve" smooth="yes"/>
    </contour>
  </outline>
</glyph>
<glyph name="braceright.smcp" format="1">
  <advance width="272"/>
  <outline>
    <contour>
      <point x="32" y="-106" type="curve"/>
      <point x="32" y="-139" type="line"/>
      <point x="156" y="-139"/>
      <point x="172" y="-72"/>
      <point x="172" y="-7" type="curve" smooth="yes"/>
      <point x="172" y="204" type="line" smooth="yes"/>
      <point x="172" y="239"/>
      <point x="208" y="260"/>
      <point x="240" y="258" type="curve"/>
      <point x="240" y="295" type="line"/>
      <point x="214" y="298"/>
      <point x="171" y="307"/>
      <point x="171" y="349" type="curve" smooth="yes"/>
      <point x="171" y="523" type="line" smooth="yes"/>
      <point x="171" y="599"/>
      <point x="143" y="665"/>
      <point x="32" y="665" type="curve"/>
      <point x="32" y="631" type="line"/>
      <point x="98" y="631"/>
      <point x="131" y="603"/>
      <point x="131" y="514" type="curve" smooth="yes"/>
      <point x="131" y="345" type="line" smooth="yes"/>
      <point x="131" y="305"/>
      <point x="161" y="282"/>
      <point x="199" y="277" type="curve"/>
      <point x="161" y="272"/>
      <point x="132" y="245"/>
      <point x="132" y="211" type="curve" smooth="yes"/>
      <point x="132" y="1" type="line" smooth="yes"/>
      <point x="132" y="-80"/>
      <point x="100" y="-106"/>
    </contour>
  </outline>
</glyph>
<glyph name="bracketleft.smcp" format="1">
  <advance width="290"/>
  <outline>
    <contour>
      <point x="97" y="-2" type="line" smooth="yes"/>
      <point x="97" y="-52"/>
      <point x="111" y="-139"/>
      <point x="214" y="-139" type="curve" smooth="yes"/>
      <point x="260" y="-139" type="line"/>
      <point x="260" y="-105" type="line"/>
      <point x="222" y="-105" type="line" smooth="yes"/>
      <point x="160" y="-105"/>
      <point x="137" y="-59"/>
      <point x="137" y="-1" type="curve" smooth="yes"/>
      <point x="137" y="527" type="line" smooth="yes"/>
      <point x="137" y="602"/>
      <point x="171" y="631"/>
      <point x="222" y="631" type="curve" smooth="yes"/>
      <point x="260" y="631" type="line"/>
      <point x="260" y="665" type="line"/>
      <point x="214" y="665" type="line" smooth="yes"/>
      <point x="114" y="665"/>
      <point x="97" y="584"/>
      <point x="97" y="530" type="curve" smooth="yes"/>
    </contour>
  </outline>
</glyph>
<glyph name="bracketright.smcp" format="1">
  <advance width="290"/>
  <outline>
    <contour>
      <point x="32" y="-105" type="line"/>
      <point x="32" y="-139" type="line"/>
      <point x="77" y="-139" type="line" smooth="yes"/>
      <point x="181" y="-139"/>
      <point x="195" y="-52"/>
      <point x="195" y="-2" type="curve" smooth="yes"/>
      <point x="195" y="530" type="line" smooth="yes"/>
      <point x="195" y="584"/>
      <point x="178" y="665"/>
      <point x="77" y="665" type="curve" smooth="yes"/>
      <point x="32" y="665" type="line"/>
      <point x="32" y="631" type="line"/>
      <point x="70" y="631" type="line" smooth="yes"/>
      <point x="120" y="631"/>
      <point x="155" y="602"/>
      <point x="155" y="527" type="curve" smooth="yes"/>
      <point x="155" y="-1" type="line" smooth="yes"/>
      <point x="155" y="-59"/>
      <point x="132" y="-105"/>
      <point x="70" y="-105" type="curve" smooth="yes"/>
    </contour>
  </outline>
</glyph>
<glyph name="c.superior" format="1">
  <advance width="368"/>
  <outline>
    <contour>
      <point x="48" y="476" type="curve" smooth="yes"/>
      <point x="48" y="312"/>
      <point x="116" y="276"/>
      <point x="205" y="276" type="curve" smooth="yes"/>
      <point x="257" y="276"/>
      <point x="305" y="280"/>
      <point x="339" y="284" type="curve"/>
      <point x="339" y="305" type="line"/>
      <point x="212" y="305" type="line" smooth="yes"/>
      <point x="138" y="305"/>
      <point x="85" y="337"/>
      <point x="85" y="473" type="curve" smooth="yes"/>
      <point x="85" y="616"/>
      <point x="133" y="646"/>
      <point x="212" y="646" type="curve" smooth="yes"/>
      <point x="333" y="646" type="line"/>
      <point x="333" y="668" type="line"/>
      <point x="293" y="674"/>
      <point x="242" y="676"/>
      <point x="205" y="676" type="curve" smooth="yes"/>
      <point x="111" y="676"/>
      <point x="48" y="639"/>
    </contour>
    <contour>
      <point x="203" y="758" type="move" name="top"/>
    </contour>
    <contour>
      <point x="203" y="169" type="move" name="bottom"/>
    </contour>
  </outline>
</glyph>
<glyph name="c_h" format="1">
  <advance width="1065"/>
  <outline>
    <contour>
      <point x="313" y="-6" type="curve" smooth="yes"/>
      <point x="513" y="-6"/>
      <point x="608" y="69"/>
      <point x="608" y="224" type="curve" smooth="yes"/>
      <point x="608" y="444" type="line"/>
      <point x="677" y="481"/>
      <point x="728" y="504"/>
      <point x="810" y="504" type="curve" smooth="yes"/>
      <point x="893" y="504"/>
      <point x="941" y="441"/>
      <point x="941" y="365" type="curve" smooth="yes"/>
      <point x="941" y="0" type="line"/>
      <point x="982" y="0" type="line"/>
      <point x="982" y="368" type="line" smooth="yes"/>
      <point x="982" y="459"/>
      <point x="926" y="541"/>
      <point x="818" y="541" type="curve" smooth="yes"/>
      <point x="739" y="541"/>
      <point x="664" y="508"/>
      <point x="608" y="471" type="curve"/>
      <point x="608" y="763" type="line"/>
      <point x="567" y="763" type="line"/>
      <point x="567" y="225" type="line" smooth="yes"/>
      <point x="567" y="83"/>
      <point x="482" y="28"/>
      <point x="316" y="28" type="curve" smooth="yes"/>
      <point x="197" y="28"/>
      <point x="107" y="72"/>
      <point x="107" y="263" type="curve" smooth="yes"/>
      <point x="107" y="461"/>
      <point x="173" y="503"/>
      <point x="280" y="503" type="curve" smooth="yes"/>
      <point x="444" y="503" type="line"/>
      <point x="444" y="529" type="line"/>
      <point x="391" y="535"/>
      <point x="320" y="537"/>
      <point x="274" y="537" type="curve" smooth="yes"/>
      <point x="150" y="537"/>
      <point x="66" y="488"/>
      <point x="66" y="266" type="curve" smooth="yes"/>
      <point x="66" y="44"/>
      <point x="173" y="-6"/>
    </contour>
  </outline>
</glyph>
<glyph name="c_k" format="1">
  <advance width="943"/>
  <outline>
    <contour>
      <point x="549" y="0" type="line"/>
      <point x="590" y="0" type="line"/>
      <point x="590" y="194" type="line"/>
      <point x="669" y="278" type="line"/>
      <point x="871" y="0" type="line"/>
      <point x="918" y="0" type="line"/>
      <point x="699" y="303" type="line"/>
      <point x="908" y="532" type="line"/>
      <point x="862" y="532" type="line"/>
      <point x="590" y="240" type="line"/>
      <point x="590" y="763" type="line"/>
      <point x="549" y="763" type="line"/>
      <point x="549" y="205" type="line"/>
      <point x="443" y="105"/>
      <point x="338" y="28"/>
      <point x="251" y="28" type="curve" smooth="yes"/>
      <point x="164" y="28"/>
      <point x="107" y="72"/>
      <point x="107" y="263" type="curve" smooth="yes"/>
      <point x="107" y="461"/>
      <point x="173" y="503"/>
      <point x="280" y="503" type="curve" smooth="yes"/>
      <point x="444" y="503" type="line"/>
      <point x="444" y="529" type="line"/>
      <point x="391" y="535"/>
      <point x="320" y="537"/>
      <point x="274" y="537" type="curve" smooth="yes"/>
      <point x="150" y="537"/>
      <point x="66" y="488"/>
      <point x="66" y="266" type="curve" smooth="yes"/>
      <point x="66" y="44"/>
      <point x="139" y="-6"/>
      <point x="246" y="-6" type="curve" smooth="yes"/>
      <point x="354" y="-6"/>
      <point x="452" y="72"/>
      <point x="549" y="163" type="curve"/>
    </contour>
  </outline>
</glyph>
<glyph name="c_t" format="1">
  <advance width="824"/>
  <outline>
    <contour>
      <point x="452" y="3" type="curve"/>
      <point x="452" y="28" type="line"/>
      <point x="280" y="28" type="line" smooth="yes"/>
      <point x="180" y="28"/>
      <point x="107" y="72"/>
      <point x="107" y="263" type="curve" smooth="yes"/>
      <point x="107" y="461"/>
      <point x="184" y="503"/>
      <point x="309" y="503" type="curve" smooth="yes"/>
      <point x="580" y="503" type="line"/>
      <point x="577" y="162" type="line" smooth="yes"/>
      <point x="576" y="47"/>
      <point x="626" y="0"/>
      <point x="717" y="0" type="curve" smooth="yes"/>
      <point x="778" y="0" type="line"/>
      <point x="778" y="29" type="line"/>
      <point x="713" y="35" type="line" smooth="yes"/>
      <point x="676" y="39"/>
      <point x="618" y="52"/>
      <point x="618" y="163" type="curve" smooth="yes"/>
      <point x="618" y="497" type="line"/>
      <point x="786" y="497" type="line"/>
      <point x="786" y="532" type="line"/>
      <point x="618" y="532" type="line"/>
      <point x="618" y="681" type="line"/>
      <point x="588" y="681" type="line"/>
      <point x="580" y="530" type="line"/>
      <point x="519" y="533"/>
      <point x="350" y="537"/>
      <point x="306" y="537" type="curve" smooth="yes"/>
      <point x="162" y="537"/>
      <point x="66" y="488"/>
      <point x="66" y="266" type="curve" smooth="yes"/>
      <point x="66" y="44"/>
      <point x="156" y="-6"/>
      <point x="273" y="-6" type="curve" smooth="yes"/>
      <point x="344" y="-6"/>
      <point x="406" y="-1"/>
    </contour>
  </outline>
</glyph>
<glyph name="caroncomb.alt" format="1">
  <note>
    GF Latin Plus glyph
  </note>
  <outline>
    <contour>
      <point x="-28" y="582" type="line"/>
      <point x="2" y="582" type="line"/>
      <point x="6" y="725" type="line"/>
      <point x="6" y="783" type="line"/>
      <point x="-33" y="783" type="line"/>
      <point x="-33" y="725" type="line"/>
    </contour>
    <contour>
      <point x="-89" y="650" type="move" name="_altcaron"/>
    </contour>
  </outline>
</glyph>
<glyph name="cedi.smcp" format="1">
  <advance width="517"/>
  <outline>
    <contour>
      <point x="312" y="-80" type="line"/>
      <point x="312" y="605" type="line"/>
      <point x="286" y="605" type="line"/>
      <point x="286" y="-80" type="line"/>
    </contour>
    <contour>
      <point x="70" y="278" type="curve" smooth="yes"/>
      <point x="70" y="48"/>
      <point x="141" y="-5"/>
      <point x="284" y="-5" type="curve" smooth="yes"/>
      <point x="360" y="-5"/>
      <point x="425" y="6"/>
      <point x="460" y="20" type="curve"/>
      <point x="460" y="46" type="line"/>
      <point x="405" y="32"/>
      <point x="365" y="29"/>
      <point x="294" y="29" type="curve" smooth="yes"/>
      <point x="157" y="29"/>
      <point x="107" y="75"/>
      <point x="107" y="276" type="curve" smooth="yes"/>
      <point x="107" y="494"/>
      <point x="180" y="524"/>
      <point x="307" y="524" type="curve" smooth="yes"/>
      <point x="364" y="524"/>
      <point x="418" y="514"/>
      <point x="461" y="505" type="curve"/>
      <point x="461" y="532" type="line"/>
      <point x="434" y="543"/>
      <point x="366" y="558"/>
      <point x="300" y="558" type="curve" smooth="yes"/>
      <point x="163" y="558"/>
      <point x="70" y="513"/>
    </contour>
  </outline>
</glyph>
<glyph name="circumflexcomb.case" format="1">
  <note>
    GF Latin Plus glyph
  </note>
  <outline>
    <component base="circumflex" xOffset="-475" yOffset="160"/>
    <contour>
      <point x="-269" y="810" type="move" name="_top"/>
    </contour>
  </outline>
</glyph>
<glyph name="circumflexcomb_tildecomb" format="1">
  <outline>
    <contour>
      <point x="-429" y="772" type="curve"/>
      <point x="-407" y="772" type="line"/>
      <point x="-407" y="807"/>
      <point x="-379" y="822"/>
      <point x="-349" y="822" type="curve" smooth="yes"/>
      <point x="-292" y="822"/>
      <point x="-248" y="773"/>
      <point x="-191" y="773" type="curve" smooth="yes"/>
      <point x="-140" y="773"/>
      <point x="-110" y="801"/>
      <point x="-109" y="846" type="curve"/>
      <point x="-131" y="846" type="line"/>
      <point x="-131" y="813"/>
      <point x="-158" y="796"/>
      <point x="-193" y="796" type="curve" smooth="yes"/>
      <point x="-246" y="796"/>
      <point x="-289" y="846"/>
      <point x="-350" y="846" type="curve" smooth="yes"/>
      <point x="-386" y="846"/>
      <point x="-428" y="829"/>
    </contour>
    <contour>
      <point x="-282" y="724" type="line"/>
      <point x="-411" y="631" type="line"/>
      <point x="-384" y="631" type="line"/>
      <point x="-267" y="702" type="line"/>
      <point x="-162" y="631" type="line"/>
      <point x="-134" y="631" type="line"/>
      <point x="-251" y="724" type="line"/>
    </contour>
    <contour>
      <point x="-269" y="650" type="move" name="_top"/>
    </contour>
  </outline>
</glyph>
<glyph name="colonsign.smcp" format="1">
  <advance width="517"/>
  <outline>
    <contour>
      <point x="224" y="-84" type="line"/>
      <point x="497" y="605" type="line"/>
      <point x="470" y="605" type="line"/>
      <point x="197" y="-84" type="line"/>
    </contour>
    <contour>
      <point x="110" y="-84" type="line"/>
      <point x="383" y="605" type="line"/>
      <point x="356" y="605" type="line"/>
      <point x="83" y="-84" type="line"/>
    </contour>
    <contour>
      <point x="69" y="286" type="curve" smooth="yes"/>
      <point x="69" y="54"/>
      <point x="140" y="-5"/>
      <point x="284" y="-5" type="curve" smooth="yes"/>
      <point x="358" y="-5"/>
      <point x="423" y="6"/>
      <point x="459" y="20" type="curve"/>
      <point x="459" y="45" type="line"/>
      <point x="403" y="32"/>
      <point x="363" y="28"/>
      <point x="292" y="28" type="curve" smooth="yes"/>
      <point x="156" y="28"/>
      <point x="106" y="81"/>
      <point x="106" y="284" type="curve" smooth="yes"/>
      <point x="106" y="503"/>
      <point x="180" y="539"/>
      <point x="313" y="539" type="curve" smooth="yes"/>
      <point x="367" y="539"/>
      <point x="414" y="530"/>
      <point x="453" y="521" type="curve"/>
      <point x="460" y="546" type="line"/>
      <point x="434" y="556"/>
      <point x="384" y="572"/>
      <point x="306" y="572" type="curve" smooth="yes"/>
      <point x="166" y="572"/>
      <point x="69" y="522"/>
    </contour>
  </outline>
</glyph>
<glyph name="commaturnedabovecomb" format="1">
  <note>
    GF Latin Plus glyph
  </note>
  <outline>
    <contour>
      <point x="-238" y="731" type="line"/>
      <point x="-238" y="748" type="line"/>
      <point x="-268" y="748" type="line" smooth="yes"/>
      <point x="-355" y="748"/>
      <point x="-374" y="711"/>
      <point x="-374" y="611" type="curve"/>
      <point x="-347" y="611" type="line"/>
      <point x="-349" y="712"/>
      <point x="-320" y="722"/>
      <point x="-269" y="727" type="curve" smooth="yes"/>
    </contour>
    <contour>
      <point x="-329" y="650" type="move" name="_top"/>
    </contour>
  </outline>
</glyph>
<glyph name="d.salt" format="1">
  <advance width="564"/>
  <outline>
    <contour>
      <point x="105" y="259" type="curve" smooth="yes"/>
      <point x="105" y="415"/>
      <point x="140" y="500"/>
      <point x="256" y="500" type="curve" smooth="yes"/>
      <point x="325" y="500"/>
      <point x="371" y="491"/>
      <point x="446" y="471" type="curve"/>
      <point x="446" y="28" type="line"/>
      <point x="445" y="27"/>
      <point x="258" y="26"/>
      <point x="256" y="26" type="curve" smooth="yes"/>
      <point x="143" y="26"/>
      <point x="105" y="124"/>
    </contour>
    <contour>
      <point x="64" y="258" type="curve" smooth="yes"/>
      <point x="64" y="86"/>
      <point x="124" y="-11"/>
      <point x="254" y="-11" type="curve" smooth="yes"/>
      <point x="360" y="-11"/>
      <point x="438" y="-4"/>
      <point x="487" y="7" type="curve"/>
      <point x="487" y="763" type="line"/>
      <point x="446" y="763" type="line"/>
      <point x="446" y="499" type="line"/>
      <point x="386" y="524"/>
      <point x="294" y="536"/>
      <point x="250" y="536" type="curve" smooth="yes"/>
      <point x="96" y="536"/>
      <point x="64" y="420"/>
    </contour>
    <contour>
      <point x="507" y="650" type="move" name="altcaron"/>
    </contour>
    <contour>
      <point x="441" y="830" type="move" name="top"/>
    </contour>
    <contour>
      <point x="288" y="-150" type="move" name="bottom"/>
    </contour>
  </outline>
</glyph>
<glyph name="d.superior" format="1">
  <advance width="430"/>
  <outline>
    <contour>
      <point x="85" y="474" type="curve" smooth="yes"/>
      <point x="85" y="605"/>
      <point x="120" y="647"/>
      <point x="208" y="647" type="curve" smooth="yes"/>
      <point x="257" y="647"/>
      <point x="289" y="637"/>
      <point x="332" y="626" type="curve"/>
      <point x="332" y="344" type="line"/>
      <point x="298" y="326"/>
      <point x="255" y="306"/>
      <point x="201" y="306" type="curve" smooth="yes"/>
      <point x="118" y="306"/>
      <point x="85" y="357"/>
    </contour>
    <contour>
      <point x="48" y="474" type="curve" smooth="yes"/>
      <point x="48" y="340"/>
      <point x="92" y="276"/>
      <point x="192" y="276" type="curve" smooth="yes"/>
      <point x="241" y="276"/>
      <point x="311" y="302"/>
      <point x="332" y="321" type="curve"/>
      <point x="341" y="280" type="line"/>
      <point x="369" y="280" type="line"/>
      <point x="369" y="856" type="line"/>
      <point x="332" y="856" type="line"/>
      <point x="332" y="652" type="line"/>
      <point x="297" y="663"/>
      <point x="248" y="676"/>
      <point x="200" y="676" type="curve" smooth="yes"/>
      <point x="91" y="676"/>
      <point x="48" y="620"/>
    </contour>
    <contour>
      <point x="384" y="758" type="move" name="altcaron"/>
    </contour>
    <contour>
      <point x="218" y="169" type="move" name="bottom"/>
    </contour>
  </outline>
</glyph>
<glyph name="dblgravecomb.case" format="1">
  <note>
    GF Latin Plus glyph
  </note>
  <outline>
    <contour>
      <point x="-465" y="925" type="line"/>
      <point x="-334" y="791" type="line"/>
      <point x="-310" y="791" type="line"/>
      <point x="-426" y="925" type="line"/>
    </contour>
    <contour>
      <point x="-337" y="925" type="line"/>
      <point x="-206" y="791" type="line"/>
      <point x="-182" y="791" type="line"/>
      <point x="-298" y="925" type="line"/>
    </contour>
    <contour>
      <point x="-274" y="810" type="move" name="_top"/>
    </contour>
  </outline>
</glyph>
<glyph name="dblgravecomb" format="1">
  <note>
    GF Latin Plus glyph
  </note>
  <outline>
    <contour>
      <point x="-459" y="765" type="line"/>
      <point x="-329" y="631" type="line"/>
      <point x="-305" y="631" type="line"/>
      <point x="-420" y="765" type="line"/>
    </contour>
    <contour>
      <point x="-331" y="765" type="line"/>
      <point x="-201" y="631" type="line"/>
      <point x="-177" y="631" type="line"/>
      <point x="-292" y="765" type="line"/>
    </contour>
    <contour>
      <point x="-274" y="650" type="move" name="_top"/>
    </contour>
  </outline>
</glyph>
<glyph name="dotbelowcomb" format="1">
  <note>
    GF Latin Plus glyph
  </note>
  <outline>
    <contour>
      <point x="-292" y="-188" type="line" smooth="yes"/>
      <point x="-292" y="-196"/>
      <point x="-287" y="-201"/>
      <point x="-279" y="-201" type="curve" smooth="yes"/>
      <point x="-260" y="-201" type="line" smooth="yes"/>
      <point x="-253" y="-201"/>
      <point x="-247" y="-196"/>
      <point x="-247" y="-188" type="curve" smooth="yes"/>
      <point x="-247" y="-121" type="line" smooth="yes"/>
      <point x="-247" y="-113"/>
      <point x="-252" y="-108"/>
      <point x="-260" y="-108" type="curve" smooth="yes"/>
      <point x="-279" y="-108" type="line" smooth="yes"/>
      <point x="-288" y="-108"/>
      <point x="-292" y="-112"/>
      <point x="-292" y="-121" type="curve" smooth="yes"/>
    </contour>
    <contour>
      <point x="-267" y="-150" type="move" name="_bottom"/>
    </contour>
  </outline>
</glyph>
<glyph name="e.superior" format="1">
  <advance width="408"/>
  <outline>
    <contour>
      <point x="85" y="484" type="line"/>
      <point x="85" y="613"/>
      <point x="113" y="648"/>
      <point x="213" y="648" type="curve" smooth="yes"/>
      <point x="296" y="648"/>
      <point x="326" y="626"/>
      <point x="326" y="549" type="curve" smooth="yes"/>
      <point x="326" y="500"/>
      <point x="301" y="484"/>
      <point x="249" y="484" type="curve" smooth="yes"/>
    </contour>
    <contour>
      <point x="48" y="478" type="curve" smooth="yes"/>
      <point x="48" y="325"/>
      <point x="86" y="276"/>
      <point x="209" y="276" type="curve" smooth="yes"/>
      <point x="264" y="276"/>
      <point x="302" y="278"/>
      <point x="350" y="283" type="curve"/>
      <point x="350" y="305" type="line"/>
      <point x="217" y="305" type="line" smooth="yes"/>
      <point x="110" y="305"/>
      <point x="86" y="346"/>
      <point x="85" y="460" type="curve"/>
      <point x="251" y="460" type="line" smooth="yes"/>
      <point x="318" y="460"/>
      <point x="359" y="484"/>
      <point x="359" y="549" type="curve" smooth="yes"/>
      <point x="359" y="647"/>
      <point x="312" y="676"/>
      <point x="212" y="676" type="curve" smooth="yes"/>
      <point x="92" y="676"/>
      <point x="48" y="632"/>
    </contour>
    <contour>
      <point x="203" y="758" type="move" name="top"/>
    </contour>
    <contour>
      <point x="343" y="297" type="move" name="ogonek"/>
    </contour>
    <contour>
      <point x="203" y="169" type="move" name="bottom"/>
    </contour>
  </outline>
</glyph>
<glyph name="eight.oldstyle" format="1">
  <advance width="609"/>
  <outline>
    <contour>
      <point x="130" y="496" type="curve" smooth="yes"/>
      <point x="130" y="578" type="line" smooth="yes"/>
      <point x="130" y="663"/>
      <point x="164" y="702"/>
      <point x="249" y="702" type="curve" smooth="yes"/>
      <point x="374" y="702" type="line" smooth="yes"/>
      <point x="446" y="702"/>
      <point x="481" y="669"/>
      <point x="481" y="578" type="curve" smooth="yes"/>
      <point x="481" y="496" type="line" smooth="yes"/>
      <point x="481" y="451"/>
      <point x="449" y="392"/>
      <point x="367" y="392" type="curve" smooth="yes"/>
      <point x="248" y="392" type="line" smooth="yes"/>
      <point x="167" y="392"/>
      <point x="130" y="440"/>
    </contour>
    <contour>
      <point x="116" y="138" type="curve" smooth="yes"/>
      <point x="116" y="246" type="line" smooth="yes"/>
      <point x="116" y="330"/>
      <point x="204" y="356"/>
      <point x="248" y="356" type="curve" smooth="yes"/>
      <point x="367" y="356" type="line" smooth="yes"/>
      <point x="460" y="356"/>
      <point x="494" y="326"/>
      <point x="494" y="246" type="curve" smooth="yes"/>
      <point x="494" y="138" type="line" smooth="yes"/>
      <point x="494" y="70"/>
      <point x="453" y="36"/>
      <point x="373" y="36" type="curve" smooth="yes"/>
      <point x="249" y="36" type="line" smooth="yes"/>
      <point x="174" y="36"/>
      <point x="116" y="64"/>
    </contour>
    <contour>
      <point x="75" y="137" type="line" smooth="yes"/>
      <point x="75" y="43"/>
      <point x="140" y="-1"/>
      <point x="245" y="-1" type="curve" smooth="yes"/>
      <point x="378" y="-1" type="line" smooth="yes"/>
      <point x="477" y="-1"/>
      <point x="535" y="44"/>
      <point x="535" y="137" type="curve" smooth="yes"/>
      <point x="535" y="253" type="line" smooth="yes"/>
      <point x="535" y="314"/>
      <point x="503" y="368"/>
      <point x="442" y="379" type="curve"/>
      <point x="492" y="396"/>
      <point x="521" y="449"/>
      <point x="521" y="500" type="curve" smooth="yes"/>
      <point x="521" y="585" type="line" smooth="yes"/>
      <point x="521" y="694"/>
      <point x="470" y="738"/>
      <point x="379" y="738" type="curve" smooth="yes"/>
      <point x="244" y="738" type="line" smooth="yes"/>
      <point x="155" y="738"/>
      <point x="90" y="694"/>
      <point x="90" y="585" type="curve" smooth="yes"/>
      <point x="90" y="500" type="line" smooth="yes"/>
      <point x="90" y="447"/>
      <point x="113" y="397"/>
      <point x="176" y="370" type="curve"/>
      <point x="138" y="362"/>
      <point x="75" y="324"/>
      <point x="75" y="245" type="curve" smooth="yes"/>
    </contour>
  </outline>
</glyph>
<glyph name="euro.smcp" format="1">
  <advance width="517"/>
  <outline>
    <contour>
      <point x="32" y="326" type="line"/>
      <point x="95" y="323" type="line"/>
      <point x="123" y="323" type="line"/>
      <point x="364" y="325" type="line"/>
      <point x="364" y="346" type="line"/>
      <point x="123" y="349" type="line"/>
      <point x="96" y="349" type="line"/>
      <point x="32" y="345" type="line"/>
    </contour>
    <contour>
      <point x="32" y="205" type="line"/>
      <point x="96" y="201" type="line"/>
      <point x="123" y="201" type="line"/>
      <point x="364" y="204" type="line"/>
      <point x="364" y="225" type="line"/>
      <point x="123" y="227" type="line"/>
      <point x="95" y="227" type="line"/>
      <point x="32" y="226" type="line"/>
    </contour>
    <component base="C.smcp" xOffset="22"/>
  </outline>
</glyph>
<glyph name="exclam.smcp" format="1">
  <advance width="236"/>
  <outline>
    <contour>
      <point x="98" y="559" type="line"/>
      <point x="104" y="155" type="line"/>
      <point x="133" y="155" type="line"/>
      <point x="139" y="559" type="line"/>
    </contour>
    <component base="period" xOffset="27"/>
  </outline>
</glyph>
<glyph name="f.salt" format="1">
  <advance width="336"/>
  <outline>
    <contour>
      <point x="92" y="0" type="line"/>
      <point x="133" y="0" type="line"/>
      <point x="133" y="497" type="line"/>
      <point x="313" y="497" type="line"/>
      <point x="313" y="532" type="line"/>
      <point x="133" y="532" type="line"/>
      <point x="133" y="609" type="line" smooth="yes"/>
      <point x="133" y="689"/>
      <point x="149" y="734"/>
      <point x="236" y="734" type="curve" smooth="yes"/>
      <point x="330" y="734" type="line"/>
      <point x="330" y="762" type="line"/>
      <point x="303" y="765"/>
      <point x="278" y="769"/>
      <point x="232" y="769" type="curve" smooth="yes"/>
      <point x="119" y="769"/>
      <point x="92" y="707"/>
      <point x="92" y="608" type="curve" smooth="yes"/>
    </contour>
    <contour>
      <point x="221" y="853" type="move" name="top"/>
    </contour>
  </outline>
</glyph>
<glyph name="f.superior" format="1">
  <advance width="268"/>
  <outline>
    <contour>
      <point x="19" y="641" type="line"/>
      <point x="82" y="641" type="line"/>
      <point x="82" y="280" type="line"/>
      <point x="119" y="280" type="line"/>
      <point x="119" y="641" type="line"/>
      <point x="253" y="641" type="line"/>
      <point x="253" y="672" type="line"/>
      <point x="119" y="672" type="line"/>
      <point x="119" y="739" type="line" smooth="yes"/>
      <point x="119" y="796"/>
      <point x="131" y="828"/>
      <point x="194" y="828" type="curve" smooth="yes"/>
      <point x="264" y="828" type="line"/>
      <point x="264" y="853" type="line"/>
      <point x="244" y="856"/>
      <point x="224" y="859"/>
      <point x="190" y="859" type="curve" smooth="yes"/>
      <point x="104" y="859"/>
      <point x="82" y="814"/>
      <point x="82" y="738" type="curve" smooth="yes"/>
      <point x="82" y="672" type="line"/>
      <point x="19" y="665" type="line"/>
    </contour>
  </outline>
</glyph>
<glyph name="five.oldstyle" format="1">
  <advance width="591"/>
  <outline>
    <contour>
      <point x="87" y="-198" type="line"/>
      <point x="147" y="-204"/>
      <point x="233" y="-206"/>
      <point x="321" y="-206" type="curve" smooth="yes"/>
      <point x="444" y="-206"/>
      <point x="539" y="-147"/>
      <point x="539" y="-33" type="curve" smooth="yes"/>
      <point x="539" y="76" type="line" smooth="yes"/>
      <point x="539" y="169"/>
      <point x="473" y="236"/>
      <point x="358" y="236" type="curve" smooth="yes"/>
      <point x="286" y="236" type="line" smooth="yes"/>
      <point x="213" y="236"/>
      <point x="170" y="202"/>
      <point x="156" y="172" type="curve"/>
      <point x="172" y="495" type="line"/>
      <point x="517" y="495" type="line"/>
      <point x="517" y="532" type="line"/>
      <point x="135" y="532" type="line"/>
      <point x="114" y="100" type="line"/>
      <point x="152" y="100" type="line"/>
      <point x="165" y="169"/>
      <point x="209" y="200"/>
      <point x="280" y="200" type="curve" smooth="yes"/>
      <point x="350" y="200" type="line" smooth="yes"/>
      <point x="448" y="200"/>
      <point x="498" y="150"/>
      <point x="498" y="70" type="curve" smooth="yes"/>
      <point x="498" y="-27" type="line" smooth="yes"/>
      <point x="498" y="-119"/>
      <point x="418" y="-168"/>
      <point x="320" y="-168" type="curve" smooth="yes"/>
      <point x="87" y="-168" type="line"/>
    </contour>
  </outline>
</glyph>
<glyph name="five.smcp" format="1">
  <advance width="543"/>
  <outline>
    <contour>
      <point x="88" y="3" type="line"/>
      <point x="142" y="-2"/>
      <point x="217" y="-3"/>
      <point x="294" y="-3" type="curve" smooth="yes"/>
      <point x="395" y="-3"/>
      <point x="472" y="41"/>
      <point x="472" y="129" type="curve" smooth="yes"/>
      <point x="472" y="212" type="line" smooth="yes"/>
      <point x="472" y="284"/>
      <point x="419" y="334"/>
      <point x="326" y="334" type="curve" smooth="yes"/>
      <point x="252" y="334" type="line" smooth="yes"/>
      <point x="195" y="334"/>
      <point x="160" y="310"/>
      <point x="149" y="288" type="curve"/>
      <point x="161" y="526" type="line"/>
      <point x="453" y="526" type="line"/>
      <point x="453" y="560" type="line"/>
      <point x="126" y="560" type="line"/>
      <point x="109" y="229" type="line"/>
      <point x="147" y="229" type="line"/>
      <point x="157" y="280"/>
      <point x="191" y="303"/>
      <point x="245" y="303" type="curve" smooth="yes"/>
      <point x="316" y="303" type="line" smooth="yes"/>
      <point x="392" y="303"/>
      <point x="432" y="266"/>
      <point x="432" y="206" type="curve" smooth="yes"/>
      <point x="432" y="135" type="line" smooth="yes"/>
      <point x="432" y="66"/>
      <point x="368" y="31"/>
      <point x="292" y="31" type="curve" smooth="yes"/>
      <point x="88" y="31" type="line"/>
    </contour>
  </outline>
</glyph>
<glyph name="five.tnum" format="1">
  <advance width="609"/>
  <outline>
    <contour>
      <point x="99" y="3" type="line"/>
      <point x="164" y="-3"/>
      <point x="257" y="-4"/>
      <point x="353" y="-4" type="curve" smooth="yes"/>
      <point x="476" y="-4"/>
      <point x="571" y="54"/>
      <point x="571" y="168" type="curve" smooth="yes"/>
      <point x="571" y="277" type="line" smooth="yes"/>
      <point x="571" y="370"/>
      <point x="504" y="437"/>
      <point x="389" y="437" type="curve" smooth="yes"/>
      <point x="298" y="437" type="line" smooth="yes"/>
      <point x="225" y="437"/>
      <point x="182" y="404"/>
      <point x="168" y="373" type="curve"/>
      <point x="183" y="696" type="line"/>
      <point x="549" y="696" type="line"/>
      <point x="549" y="733" type="line"/>
      <point x="147" y="733" type="line"/>
      <point x="126" y="301" type="line"/>
      <point x="164" y="301" type="line"/>
      <point x="177" y="370"/>
      <point x="221" y="401"/>
      <point x="291" y="401" type="curve" smooth="yes"/>
      <point x="381" y="401" type="line" smooth="yes"/>
      <point x="479" y="401"/>
      <point x="530" y="351"/>
      <point x="530" y="272" type="curve" smooth="yes"/>
      <point x="530" y="174" type="line" smooth="yes"/>
      <point x="530" y="82"/>
      <point x="450" y="33"/>
      <point x="352" y="33" type="curve" smooth="yes"/>
      <point x="99" y="33" type="line"/>
    </contour>
  </outline>
</glyph>
<glyph name="florin.smcp" format="1">
  <advance width="517"/>
  <outline>
    <contour>
      <point x="32" y="-149" type="line"/>
      <point x="46" y="-153"/>
      <point x="74" y="-156"/>
      <point x="97" y="-156" type="curve" smooth="yes"/>
      <point x="186" y="-156"/>
      <point x="221" y="-94"/>
      <point x="248" y="67" type="curve" smooth="yes"/>
      <point x="291" y="316" type="line"/>
      <point x="400" y="316" type="line"/>
      <point x="405" y="344" type="line"/>
      <point x="295" y="344" type="line"/>
      <point x="310" y="430" type="line" smooth="yes"/>
      <point x="329" y="540"/>
      <point x="349" y="578"/>
      <point x="415" y="578" type="curve" smooth="yes"/>
      <point x="474" y="578" type="line"/>
      <point x="477" y="602" type="line"/>
      <point x="468" y="605"/>
      <point x="446" y="609"/>
      <point x="407" y="609" type="curve" smooth="yes"/>
      <point x="321" y="609"/>
      <point x="292" y="562"/>
      <point x="271" y="433" type="curve" smooth="yes"/>
      <point x="255" y="345" type="line"/>
      <point x="176" y="345" type="line"/>
      <point x="171" y="316" type="line"/>
      <point x="251" y="316" type="line"/>
      <point x="208" y="61" type="line" smooth="yes"/>
      <point x="184" y="-82"/>
      <point x="154" y="-125"/>
      <point x="93" y="-125" type="curve" smooth="yes"/>
      <point x="36" y="-125" type="line"/>
    </contour>
  </outline>
</glyph>
<glyph name="four.oldstyle" format="1">
  <advance width="582"/>
  <outline>
    <contour>
      <point x="60" y="58" type="line"/>
      <point x="75" y="27" type="line"/>
      <point x="449" y="27" type="line"/>
      <point x="449" y="-188" type="line"/>
      <point x="490" y="-188" type="line"/>
      <point x="490" y="27" type="line"/>
      <point x="577" y="39" type="line"/>
      <point x="577" y="65" type="line"/>
      <point x="490" y="65" type="line"/>
      <point x="490" y="328" type="line"/>
      <point x="462" y="328" type="line"/>
      <point x="449" y="249" type="line"/>
      <point x="449" y="65" type="line"/>
      <point x="107" y="65" type="line"/>
      <point x="357" y="532" type="line"/>
      <point x="315" y="532" type="line"/>
    </contour>
  </outline>
</glyph>
<glyph name="four.tosf" format="1">
  <advance width="609"/>
  <outline>
    <contour>
      <point x="87" y="58" type="line"/>
      <point x="102" y="27" type="line"/>
      <point x="476" y="27" type="line"/>
      <point x="476" y="-188" type="line"/>
      <point x="517" y="-188" type="line"/>
      <point x="517" y="27" type="line"/>
      <point x="604" y="39" type="line"/>
      <point x="604" y="65" type="line"/>
      <point x="517" y="65" type="line"/>
      <point x="517" y="328" type="line"/>
      <point x="489" y="328" type="line"/>
      <point x="476" y="249" type="line"/>
      <point x="476" y="65" type="line"/>
      <point x="134" y="65" type="line"/>
      <point x="384" y="532" type="line"/>
      <point x="342" y="532" type="line"/>
    </contour>
  </outline>
</glyph>
<glyph name="h.superior" format="1">
  <advance width="439"/>
  <outline>
    <contour>
      <point x="63" y="280" type="line"/>
      <point x="100" y="280" type="line"/>
      <point x="100" y="603" type="line"/>
      <point x="149" y="629"/>
      <point x="187" y="645"/>
      <point x="246" y="645" type="curve" smooth="yes"/>
      <point x="306" y="645"/>
      <point x="342" y="602"/>
      <point x="342" y="548" type="curve" smooth="yes"/>
      <point x="342" y="280" type="line"/>
      <point x="379" y="280" type="line"/>
      <point x="379" y="550" type="line" smooth="yes"/>
      <point x="379" y="619"/>
      <point x="338" y="678"/>
      <point x="255" y="678" type="curve" smooth="yes"/>
      <point x="197" y="678"/>
      <point x="140" y="654"/>
      <point x="100" y="627" type="curve"/>
      <point x="100" y="857" type="line"/>
      <point x="63" y="857" type="line"/>
    </contour>
  </outline>
</glyph>
<glyph name="hookabovecomb" format="1">
  <note>
    GF Latin Plus glyph
  </note>
  <outline>
    <contour>
      <point x="-351" y="746" type="line"/>
      <point x="-339" y="750"/>
      <point x="-326" y="752"/>
      <point x="-314" y="752" type="curve" smooth="yes"/>
      <point x="-272" y="752"/>
      <point x="-257" y="732"/>
      <point x="-257" y="698" type="curve" smooth="yes"/>
      <point x="-257" y="672"/>
      <point x="-274" y="644"/>
      <point x="-323" y="629" type="curve"/>
      <point x="-323" y="608" type="line"/>
      <point x="-260" y="626"/>
      <point x="-233" y="662"/>
      <point x="-233" y="698" type="curve" smooth="yes"/>
      <point x="-233" y="742"/>
      <point x="-257" y="772"/>
      <point x="-309" y="772" type="curve" smooth="yes"/>
      <point x="-323" y="772"/>
      <point x="-337" y="771"/>
      <point x="-351" y="766" type="curve"/>
    </contour>
    <contour>
      <point x="-310" y="650" type="move" name="_top"/>
    </contour>
  </outline>
</glyph>
<glyph name="horncomb.case" format="1">
  <note>
    GF Latin Plus glyph
  </note>
  <outline>
    <contour>
      <point x="-237" y="708" type="line"/>
      <point x="-147" y="708" type="line" smooth="yes"/>
      <point x="-92" y="708"/>
      <point x="-35" y="738"/>
      <point x="-35" y="848" type="curve"/>
      <point x="-68" y="848" type="line"/>
      <point x="-68" y="762"/>
      <point x="-103" y="733"/>
      <point x="-150" y="733" type="curve" smooth="yes"/>
      <point x="-237" y="733" type="line"/>
    </contour>
    <contour>
      <point x="-271" y="810" type="move" name="_top"/>
    </contour>
  </outline>
</glyph>
<glyph name="jdotless" format="1">
  <advance width="214"/>
  <note>
    GF Latin Plus glyph
  </note>
  <outline>
    <contour>
      <point x="86" y="-237" type="line"/>
      <point x="116" y="-237" type="line"/>
      <point x="121" y="-175"/>
      <point x="127" y="-78"/>
      <point x="127" y="24" type="curve" smooth="yes"/>
      <point x="127" y="532" type="line"/>
      <point x="86" y="532" type="line"/>
    </contour>
    <contour>
      <point x="107" y="650" type="move" name="top"/>
    </contour>
  </outline>
</glyph>
<glyph name="k.superior" format="1">
  <advance width="365"/>
  <outline>
    <contour>
      <point x="63" y="280" type="line"/>
      <point x="100" y="280" type="line"/>
      <point x="100" y="474" type="line"/>
      <point x="158" y="474" type="line"/>
      <point x="306" y="280" type="line"/>
      <point x="347" y="280" type="line"/>
      <point x="189" y="490" type="line"/>
      <point x="340" y="672" type="line"/>
      <point x="299" y="672" type="line"/>
      <point x="162" y="508" type="line"/>
      <point x="100" y="508" type="line"/>
      <point x="100" y="856" type="line"/>
      <point x="63" y="856" type="line"/>
    </contour>
    <contour>
      <point x="186" y="169" type="move" name="bottom"/>
    </contour>
  </outline>
</glyph>
<glyph name="m.salt" format="1">
  <advance width="903"/>
  <outline>
    <contour>
      <point x="86" y="0" type="line"/>
      <point x="127" y="0" type="line"/>
      <point x="127" y="464" type="line"/>
      <point x="206" y="494"/>
      <point x="256" y="504"/>
      <point x="319" y="504" type="curve" smooth="yes"/>
      <point x="400" y="504"/>
      <point x="450" y="440"/>
      <point x="450" y="365" type="curve" smooth="yes"/>
      <point x="450" y="0" type="line"/>
      <point x="491" y="0" type="line"/>
      <point x="491" y="365" type="line" smooth="yes"/>
      <point x="491" y="391"/>
      <point x="485" y="420"/>
      <point x="476" y="438" type="curve"/>
      <point x="521" y="471"/>
      <point x="602" y="504"/>
      <point x="687" y="504" type="curve" smooth="yes"/>
      <point x="765" y="504"/>
      <point x="814" y="440"/>
      <point x="814" y="365" type="curve" smooth="yes"/>
      <point x="814" y="0" type="line"/>
      <point x="855" y="0" type="line"/>
      <point x="855" y="367" type="line" smooth="yes"/>
      <point x="855" y="459"/>
      <point x="802" y="541"/>
      <point x="693" y="541" type="curve" smooth="yes"/>
      <point x="604" y="541"/>
      <point x="518" y="505"/>
      <point x="463" y="465" type="curve"/>
      <point x="430" y="514"/>
      <point x="382" y="541"/>
      <point x="320" y="541" type="curve" smooth="yes"/>
      <point x="234" y="541"/>
      <point x="190" y="529"/>
      <point x="86" y="487" type="curve"/>
    </contour>
    <contour>
      <point x="474" y="650" type="move" name="top"/>
    </contour>
    <contour>
      <point x="472" y="-150" type="move" name="bottom"/>
    </contour>
  </outline>
</glyph>
<glyph name="m.superior" format="1">
  <advance width="718"/>
  <outline>
    <contour>
      <point x="63" y="280" type="line"/>
      <point x="100" y="280" type="line"/>
      <point x="100" y="603" type="line"/>
      <point x="150" y="630"/>
      <point x="187" y="645"/>
      <point x="246" y="645" type="curve" smooth="yes"/>
      <point x="307" y="645"/>
      <point x="342" y="602"/>
      <point x="342" y="548" type="curve" smooth="yes"/>
      <point x="342" y="280" type="line"/>
      <point x="379" y="280" type="line"/>
      <point x="379" y="546" type="line" smooth="yes"/>
      <point x="379" y="565"/>
      <point x="374" y="581"/>
      <point x="368" y="597" type="curve"/>
      <point x="416" y="624"/>
      <point x="473" y="645"/>
      <point x="524" y="645" type="curve" smooth="yes"/>
      <point x="585" y="645"/>
      <point x="620" y="602"/>
      <point x="620" y="548" type="curve" smooth="yes"/>
      <point x="620" y="280" type="line"/>
      <point x="657" y="280" type="line"/>
      <point x="657" y="549" type="line" smooth="yes"/>
      <point x="657" y="618"/>
      <point x="615" y="678"/>
      <point x="533" y="678" type="curve" smooth="yes"/>
      <point x="474" y="678"/>
      <point x="401" y="647"/>
      <point x="363" y="619" type="curve"/>
      <point x="343" y="653"/>
      <point x="308" y="678"/>
      <point x="257" y="678" type="curve" smooth="yes"/>
      <point x="196" y="678"/>
      <point x="142" y="654"/>
      <point x="100" y="627" type="curve"/>
      <point x="90" y="672" type="line"/>
      <point x="63" y="672" type="line"/>
    </contour>
    <contour>
      <point x="360" y="758" type="move" name="top"/>
    </contour>
    <contour>
      <point x="359" y="169" type="move" name="bottom"/>
    </contour>
  </outline>
</glyph>
<glyph name="manat.smcp" format="1">
  <advance width="517"/>
  <outline>
    <contour>
      <point x="271" y="61" type="line"/>
      <point x="271" y="599" type="line"/>
      <point x="246" y="599" type="line"/>
      <point x="246" y="61" type="line"/>
    </contour>
    <contour>
      <point x="258" y="516" type="curve" smooth="yes"/>
      <point x="90" y="516"/>
      <point x="59" y="297"/>
      <point x="52" y="0" type="curve"/>
      <point x="89" y="0" type="line"/>
      <point x="97" y="164" type="line" smooth="yes"/>
      <point x="104" y="309"/>
      <point x="132" y="482"/>
      <point x="258" y="482" type="curve" smooth="yes"/>
      <point x="384" y="482"/>
      <point x="412" y="308"/>
      <point x="420" y="164" type="curve" smooth="yes"/>
      <point x="428" y="0" type="line"/>
      <point x="465" y="0" type="line"/>
      <point x="458" y="297"/>
      <point x="426" y="516"/>
    </contour>
  </outline>
</glyph>
<glyph name="micro" format="1">
  <advance width="584"/>
  <note>
    GF Latin Plus glyph
  </note>
  <outline>
    <contour>
      <point x="86" y="223" type="line"/>
      <point x="86" y="-268" type="line"/>
      <point x="127" y="-268" type="line"/>
      <point x="127" y="223" type="line"/>
    </contour>
    <contour>
      <point x="86" y="180" type="line" smooth="yes"/>
      <point x="86" y="71"/>
      <point x="141" y="-6"/>
      <point x="256" y="-6" type="curve" smooth="yes"/>
      <point x="334" y="-6"/>
      <point x="406" y="23"/>
      <point x="461" y="61" type="curve"/>
      <point x="472" y="0" type="line"/>
      <point x="501" y="0" type="line"/>
      <point x="501" y="533" type="line"/>
      <point x="460" y="533" type="line"/>
      <point x="460" y="88" type="line"/>
      <point x="392" y="50"/>
      <point x="341" y="31"/>
      <point x="264" y="31" type="curve" smooth="yes"/>
      <point x="183" y="31"/>
      <point x="127" y="60"/>
      <point x="127" y="165" type="curve" smooth="yes"/>
      <point x="127" y="533" type="line"/>
      <point x="86" y="533" type="line"/>
    </contour>
  </outline>
</glyph>
<glyph name="n.salt" format="1">
  <advance width="583"/>
  <outline>
    <contour>
      <point x="86" y="0" type="line"/>
      <point x="127" y="0" type="line"/>
      <point x="127" y="464" type="line"/>
      <point x="179" y="485"/>
      <point x="238" y="504"/>
      <point x="314" y="504" type="curve" smooth="yes"/>
      <point x="397" y="504"/>
      <point x="445" y="441"/>
      <point x="445" y="365" type="curve" smooth="yes"/>
      <point x="445" y="0" type="line"/>
      <point x="486" y="0" type="line"/>
      <point x="486" y="368" type="line" smooth="yes"/>
      <point x="486" y="458"/>
      <point x="431" y="541"/>
      <point x="316" y="541" type="curve" smooth="yes"/>
      <point x="238" y="541"/>
      <point x="154" y="520"/>
      <point x="86" y="487" type="curve"/>
    </contour>
    <contour>
      <point x="282" y="650" type="move" name="top"/>
    </contour>
    <contour>
      <point x="282" y="-150" type="move" name="bottom"/>
    </contour>
  </outline>
</glyph>
<glyph name="naira.smcp" format="1">
  <advance width="517"/>
  <outline>
    <contour>
      <point x="93" y="0" type="line"/>
      <point x="128" y="0" type="line"/>
      <point x="128" y="494" type="line"/>
      <point x="392" y="0" type="line"/>
      <point x="423" y="0" type="line"/>
      <point x="423" y="567" type="line"/>
      <point x="388" y="567" type="line"/>
      <point x="388" y="74" type="line"/>
      <point x="124" y="567" type="line"/>
      <point x="93" y="567" type="line"/>
    </contour>
    <contour>
      <point x="220" y="357" type="line"/>
      <point x="480" y="357" type="line"/>
      <point x="480" y="383" type="line"/>
      <point x="208" y="383" type="line"/>
    </contour>
    <contour>
      <point x="36" y="357" type="line"/>
      <point x="109" y="357" type="line"/>
      <point x="109" y="383" type="line"/>
      <point x="36" y="383" type="line"/>
    </contour>
    <contour>
      <point x="409" y="184" type="line"/>
      <point x="480" y="184" type="line"/>
      <point x="480" y="210" type="line"/>
      <point x="409" y="210" type="line"/>
    </contour>
    <contour>
      <point x="36" y="184" type="line"/>
      <point x="314" y="184" type="line"/>
      <point x="299" y="210" type="line"/>
      <point x="36" y="210" type="line"/>
    </contour>
  </outline>
</glyph>
